<?xml version="1.0" encoding="UTF-8" standalone="no"?>
<!DOCTYPE svg PUBLIC "-//W3C//DTD SVG 1.0//EN" "http://www.w3.org/TR/2001/PR-SVG-20010719/DTD/svg10.dtd">
<svg width="13cm" height="21cm" viewBox="546 -19 242 413" xmlns="http://www.w3.org/2000/svg" xmlns:xlink="http://www.w3.org/1999/xlink">
  <g>
    <rect style="fill: #ffffff" x="627" y="104" width="89.35" height="28"/>
    <rect style="fill: none; fill-opacity:0; stroke-width: 2; stroke: #000000" x="627" y="104" width="89.35" height="28"/>
    <text font-size="16" style="fill: #000000;text-anchor:middle;font-family:sans-serif;font-style:normal;font-weight:700" x="671.675" y="123">JeuVideo</text>
    <rect style="fill: #ffffff" x="627" y="132" width="89.35" height="8"/>
    <rect style="fill: none; fill-opacity:0; stroke-width: 2; stroke: #000000" x="627" y="132" width="89.35" height="8"/>
    <rect style="fill: #ffffff" x="627" y="140" width="89.35" height="8"/>
    <rect style="fill: none; fill-opacity:0; stroke-width: 2; stroke: #000000" x="627" y="140" width="89.35" height="8"/>
  </g>
  <g>
    <rect style="fill: #ffffff" x="579" y="215.3" width="185.2" height="28"/>
    <rect style="fill: none; fill-opacity:0; stroke-width: 2; stroke: #000000" x="579" y="215.3" width="185.2" height="28"/>
    <text font-size="16" style="fill: #000000;text-anchor:middle;font-family:sans-serif;font-style:normal;font-weight:700" x="671.6" y="234.3">FirstPersonShooter</text>
    <rect style="fill: #ffffff" x="579" y="243.3" width="185.2" height="8"/>
    <rect style="fill: none; fill-opacity:0; stroke-width: 2; stroke: #000000" x="579" y="243.3" width="185.2" height="8"/>
    <rect style="fill: #ffffff" x="579" y="251.3" width="185.2" height="8"/>
    <rect style="fill: none; fill-opacity:0; stroke-width: 2; stroke: #000000" x="579" y="251.3" width="185.2" height="8"/>
  </g>
  <g>
    <rect style="fill: #ffffff" x="547" y="348.3" width="61.95" height="28"/>
    <rect style="fill: none; fill-opacity:0; stroke-width: 2; stroke: #000000" x="547" y="348.3" width="61.95" height="28"/>
    <text font-size="16" style="fill: #000000;text-anchor:middle;font-family:sans-serif;font-style:normal;font-weight:700" x="577.975" y="367.3">Doom</text>
    <rect style="fill: #ffffff" x="547" y="376.3" width="61.95" height="8"/>
    <rect style="fill: none; fill-opacity:0; stroke-width: 2; stroke: #000000" x="547" y="376.3" width="61.95" height="8"/>
    <rect style="fill: #ffffff" x="547" y="384.3" width="61.95" height="8"/>
    <rect style="fill: none; fill-opacity:0; stroke-width: 2; stroke: #000000" x="547" y="384.3" width="61.95" height="8"/>
  </g>
  <g>
    <rect style="fill: #ffffff" x="700" y="349.3" width="86.6" height="28"/>
    <rect style="fill: none; fill-opacity:0; stroke-width: 2; stroke: #000000" x="700" y="349.3" width="86.6" height="28"/>
    <text font-size="16" style="fill: #000000;text-anchor:middle;font-family:sans-serif;font-style:normal;font-weight:700" x="743.3" y="368.3">Valorant</text>
    <rect style="fill: #ffffff" x="700" y="377.3" width="86.6" height="8"/>
    <rect style="fill: none; fill-opacity:0; stroke-width: 2; stroke: #000000" x="700" y="377.3" width="86.6" height="8"/>
    <rect style="fill: #ffffff" x="700" y="385.3" width="86.6" height="8"/>
    <rect style="fill: none; fill-opacity:0; stroke-width: 2; stroke: #000000" x="700" y="385.3" width="86.6" height="8"/>
  </g>
  <g>
    <polyline style="fill: none; fill-opacity:0; stroke-width: 2; stroke: #000000" points="671.675,167.242 671.675,189.65 671.6,189.65 671.6,214.294 "/>
    <polygon style="fill: #ffffff" points="679.675,167.242 671.675,151.242 663.675,167.242 "/>
    <polygon style="fill: none; fill-opacity:0; stroke-width: 2; stroke: #000000" points="679.675,167.242 671.675,151.242 663.675,167.242 "/>
  </g>
  <g>
    <polyline style="fill: none; fill-opacity:0; stroke-width: 2; stroke: #000000" points="671.6,278.542 671.6,312.3 743.3,312.3 743.3,348.294 "/>
    <polygon style="fill: #ffffff" points="679.6,278.542 671.6,262.542 663.6,278.542 "/>
    <polygon style="fill: none; fill-opacity:0; stroke-width: 2; stroke: #000000" points="679.6,278.542 671.6,262.542 663.6,278.542 "/>
  </g>
  <g>
    <polyline style="fill: none; fill-opacity:0; stroke-width: 2; stroke: #000000" points="671.6,278.542 671.6,311.8 577.975,311.8 577.975,347.294 "/>
    <polygon style="fill: #ffffff" points="679.6,278.542 671.6,262.542 663.6,278.542 "/>
    <polygon style="fill: none; fill-opacity:0; stroke-width: 2; stroke: #000000" points="679.6,278.542 671.6,262.542 663.6,278.542 "/>
  </g>
  <g>
    <rect style="fill: #ffffff" x="619.5" y="-17.45" width="104.45" height="28"/>
    <rect style="fill: none; fill-opacity:0; stroke-width: 2; stroke: #000000" x="619.5" y="-17.45" width="104.45" height="28"/>
    <text font-size="16" style="fill: #000000;text-anchor:middle;font-family:sans-serif;font-style:normal;font-weight:700" x="671.725" y="1.55">Formateur</text>
    <rect style="fill: #ffffff" x="619.5" y="10.55" width="104.45" height="8"/>
    <rect style="fill: none; fill-opacity:0; stroke-width: 2; stroke: #000000" x="619.5" y="10.55" width="104.45" height="8"/>
    <rect style="fill: #ffffff" x="619.5" y="18.55" width="104.45" height="8"/>
    <rect style="fill: none; fill-opacity:0; stroke-width: 2; stroke: #000000" x="619.5" y="18.55" width="104.45" height="8"/>
  </g>
  <g>
    <polyline style="fill: none; fill-opacity:0; stroke-width: 2; stroke-dasharray: 8; stroke: #000000" points="671.725,45.7917 671.725,73.275 671.675,73.275 671.675,102.994 "/>
    <polygon style="fill: #ffffff" points="679.725,45.7917 671.725,29.7917 663.725,45.7917 "/>
    <polygon style="fill: none; fill-opacity:0; stroke-width: 2; stroke: #000000" points="679.725,45.7917 671.725,29.7917 663.725,45.7917 "/>
  </g>
</svg>
