<?xml version="1.0" encoding="UTF-8" standalone="no"?>
<!DOCTYPE svg PUBLIC "-//W3C//DTD SVG 1.0//EN" "http://www.w3.org/TR/2001/PR-SVG-20010719/DTD/svg10.dtd">
<svg width="29cm" height="17cm" viewBox="239 72 564 340" xmlns="http://www.w3.org/2000/svg" xmlns:xlink="http://www.w3.org/1999/xlink">
  <g>
    <rect style="fill: #ffffff" x="441" y="73" width="145.05" height="28"/>
    <rect style="fill: none; fill-opacity:0; stroke-width: 2; stroke: #000000" x="441" y="73" width="145.05" height="28"/>
    <text font-size="16" style="fill: #000000;text-anchor:middle;font-family:sans-serif;font-style:normal;font-weight:700" x="513.525" y="92">ValeurJson&lt;V&gt;</text>
    <rect style="fill: #ffffff" x="441" y="101" width="145.05" height="8"/>
    <rect style="fill: none; fill-opacity:0; stroke-width: 2; stroke: #000000" x="441" y="101" width="145.05" height="8"/>
    <rect style="fill: #ffffff" x="441" y="109" width="145.05" height="20"/>
    <rect style="fill: none; fill-opacity:0; stroke-width: 2; stroke: #000000" x="441" y="109" width="145.05" height="20"/>
    <text font-size="12.8" style="fill: #000000;text-anchor:start;font-family:monospace;font-style:normal;font-weight:normal" x="444" y="123"> V valeurJava()</text>
  </g>
  <g>
    <rect style="fill: #ffffff" x="240.5" y="193.3" width="91.55" height="28"/>
    <rect style="fill: none; fill-opacity:0; stroke-width: 2; stroke: #000000" x="240.5" y="193.3" width="91.55" height="28"/>
    <text font-size="16" style="fill: #000000;text-anchor:middle;font-family:sans-serif;font-style:normal;font-weight:700" x="286.275" y="212.3">ListeJson</text>
    <rect style="fill: #ffffff" x="240.5" y="221.3" width="91.55" height="8"/>
    <rect style="fill: none; fill-opacity:0; stroke-width: 2; stroke: #000000" x="240.5" y="221.3" width="91.55" height="8"/>
    <rect style="fill: #ffffff" x="240.5" y="229.3" width="91.55" height="8"/>
    <rect style="fill: none; fill-opacity:0; stroke-width: 2; stroke: #000000" x="240.5" y="229.3" width="91.55" height="8"/>
  </g>
  <g>
    <rect style="fill: #ffffff" x="705.5" y="207.3" width="96.9" height="28"/>
    <rect style="fill: none; fill-opacity:0; stroke-width: 2; stroke: #000000" x="705.5" y="207.3" width="96.9" height="28"/>
    <text font-size="16" style="fill: #000000;text-anchor:middle;font-family:sans-serif;font-style:normal;font-weight:700" x="753.95" y="226.3">ObjetJson</text>
    <rect style="fill: #ffffff" x="705.5" y="235.3" width="96.9" height="8"/>
    <rect style="fill: none; fill-opacity:0; stroke-width: 2; stroke: #000000" x="705.5" y="235.3" width="96.9" height="8"/>
    <rect style="fill: #ffffff" x="705.5" y="243.3" width="96.9" height="8"/>
    <rect style="fill: none; fill-opacity:0; stroke-width: 2; stroke: #000000" x="705.5" y="243.3" width="96.9" height="8"/>
  </g>
  <g>
    <rect style="fill: #ffffff" x="325.5" y="291.3" width="83.65" height="28"/>
    <rect style="fill: none; fill-opacity:0; stroke-width: 2; stroke: #000000" x="325.5" y="291.3" width="83.65" height="28"/>
    <text font-size="16" style="fill: #000000;text-anchor:middle;font-family:sans-serif;font-style:normal;font-weight:700" x="367.325" y="310.3">NullJson</text>
    <rect style="fill: #ffffff" x="325.5" y="319.3" width="83.65" height="8"/>
    <rect style="fill: none; fill-opacity:0; stroke-width: 2; stroke: #000000" x="325.5" y="319.3" width="83.65" height="8"/>
    <rect style="fill: #ffffff" x="325.5" y="327.3" width="83.65" height="8"/>
    <rect style="fill: none; fill-opacity:0; stroke-width: 2; stroke: #000000" x="325.5" y="327.3" width="83.65" height="8"/>
  </g>
  <g>
    <rect style="fill: #ffffff" x="366.5" y="366.3" width="120.65" height="28"/>
    <rect style="fill: none; fill-opacity:0; stroke-width: 2; stroke: #000000" x="366.5" y="366.3" width="120.65" height="28"/>
    <text font-size="16" style="fill: #000000;text-anchor:middle;font-family:sans-serif;font-style:normal;font-weight:700" x="426.825" y="385.3">BooleenJson</text>
    <rect style="fill: #ffffff" x="366.5" y="394.3" width="120.65" height="8"/>
    <rect style="fill: none; fill-opacity:0; stroke-width: 2; stroke: #000000" x="366.5" y="394.3" width="120.65" height="8"/>
    <rect style="fill: #ffffff" x="366.5" y="402.3" width="120.65" height="8"/>
    <rect style="fill: none; fill-opacity:0; stroke-width: 2; stroke: #000000" x="366.5" y="402.3" width="120.65" height="8"/>
  </g>
  <g>
    <rect style="fill: #ffffff" x="527.5" y="365.3" width="119.1" height="28"/>
    <rect style="fill: none; fill-opacity:0; stroke-width: 2; stroke: #000000" x="527.5" y="365.3" width="119.1" height="28"/>
    <text font-size="16" style="fill: #000000;text-anchor:middle;font-family:sans-serif;font-style:normal;font-weight:700" x="587.05" y="384.3">NombreJson</text>
    <rect style="fill: #ffffff" x="527.5" y="393.3" width="119.1" height="8"/>
    <rect style="fill: none; fill-opacity:0; stroke-width: 2; stroke: #000000" x="527.5" y="393.3" width="119.1" height="8"/>
    <rect style="fill: #ffffff" x="527.5" y="401.3" width="119.1" height="8"/>
    <rect style="fill: none; fill-opacity:0; stroke-width: 2; stroke: #000000" x="527.5" y="401.3" width="119.1" height="8"/>
  </g>
  <g>
    <rect style="fill: #ffffff" x="626.5" y="293.3" width="109.55" height="28"/>
    <rect style="fill: none; fill-opacity:0; stroke-width: 2; stroke: #000000" x="626.5" y="293.3" width="109.55" height="28"/>
    <text font-size="16" style="fill: #000000;text-anchor:middle;font-family:sans-serif;font-style:normal;font-weight:700" x="681.275" y="312.3">ChaineJson</text>
    <rect style="fill: #ffffff" x="626.5" y="321.3" width="109.55" height="8"/>
    <rect style="fill: none; fill-opacity:0; stroke-width: 2; stroke: #000000" x="626.5" y="321.3" width="109.55" height="8"/>
    <rect style="fill: #ffffff" x="626.5" y="329.3" width="109.55" height="8"/>
    <rect style="fill: none; fill-opacity:0; stroke-width: 2; stroke: #000000" x="626.5" y="329.3" width="109.55" height="8"/>
  </g>
  <g>
    <polyline style="fill: none; fill-opacity:0; stroke-width: 2; stroke: #000000" points="513.525,147.236 513.525,218.647 681.275,218.647 681.275,292.294 "/>
    <polygon style="fill: #ffffff" points="521.525,147.236 513.525,131.236 505.525,147.236 "/>
    <polygon style="fill: none; fill-opacity:0; stroke-width: 2; stroke: #000000" points="521.525,147.236 513.525,131.236 505.525,147.236 "/>
  </g>
  <g>
    <polyline style="fill: none; fill-opacity:0; stroke-width: 2; stroke: #000000" points="513.525,148.243 513.525,255.151 587.05,255.151 587.05,364.294 "/>
    <polygon style="fill: #ffffff" points="521.525,148.243 513.525,132.243 505.525,148.243 "/>
    <polygon style="fill: none; fill-opacity:0; stroke-width: 2; stroke: #000000" points="521.525,148.243 513.525,132.243 505.525,148.243 "/>
  </g>
  <g>
    <polyline style="fill: none; fill-opacity:0; stroke-width: 2; stroke: #000000" points="513.525,148.243 513.525,255.651 426.825,255.651 426.825,365.294 "/>
    <polygon style="fill: #ffffff" points="521.525,148.243 513.525,132.243 505.525,148.243 "/>
    <polygon style="fill: none; fill-opacity:0; stroke-width: 2; stroke: #000000" points="521.525,148.243 513.525,132.243 505.525,148.243 "/>
  </g>
  <g>
    <polyline style="fill: none; fill-opacity:0; stroke-width: 2; stroke: #000000" points="513.525,148.243 513.525,218.151 367.325,218.151 367.325,290.294 "/>
    <polygon style="fill: #ffffff" points="521.525,148.243 513.525,132.243 505.525,148.243 "/>
    <polygon style="fill: none; fill-opacity:0; stroke-width: 2; stroke: #000000" points="521.525,148.243 513.525,132.243 505.525,148.243 "/>
  </g>
  <g>
    <polyline style="fill: none; fill-opacity:0; stroke-width: 2; stroke: #000000" points="513.525,148.215 513.525,174 753.95,174 753.95,206.348 "/>
    <polygon style="fill: #ffffff" points="521.525,148.215 513.525,132.215 505.525,148.215 "/>
    <polygon style="fill: none; fill-opacity:0; stroke-width: 2; stroke: #000000" points="521.525,148.215 513.525,132.215 505.525,148.215 "/>
  </g>
  <g>
    <polyline style="fill: none; fill-opacity:0; stroke-width: 2; stroke: #000000" points="513.525,148.233 513.525,175 286.275,175 286.275,192.307 "/>
    <polygon style="fill: #ffffff" points="521.525,148.233 513.525,132.233 505.525,148.233 "/>
    <polygon style="fill: none; fill-opacity:0; stroke-width: 2; stroke: #000000" points="521.525,148.233 513.525,132.233 505.525,148.233 "/>
  </g>
</svg>
