<?xml version="1.0" encoding="UTF-8" standalone="no"?>
<!-- Created with Inkscape (http://www.inkscape.org/) -->

<svg
   xmlns:dc="http://purl.org/dc/elements/1.1/"
   xmlns:cc="http://creativecommons.org/ns#"
   xmlns:rdf="http://www.w3.org/1999/02/22-rdf-syntax-ns#"
   xmlns:svg="http://www.w3.org/2000/svg"
   xmlns="http://www.w3.org/2000/svg"
   xmlns:sodipodi="http://sodipodi.sourceforge.net/DTD/sodipodi-0.dtd"
   xmlns:inkscape="http://www.inkscape.org/namespaces/inkscape"
   width="297mm"
   height="210mm"
   viewBox="0 0 297 210"
   version="1.1"
   id="svg8"
   inkscape:version="0.92.4 (unknown)"
   sodipodi:docname="deplacer.svg">
  <defs
     id="defs2" />
  <sodipodi:namedview
     id="base"
     pagecolor="#ffffff"
     bordercolor="#666666"
     borderopacity="1.0"
     inkscape:pageopacity="0.0"
     inkscape:pageshadow="2"
     inkscape:zoom="2.032539"
     inkscape:cx="916.16535"
     inkscape:cy="296.73204"
     inkscape:document-units="mm"
     inkscape:current-layer="layer1"
     showgrid="false"
     showguides="true"
     inkscape:window-width="2554"
     inkscape:window-height="1434"
     inkscape:window-x="0"
     inkscape:window-y="0"
     inkscape:window-maximized="0"
     inkscape:snap-global="false" />
  <metadata
     id="metadata5">
    <rdf:RDF>
      <cc:Work
         rdf:about="">
        <dc:format>image/svg+xml</dc:format>
        <dc:type
           rdf:resource="http://purl.org/dc/dcmitype/StillImage" />
        <dc:title />
      </cc:Work>
    </rdf:RDF>
  </metadata>
  <g
     inkscape:label="Calque 1"
     inkscape:groupmode="layer"
     id="layer1"
     transform="translate(0,-87)">
    <path
       style="fill:#000000;stroke-width:0.53731978;opacity:0.959"
       id="path30"
       d="m 288.67226,138.78679 c -2.64333,-0.0372 -5.28077,-0.002 -7.91992,0.14704 -3.77201,0.26873 -7.54683,0.29635 -11.32451,0.18785 -4.60652,-0.14602 -9.21267,-0.23588 -13.81651,-0.45283 -4.58708,-0.2383 -9.17935,-0.32896 -13.77171,-0.38007 -5.10973,-0.0122 -10.2164,-0.0221 -15.32374,-0.18602 -5.47672,-0.20368 -10.95647,-0.28759 -16.4364,-0.33643 -5.42262,-0.0122 -10.8465,-0.0991 -16.26813,0.0264 -5.62476,0.20436 -11.2513,0.33238 -16.8792,0.40407 -5.45393,-0.0761 -10.90523,-0.26707 -16.35888,-0.3652 -5.24633,-0.0827 -10.49342,-0.0918 -15.74028,-0.0989 -4.95854,-0.004 -9.9171,-0.001 -14.87564,1.8e-4 -4.47679,0.0885 -8.94754,-0.15068 -13.41946,-0.31349 -3.90623,-0.14074 -7.81496,-0.17811 -11.72333,-0.19963 -3.64904,-0.0981 -7.291494,0.1257 -10.933862,0.30734 -2.699197,0.0599 -5.387874,0.22577 -8.078176,0.44233 -2.164382,0.17892 -4.336927,0.1578 -6.492597,0.43019 -0.878266,0.12571 -1.755457,0.25763 -2.63681,0.36041 -0.117787,0.0122 -0.236103,0.029 -0.354276,0.0327 0.687716,-0.26975 0.885476,-0.10011 0.947315,0.54426 0.02437,1.45758 0.0061,2.91581 0.0016,4.37357 0.09748,2.70801 0.408905,5.39926 0.653658,8.09594 0.292113,2.99269 0.274242,6.00159 0.428299,9.00137 0.156982,3.33021 0.416175,6.65242 0.658208,9.97704 0.34995,3.43895 0.598075,6.88619 0.903915,10.32903 0.421537,3.54024 0.963947,7.06492 1.410828,10.60265 0.353382,3.5075 0.698499,7.01689 0.930012,10.53499 0.303546,3.37266 0.514141,6.75148 0.813524,10.12434 0.23265,3.06993 0.376716,6.14249 0.739359,9.20108 0.373487,3.04817 0.689482,6.10367 1.081815,9.14943 0.358804,2.63303 0.542715,5.28341 0.831476,7.92404 0.298672,2.34703 0.29459,4.71545 0.469748,7.07085 0.189475,2.09462 0.323671,4.19091 0.581768,6.27832 0.24847,1.92229 0.342679,3.85883 0.400212,5.79471 0.03879,1.8203 0.284944,3.62858 0.412906,5.44445 0.102962,1.64878 0.127535,3.30079 0.140735,4.95225 0.0061,1.19623 0.0041,2.3925 0.0041,3.58875 0.02031,1.05911 0.02356,2.10394 -0.148453,3.15026 -0.165105,0.86092 -0.281755,1.72784 -0.341441,2.60217 0.0266,0.13078 -0.165917,1.02383 0.08001,0.89703 0.261711,-0.16003 0.573563,-0.21911 0.87319,-0.26312 0.798516,-0.0625 1.599713,-0.0638 2.395834,0.0183 1.803485,0.30643 3.632071,0.15617 5.44829,0.0867 2.553445,0.0404 5.100713,0.20452 7.642463,0.44271 3.1513,0.30995 6.31844,0.37473 9.48226,0.42532 3.75244,0.0439 7.5052,0.039 11.25783,0.0386 4.23047,-0.0784 8.45511,0.16328 12.68116,0.31251 4.5289,0.12733 9.05729,0.15698 13.58414,0.34958 4.33451,0.21007 8.67306,0.29922 13.01194,0.3491 4.06603,0.0363 8.13227,0.0343 12.19843,0.0345 3.93229,0.12875 7.86157,0.32225 11.79481,0.42505 3.7719,0.006 7.53534,0.25627 11.3025,0.41205 3.88467,0.13526 7.7609,0.42698 11.64524,0.57939 3.49648,0.15719 6.99872,0.0648 10.49463,0.2131 2.6824,0.16612 5.36496,0.31991 8.05139,0.4006 2.22735,-0.0226 4.44133,0.22064 6.66022,0.37582 2.28501,0.1519 4.55794,0.43019 6.84419,0.57773 2.10211,0.27158 4.21924,0.40236 6.32394,0.6433 2.36522,0.29893 4.74558,0.42423 7.11825,0.64892 2.46697,0.17079 4.91942,0.48634 7.38117,0.71432 1.5156,0.12916 3.03567,0.19557 4.55608,0.23103 0.33591,0.0102 0.67189,0.006 1.00785,0.004 0.3254,0.002 0.59911,0.24715 0.89141,0.38421 0.63479,0.0896 -0.38025,0.3153 0.0203,0.004 0.19557,-0.15231 0.41153,-0.27621 0.61729,-0.41431 0.5165,-0.043 1.02077,0.25983 1.53345,0.3704 1.06157,0.14907 2.1366,0.15922 3.20666,0.17405 1.19779,-0.0617 2.37229,0.0749 3.55443,0.24507 1.10826,0.16145 2.2273,0.22504 3.34554,0.26409 0.67391,0.0221 1.3483,0.0203 2.02249,0.0203 0.3771,-5.5e-4 0.75421,-0.002 1.13131,-0.004 0.18541,0.004 0.33778,-0.0532 -0.30852,0.0881 -0.3321,-0.71975 -0.37725,-1.49552 -0.43283,-2.27842 -0.1249,-1.95689 -0.0894,-3.91011 0.0559,-5.86363 0.12428,-2.38875 0.35346,-4.76616 0.57831,-7.14676 0.23456,-2.51807 0.27831,-5.0478 0.30992,-7.57482 0.24305,-2.93309 0.28869,-5.86124 0.21021,-8.80129 -0.067,-2.9339 -0.38183,-5.8561 -0.70247,-8.77115 -0.32124,-2.85069 -0.44002,-5.71697 -0.50714,-8.58306 -0.0459,-2.64172 -0.0408,-5.28395 -0.0398,-7.92596 0.002,-2.3632 0.004,-4.72642 0.004,-7.08964 0.001,-2.23739 5.5e-4,-4.4748 0.001,-6.71219 4.3e-4,-2.36766 2.5e-4,-4.73533 2e-5,-7.10297 -0.0721,-2.11934 0.0435,-4.22469 0.23489,-6.33357 0.21001,-1.97379 0.18033,-3.96145 0.332,-5.93812 0.24428,-1.87985 0.28297,-3.77817 0.48416,-5.66096 0.23609,-1.62124 0.37979,-3.25164 0.46142,-4.88724 0.11779,-1.50042 0.44449,-2.96539 0.72283,-4.44003 0.26892,-1.47242 0.32514,-2.97043 0.36486,-4.46306 -0.0546,-1.43891 0.1712,-2.85851 0.33269,-4.28311 0.1255,-1.44566 0.15637,-2.88938 0.34554,-4.3288 0.19963,-1.32572 0.30038,-2.6611 0.35068,-3.99978 0.0313,-1.02651 0.0347,-2.0536 0.0345,-3.0805 -0.0122,-0.8122 0.24502,-1.59762 0.37363,-2.3949 0.10987,-0.69025 0.13038,-1.39001 0.14399,-2.08751 0.006,-0.46652 0.004,-0.93314 0.004,-1.3997 -0.002,-0.25477 -0.002,-0.50953 -0.002,-0.76432 -4.3e-4,-0.1976 -2.4e-4,-0.3953 0,-0.59294 2.6e-4,-0.4285 2.4e-4,-0.857 4.3e-4,-1.2855 5.4e-4,-0.66337 1.8e-4,-1.32675 2.4e-4,-1.99012 4e-5,-0.62813 10e-5,-1.25624 -1.8e-4,-1.88435 -4.7e-4,-0.34337 -2.5e-4,-0.68676 -5.3e-4,-1.03015 3.8e-4,-0.34788 1e-4,-0.69574 3e-4,-1.04362 4e-5,-0.40963 1.1e-4,-0.81927 0,-1.22891 3.9e-4,-0.45254 -8e-5,-0.90507 1.1e-4,-1.35762 -5e-5,-0.42066 2e-5,-0.84134 -1.1e-4,-1.26201 1.7e-4,-0.37529 -4e-5,-0.75058 -1.2e-4,-1.12588 -0.0102,-0.32302 0.19293,-0.60691 0.36996,-0.86299 0.11941,-0.1515 0.13342,-0.35542 0.15068,-0.5413 0.0122,-0.20084 0.006,-0.40232 0.004,-0.60333 -0.001,-0.30694 -0.002,-0.61388 -0.002,-0.92081 0.0307,-0.12957 -0.0219,-0.14216 -0.038,-0.15861 -0.0321,-0.0252 -0.0642,-0.0504 -0.0961,-0.0753 0,0 0.39221,-0.34478 0.39221,-0.34478 v 0 c 0.0256,0.0183 0.0512,0.036 0.0768,0.0538 0.1249,0.0498 0.0869,0.0871 0.0877,0.21787 4e-5,0.30702 4.6e-4,0.61405 0.002,0.92109 5.5e-4,0.20207 0.006,0.40462 -0.002,0.60661 -0.0142,0.18846 -0.0223,0.40878 -0.13566,0.56434 -0.17587,0.24581 -0.39055,0.52529 -0.3884,0.83682 -6e-5,0.37535 -2.6e-4,0.75071 -1.2e-4,1.12607 -1e-4,0.4207 -4e-5,0.84142 -8e-5,1.26213 1.6e-4,0.4525 -3e-4,0.90499 8e-5,1.35749 -1e-4,0.40964 -2e-5,0.81928 0,1.22891 2.1e-4,0.34772 -6e-5,0.69543 3.3e-4,1.04315 -3.7e-4,0.34367 -1.7e-4,0.68737 -5.5e-4,1.03104 -2.9e-4,0.6282 -2.2e-4,1.25641 -1.8e-4,1.8846 6e-5,0.66327 -3.9e-4,1.32653 2.4e-4,1.98979 1.8e-4,0.4283 1.2e-4,0.8566 3.9e-4,1.2849 2.4e-4,0.1976 2.8e-4,0.39505 3.6e-4,0.59259 10e-5,0.25493 5.3e-4,0.50984 0.002,0.76477 10e-4,0.46708 0.004,0.93421 -0.004,1.40128 -0.0142,0.69947 -0.0319,1.40144 -0.14073,2.09391 -0.1253,0.79604 -0.38466,1.57864 -0.37822,2.3881 -2.8e-4,1.02794 -0.006,2.05599 -0.0355,3.08357 -0.0494,1.34011 -0.14784,2.67708 -0.34847,4.00415 -0.19028,1.43916 -0.22485,2.88181 -0.34572,4.32777 -0.16105,1.42354 -0.39132,2.84178 -0.33555,4.27966 -0.0394,1.49472 -0.0934,2.99503 -0.36027,4.46991 -0.27589,1.47341 -0.60711,2.93556 -0.72687,4.43428 -0.0814,1.63667 -0.22246,3.26856 -0.461,4.89061 -0.20501,1.8822 -0.23823,3.78091 -0.48589,5.66029 -0.15495,1.97651 -0.12103,3.96447 -0.33118,5.93836 -0.19212,2.10801 -0.31281,4.21208 -0.23895,6.33074 -2.2e-4,2.36765 -3.4e-4,4.7353 4e-5,7.10294 3.5e-4,2.23741 -2.2e-4,4.4748 -10e-4,6.71221 -0.001,2.3635 -0.004,4.72703 -0.006,7.09053 -0.002,2.64179 -0.006,5.28377 0.0388,7.92528 0.0656,2.86511 0.18277,5.73055 0.50338,8.58033 0.32117,2.91615 0.63772,5.83933 0.7052,8.77438 0.0794,2.94036 0.0374,5.86902 -0.20832,8.80239 -0.0303,2.52781 -0.0725,5.05837 -0.30619,7.57729 -0.22434,2.38024 -0.45616,4.75698 -0.57825,7.14548 -0.14622,1.95077 -0.18298,3.9009 -0.0569,5.85513 0.0554,0.78296 0.095,1.56017 0.43666,2.27687 -0.38754,0.5985 -0.15718,0.59023 -0.48067,0.58981 -0.37654,5.5e-4 -0.75307,0.002 -1.12962,0.002 -0.6744,5.5e-4 -1.34901,0.002 -2.0231,-0.0215 -1.11922,-0.0412 -2.2392,-0.10662 -3.34837,-0.26906 -1.18063,-0.16978 -2.3542,-0.29867 -3.55011,-0.24 -1.07302,-0.0163 -2.1514,-0.026 -3.21534,-0.18014 -0.50072,-0.11108 -1.00562,-0.41814 -1.51268,-0.34836 0.1911,-0.26334 0.25465,-0.33917 0.0705,-0.11677 -0.38955,0.47013 -0.32755,0.69543 -0.73775,0.49793 -0.2859,-0.13586 -0.55232,-0.37405 -0.87516,-0.3675 -0.33584,0.002 -0.67167,0.004 -1.00741,-0.006 -1.51964,-0.04 -3.03895,-0.10783 -4.55378,-0.23823 -2.4611,-0.2303 -4.91343,-0.54357 -7.37988,-0.71572 -2.37349,-0.22431 -4.75488,-0.3476 -7.12082,-0.64773 -2.10427,-0.23755 -4.21977,-0.37499 -6.32151,-0.64223 -2.28614,-0.14885 -4.55926,-0.42697 -6.84443,-0.57786 -2.21826,-0.15577 -4.43187,-0.39536 -6.65862,-0.37455 -2.68559,-0.0823 -5.36718,-0.23866 -8.04881,-0.40399 -3.49535,-0.14703 -6.99695,-0.0569 -10.49279,-0.21474 -3.88408,-0.15373 -7.76015,-0.44576 -11.64467,-0.58008 -3.76719,-0.15576 -7.53079,-0.40448 -11.30269,-0.41077 -3.93253,-0.10398 -7.86106,-0.29951 -11.79278,-0.42525 -4.06609,2e-5 -8.13227,0.002 -12.19825,-0.0355 -4.33888,-0.0506 -8.67745,-0.14074 -13.01198,-0.35125 -4.52689,-0.19252 -9.05542,-0.22029 -13.58434,-0.34888 -4.22621,-0.14926 -8.45112,-0.38892 -12.68175,-0.30939 -3.75315,4.5e-4 -7.50646,0.006 -11.25943,-0.0382 -3.16565,-0.0504 -6.33464,-0.11494 -9.48776,-0.4254 -2.54064,-0.23717 -5.087135,-0.40067 -7.639484,-0.43617 -1.819163,0.0701 -3.649841,0.21628 -5.456515,-0.0885 -0.794029,-0.077 -1.594048,-0.0778 -2.389437,-0.006 -0.302327,0.0479 -0.596755,0.12449 -0.869818,0.26752 -0.369568,0.0298 -0.102962,-0.75591 -0.142766,-0.97311 0.05788,-0.87607 0.173228,-1.74479 0.339694,-2.60714 0.175056,-1.04414 0.175462,-2.08572 0.15353,-3.14343 0.0016,-1.19648 0.0041,-2.39295 -0.0016,-3.58943 -0.01219,-1.65089 -0.03554,-3.30237 -0.137486,-4.95064 -0.127129,-1.81654 -0.373833,-3.62529 -0.414347,-5.44601 -0.05585,-1.93476 -0.148453,-3.87023 -0.396517,-5.79142 -0.258807,-2.08843 -0.392983,-4.18553 -0.58191,-6.28133 -0.17729,-2.35483 -0.170385,-4.72301 -0.468306,-7.06972 -0.289046,-2.64083 -0.470925,-5.29147 -0.828775,-7.92484 -0.392679,-3.04584 -0.708064,-6.10157 -1.08214,-9.1498 -0.364633,-3.05912 -0.507927,-6.13231 -0.739278,-9.20305 -0.299159,-3.37332 -0.509064,-6.75264 -0.813666,-10.12566 -0.23001,-3.51753 -0.575635,-7.02613 -0.927412,-10.53313 -0.4468,-3.53816 -0.98854,-7.06333 -1.412554,-10.60369 -0.305821,-3.44303 -0.553519,-6.8905 -0.904667,-10.3295 -0.241525,-3.32479 -0.502586,-6.64696 -0.659629,-9.97731 -0.156779,-2.99897 -0.136674,-6.00723 -0.42771,-8.99934 -0.244835,-2.69726 -0.557479,-5.38878 -0.660137,-8.09712 0.0041,-1.45508 0.01828,-2.91056 -0.0041,-4.36548 -0.05463,-0.72945 -0.52657,-0.40614 -0.1582,-1.22373 0.115959,-0.0122 0.232447,-0.0223 0.348305,-0.0359 0.879871,-0.10154 1.755436,-0.23365 2.632485,-0.35663 2.15573,-0.2661 4.32791,-0.24516 6.49156,-0.42589 2.689856,-0.21597 5.378289,-0.37807 8.076917,-0.43884 3.642429,-0.17952 7.284963,-0.40039 10.933953,-0.30346 3.90816,0.0217 7.81667,0.0605 11.72265,0.20247 4.47092,0.16328 8.94071,0.40156 13.41654,0.31382 4.95805,-0.001 9.91613,-0.002 14.8742,0.001 5.24698,0.008 10.49417,0.0163 15.7406,0.0997 5.45286,0.0987 10.90335,0.29094 16.35653,0.36541 5.62808,-0.0719 11.25478,-0.20126 16.87975,-0.40535 5.42193,-0.12388 10.84607,-0.0374 16.269,-0.0252 5.48032,0.0493 10.96041,0.13342 16.43752,0.33693 5.10799,0.16246 10.2153,0.17059 15.32564,0.18277 4.59267,0.051 9.1852,0.14277 13.77255,0.38173 4.6041,0.2162 9.21049,0.30544 13.81723,0.45082 3.77813,0.10622 7.55334,0.0747 11.32562,-0.19495 2.64182,-0.14886 5.282,-0.18095 7.92795,-0.15089 0,0 -0.36583,0.36583 -0.36583,0.36583 z"
       inkscape:connector-curvature="0" />
    <path
       style="fill:#000000;stroke-width:1.1409725;opacity:0.306"
       id="path84"
       d="m 202.11833,190.24352 c -6.25576,1.02412 -12.59548,1.37389 -18.91653,1.70625 -2.39801,0.10581 -4.79618,0.23219 -7.19642,0.27386 -0.97838,0.21959 0.62259,-1.44371 0.79746,0.63268 -0.0429,1.78198 -0.0841,3.56404 -0.10621,5.34661 -0.0343,3.4863 -0.0386,6.9728 -0.0386,10.45928 -4.3e-4,1.62512 1.8e-4,3.25024 0.004,4.87532 0.001,0.34893 7.3e-4,0.69783 0.001,1.04676 9e-5,0.12551 3.5e-4,0.2513 5.9e-4,0.37672 0.48175,-0.0676 1.10665,-0.0959 1.62725,-0.19313 4.61109,-0.82443 9.26393,-1.36979 13.90664,-1.98313 4.14621,-0.52905 8.31015,-0.8989 12.47991,-1.17115 0.61482,-0.0122 1.2314,-0.10033 1.84708,-0.0806 -0.91691,0.76385 -1.22048,0.82691 -2.12701,0.80486 -0.36466,-0.74166 -0.6139,-1.5513 -0.84622,-2.38489 -0.65827,-2.7546 -0.92723,-5.58742 -1.15082,-8.40697 -0.10236,-1.25859 -0.13932,-2.52115 -0.1448,-3.78355 0.002,-0.97207 0.008,-1.9441 0.008,-2.91615 -0.0741,-0.52001 0.15942,-1.15478 -0.1119,-1.62229 -0.53538,-0.6454 -0.70365,-1.48 -0.85927,-2.28497 -0.0599,-0.3316 -0.10886,-0.66538 -0.13708,-1.00126 0.004,-0.056 -0.29695,0.0305 -0.43651,0.0305 -0.55947,0.008 -1.11906,0.004 -1.67857,0.004 -0.58463,-2.3e-4 -1.16928,-1.9e-4 -1.75391,0.001 0,0 0.7801,-0.79006 0.7801,-0.79006 v 0 c 0.58367,0.002 1.16735,0.002 1.75102,0.001 0.55982,-6e-4 1.11963,0.001 1.67941,-0.008 0.17648,-0.004 0.4745,-0.0587 0.54757,0.0981 0.0213,0.33289 0.0703,0.66282 0.12591,0.99122 0.14865,0.79348 0.30421,1.61923 0.83604,2.25274 0.30209,0.48634 0.095,1.11608 0.14663,1.6726 -0.002,0.97165 -0.004,1.94333 -0.008,2.91501 0.004,1.2613 0.0343,2.52291 0.13444,3.78069 0.21681,2.81341 0.48129,5.64039 1.13913,8.38844 0.14175,0.50088 0.2348,1.017 0.41049,1.50677 0.0806,0.22523 0.43837,0.47718 0.45902,0.71249 0.004,0.039 -0.0686,0.039 -0.10276,0.0591 0.63894,-0.0122 1.01665,-0.28948 0.55476,0.76458 -0.61115,0.004 -1.22123,0.053 -1.83135,0.0829 -4.16408,0.26431 -8.32203,0.63287 -12.46191,1.16295 -4.64709,0.61499 -9.30432,1.16366 -13.91801,2.00184 -0.54275,0.0912 -1.22787,0.25649 -1.75832,0.0512 2.5e-4,-0.12591 4.7e-4,-0.25172 5.1e-4,-0.37759 1.8e-4,-0.34936 -5.9e-4,-0.69831 0,-1.04745 0.002,-1.62756 0.004,-3.25511 0.004,-4.88267 0.004,-3.48646 0.008,-6.97299 0.0343,-10.45933 0.0213,-1.77806 0.0514,-3.55565 0.10418,-5.33288 -0.0463,-0.7027 -0.17952,-2.20556 0.86495,-2.08434 2.39354,-0.0347 4.78521,-0.15536 7.17647,-0.25909 6.32162,-0.32725 12.66347,-0.67722 18.91572,-1.72825 0,0 -0.75631,0.79691 -0.75631,0.79691 z"
       inkscape:connector-curvature="0" />
    <path
       style="fill:#000000;stroke-width:0.53731978"
       id="path112"
       d="m 2.8038758,119.57998 c 1.9403807,2.35974 3.5683044,4.95001 5.2347363,7.50439 1.8753317,2.6248 3.4656979,5.43037 5.0800269,8.21769 0.753822,1.40481 1.51616,2.81755 2.112058,4.29879 0.115045,0.30894 0.234884,0.61844 0.305718,0.94114 0.0011,0.006 0.0016,0.0142 0.0026,0.0203 -0.221564,0.0252 -0.446932,0.12327 -0.664686,0.0753 -0.25478,-0.056 -1.685766,-1.73602 -1.858273,-1.92605 -2.025915,-2.39975 -3.453342,-5.20319 -4.7142507,-8.0589 -0.6748459,-1.79341 -1.4463139,-3.55326 -1.9200462,-5.41381 -0.093966,-0.61475 -0.3366949,-1.29746 -0.05735,-1.89079 0.7201859,-0.67671 1.4836545,-0.74407 2.4198156,-0.60041 1.5338273,0.36973 2.7757723,1.30988 3.9489763,2.31887 1.294226,1.3103 2.476991,2.72533 3.582855,4.19639 0.515923,0.65626 0.950657,1.37669 1.276973,2.14525 -0.07845,0.006 0.152554,0.20467 0.07615,0.22331 -0.877131,0.21407 -0.710249,-0.043 -1.042673,-0.77772 -0.928606,-1.99787 -1.11957,-4.21857 -1.30975,-6.38454 0.01198,-1.39642 -0.347145,-2.84645 -0.129342,-4.23812 0.382782,-0.81773 1.209496,-1.27515 2.056866,-1.47793 1.675625,-0.10966 3.175468,0.71992 4.552458,1.57449 1.895713,1.4324 3.590387,3.12181 5.081836,4.96764 1.142906,1.52561 2.120463,3.16043 2.985956,4.85631 0.128469,0.76681 0.892348,1.25399 1.166327,1.92511 0,0 -0.411114,0.32194 -0.411114,0.32194 v 0 c -0.196542,-0.57717 -1.099312,-1.24178 -1.15778,-1.92454 -0.861494,-1.69417 -1.836939,-3.32631 -2.97676,-4.85001 -1.48625,-1.84264 -3.17798,-3.52767 -5.070811,-4.95432 -1.368532,-0.84508 -2.863737,-1.67306 -4.527913,-1.54102 -0.816946,0.20901 -0.822653,0.053 -1.273508,0.80376 -0.245093,1.38373 0.140573,2.84161 0.114842,4.23254 0.188054,2.15977 0.375634,4.3757 1.304214,6.36687 0.330312,0.72876 0.56085,0.65031 0.221639,1.41688 -0.03085,0.0697 -0.03836,-0.28681 -0.07006,-0.21754 -0.319528,-0.76733 -0.75235,-1.48477 -1.264511,-2.1389 -1.102619,-1.46885 -2.281408,-2.88252 -3.574462,-4.18886 -1.167656,-1.0017 -2.4041719,-1.93774 -3.9328374,-2.29415 -0.4845444,-0.068 -0.9917526,-0.0958 -1.4718372,0.0339 -0.092077,0.0248 -0.1862258,0.14662 -0.2686261,0.0987 -0.063768,-0.0372 0.085843,-0.12022 0.128774,-0.18033 -0.3085661,0.57236 -0.053187,1.2575 0.033102,1.86246 0.4664903,1.86081 1.2355092,3.62015 1.9069535,5.41307 1.255927,2.85192 2.6807812,5.65085 4.7084002,8.04236 0.109867,0.12042 1.844822,1.82068 1.860539,1.91987 0.0301,0.18988 -0.168009,0.77991 -0.150788,0.55689 -0.06115,-0.32156 -0.185698,-0.62752 -0.295591,-0.93464 -0.590117,-1.48163 -1.351101,-2.89335 -2.101114,-4.29806 -1.611352,-2.78825 -3.1994007,-5.59441 -5.0747913,-8.21843 -1.6664178,-2.55263 -3.2929381,-5.14299 -5.2412329,-7.4947 0,0 0.3981372,-0.33039 0.3981372,-0.33039 z"
       inkscape:connector-curvature="0" />
    <path
       style="fill:#000000;stroke-width:0.53731978"
       id="path114"
       d="m 37.583554,114.65391 c -1.644111,-0.13485 -3.207788,-0.002 -4.662075,0.80085 -0.899023,0.49684 -1.228878,1.43853 -1.571704,2.35455 -0.522135,1.48247 -0.422773,3.06044 -0.243631,4.59486 0.282872,1.72136 1.253707,3.1077 2.643242,4.11506 1.358306,0.71521 2.189799,1.14625 3.564638,0.25513 1.160252,-1.77227 1.102447,-3.82776 0.845689,-5.84308 -0.35677,-1.83565 -0.99883,-3.17272 -2.652125,-4.09335 -0.788996,-0.35401 -1.644221,-0.49138 -2.498597,-0.56774 0,0 0.371176,-0.36438 0.371176,-0.36438 v 0 c 0.859271,0.0824 1.719122,0.22469 2.511034,0.5858 1.662689,0.93635 2.31694,2.28081 2.678643,4.13361 0.216302,1.67117 0.440902,4.15435 -0.662403,5.60691 -0.26599,0.3502 -0.625235,0.61857 -0.937855,0.92784 -1.413752,0.87084 -2.229538,0.42595 -3.607257,-0.29954 -1.39701,-1.0189 -2.37936,-2.41488 -2.669222,-4.14867 -0.183972,-1.53881 -0.28665,-3.12352 0.22714,-4.61326 0.50781,-1.36083 0.994456,-2.2644 2.34797,-3.02695 1.465141,-0.78899 3.038828,-0.91493 4.685595,-0.77978 0,0 -0.370258,0.36214 -0.370258,0.36214 z"
       inkscape:connector-curvature="0" />
    <path
       style="fill:#000000;stroke-width:0.53731978"
       id="path116"
       d="m 37.799042,115.91899 c 1.142244,1.96184 2.354685,3.88168 3.516161,5.83181 0.586156,0.96894 1.18032,1.93321 1.793295,2.88548 0.0065,0.0414 0.06121,0.11819 0.0197,0.12429 -0.222015,0.0323 -0.482406,0.0902 -0.672435,-0.0293 -0.363646,-0.22822 -1.015922,-2.79221 -1.118984,-3.21959 -0.390223,-2.01487 -0.609488,-4.06504 -0.288997,-6.10163 0.231816,-1.2023 0.634396,-1.54736 1.649769,-2.10193 1.364712,0.0298 2.463296,0.86846 3.533056,1.61933 1.892967,1.27787 3.381579,2.94657 4.643605,4.82993 0.581196,1.01269 1.157621,2.0258 1.636922,3.09143 0.08284,0.12103 0.0752,0.33985 0.216744,0.40218 0,0 -0.387698,0.35013 -0.387698,0.35013 v 0 c -0.149164,-0.0958 -0.158505,-0.27231 -0.236952,-0.42891 -0.473669,-1.06562 -1.048333,-2.07699 -1.626161,-3.08886 -1.25626,-1.8804 -2.741287,-3.54347 -4.631819,-4.81499 -1.057302,-0.73978 -2.15408,-1.5822 -3.506137,-1.58369 0.01828,-0.0784 0.109724,-0.17647 0.05471,-0.2351 -0.174143,-0.18582 -1.094709,1.5819 -0.923853,1.66392 -0.33325,2.03005 -0.111776,4.07652 0.274959,6.08666 0.193353,0.80422 0.251766,1.15415 0.531651,1.91918 0.09003,0.24612 0.199994,0.48458 0.307932,0.72338 0.08503,0.18805 0.249935,0.35163 0.270734,0.55705 0.0197,0.19435 -0.164272,0.97969 -0.15028,0.56633 -0.609176,-0.95576 -1.20206,-1.92182 -1.7882,-2.89184 -1.158945,-1.95092 -2.370192,-3.87087 -3.518907,-5.82811 0,0 0.401184,-0.3272 0.401186,-0.3272 z"
       inkscape:connector-curvature="0" />
    <path
       style="fill:#000000;stroke-width:0.53731978"
       id="path118"
       d="m 61.654014,111.5792 c -1.674884,0.12327 -3.402791,0.32261 -4.789137,1.32914 -0.731372,1.10562 -0.87677,2.1968 -0.726422,3.49256 0.170162,1.37261 0.841399,2.53344 1.750328,3.54611 0.819274,0.66864 1.616468,1.29161 2.692768,0.89648 0.151823,-0.11962 0.344261,-0.20065 0.455449,-0.35864 0.06294,-0.0894 0.0016,-0.22059 0.02693,-0.32698 0.07861,-0.33119 0.223954,-0.64589 0.283597,-0.98103 0.27019,-1.51824 0.04835,-3.01111 -0.162526,-4.51672 -0.782042,-3.54194 -2.650286,-6.62814 -4.761002,-9.52156 -1.011262,-1.17032 -1.918687,-2.44726 -2.960794,-3.58939 -0.19311,-0.18074 -0.391399,-0.37931 -0.646723,-0.46534 -0.221231,0.0898 0.421851,-0.25031 0.658528,-0.28153 0.302803,-0.04 0.993897,0.80372 1.135916,0.93913 2.185452,2.32368 4.256787,4.75219 6.300912,7.20011 2.594911,3.1088 5.17092,6.23185 7.853854,9.26561 0.694572,0.74254 1.353067,1.51831 1.97311,2.32402 0.235899,0.30657 0.414976,0.65605 0.732494,0.87912 0.03209,0.0122 0.06417,0.024 0.09626,0.0359 0,0 -0.383357,0.35463 -0.383357,0.35463 v 0 c -0.03452,-0.0162 -0.06905,-0.0307 -0.103572,-0.0459 -0.319325,-0.23519 -0.497549,-0.5783 -0.738282,-0.89336 -0.616675,-0.80706 -1.273199,-1.58322 -1.965321,-2.3267 -2.67885,-3.03786 -5.25331,-6.16277 -7.850564,-9.27015 -2.044885,-2.44484 -4.116854,-4.87059 -6.307742,-7.18665 -0.270815,-0.25653 -0.514625,-0.54651 -0.817657,-0.76403 -0.09183,-0.066 -0.259879,-0.0483 -0.302699,-0.15292 -0.05672,-0.1385 0.03852,-0.29699 0.0578,-0.44546 0.0134,0.002 0.02687,0.004 0.04009,0.008 0.25792,0.1056 0.466749,0.29536 0.663736,0.4891 1.039929,1.1467 1.944732,2.42764 2.956344,3.60037 2.112005,2.902 3.983507,5.99524 4.774609,9.54251 0.204852,1.43584 0.645982,4.15598 -0.09332,5.52205 -0.416685,0.76994 -0.691724,0.9136 -1.270541,1.34387 -1.092946,0.35301 -1.910434,-0.25649 -2.733325,-0.94163 -0.914506,-1.02057 -1.595038,-2.18904 -1.769619,-3.57123 -0.204481,-1.68446 0.08168,-3.09208 1.482675,-4.18833 1.403409,-0.98684 3.133838,-1.1877 4.813456,-1.30819 0,0 -0.366247,0.36626 -0.366247,0.36626 z"
       inkscape:connector-curvature="0" />
    <path
       style="fill:#000000;stroke-width:0.53731978"
       id="path120"
       d="m 70.335196,114.55152 c 1.206263,-0.87937 2.315921,-1.90306 3.313965,-3.01278 0.491924,-0.67295 1.051413,-1.40914 0.936997,-2.28157 -0.09321,-0.74561 -0.533535,-1.25604 -1.063598,-1.74329 -0.663468,-0.50575 -1.49994,-0.56063 -2.301726,-0.6225 -0.516355,-0.0353 -1.034117,-0.0337 -1.551346,-0.0286 -0.05487,0.0236 -0.188378,0.0162 -0.164597,0.0709 0.02589,0.0597 0.184987,-0.0644 0.195324,-1.1e-4 0.0011,0.006 -0.50178,1.583 -0.536052,1.73903 -0.316917,1.46382 -0.10936,2.92544 0.250661,4.35696 0.682986,2.02881 1.656095,3.24547 3.371281,4.47362 1.643884,1.00375 3.480959,1.53934 5.360702,1.87863 1.532128,0.16632 3.000488,-0.21844 4.445372,-0.67511 0.79216,-0.30088 1.564154,-0.65881 2.295329,-1.08776 0.0331,-0.0207 0.0662,-0.0414 0.09931,-0.0621 0,0 -0.348244,0.38904 -0.348244,0.38904 v 0 c -0.03331,0.0203 -0.06661,0.0404 -0.09992,0.0607 -0.734403,0.42312 -1.506133,0.78091 -2.300446,1.07639 -1.45053,0.45558 -2.926526,0.83195 -4.462492,0.65677 -1.884861,-0.34552 -3.727541,-0.88676 -5.37506,-1.89633 -1.723532,-1.23649 -2.702935,-2.46371 -3.394842,-4.50094 -0.3652,-1.43603 -0.578661,-2.90366 -0.267219,-4.37432 0.177372,-0.83542 0.397096,-2.12933 1.299303,-2.47451 0.517844,-0.004 1.03625,-0.004 1.553072,0.0335 0.812793,0.0658 1.656617,0.12956 2.325507,0.6476 0.537008,0.49518 0.986671,1.01561 1.086587,1.77069 0.132206,0.88681 -0.414164,1.63185 -0.914841,2.32101 -1.219951,1.36997 -2.632931,2.57209 -4.095991,3.67358 0,0 0.342984,-0.38841 0.342984,-0.38841 z"
       inkscape:connector-curvature="0" />
    <path
       style="fill:#000000;stroke-width:0.53731978"
       id="path122"
       d="m 81.55031,99.997226 c 0.06763,-1.592728 0.479009,-3.166163 1.326346,-4.520777 0.638793,-0.865615 1.439523,-1.61726 2.471339,-1.957807 0.595191,-0.168761 1.058623,-0.06783 1.438325,0.427466 0.666026,1.091624 0.853409,2.443172 1.072169,3.686559 0.319203,2.279122 0.344934,4.584703 0.37763,6.881683 0.02214,2.31399 0.01828,4.62812 0.01625,6.94218 -0.0011,1.01907 -0.0016,2.03813 -0.002,3.05717 -1.62e-4,0.29118 -4e-5,0.58234 4.67e-4,0.8735 0.01015,-0.0142 -0.01218,0.0654 1.63e-4,0.0526 0.310836,-0.32838 0.61223,-0.49655 1.010554,-0.72973 1.933579,-1.09111 3.911167,-2.12084 5.923014,-3.0623 0.909236,-0.37686 1.834699,-0.73272 2.795335,-0.95625 0.207732,-0.0599 0.220994,0.0122 0.246216,0.21518 0,0 -0.419363,0.31051 -0.419363,0.31051 v 0 c -0.01015,-0.20125 -2.44e-4,-0.18968 -0.187038,-0.14845 -0.955661,0.22727 -1.878016,0.57854 -2.782217,0.95794 -2.011339,0.94404 -3.991018,1.97098 -5.921917,3.06839 -0.07717,0.0459 -1.024505,0.71059 -1.087684,0.59934 5.28e-4,-0.29167 0.0011,-0.58333 0.0016,-0.875 0.0016,-1.02016 0.0061,-2.04034 0.0081,-3.0605 0.0041,-2.31451 0.01015,-4.62907 -0.01219,-6.94348 -0.03249,-2.29401 -0.05849,-4.59665 -0.3756,-6.872993 -0.216566,-1.234816 -0.402852,-2.578383 -1.061222,-3.66359 -0.367964,-0.482034 -0.823719,-0.550046 -1.39383,-0.380554 -0.795328,0.274749 -1.187763,0.601872 -1.680601,1.298178 -0.859359,1.339891 -1.272041,2.910706 -1.342287,4.496265 0,0 -0.419039,0.304439 -0.419039,0.304439 z"
       inkscape:connector-curvature="0" />
    <path
       style="fill:#000000;stroke-width:0.53731978"
       id="path124"
       d="m 102.98166,102.42598 c -1.64173,-0.70888 -3.302772,-1.40472 -5.114401,-1.14859 -1.102652,0.33192 -1.521548,0.95938 -1.820992,2.06376 -0.300377,1.58557 0.493021,2.89736 1.351691,4.15462 0.908749,1.33101 2.134955,2.28215 3.629612,2.85123 0.75136,0.2429 1.56133,0.30923 2.24267,-0.17018 0.0333,-0.0234 -0.002,-0.0845 0.0162,-0.12063 0.10865,-0.20871 0.24102,-0.40418 0.36152,-0.60627 0.72202,-2.35869 0.44646,-4.86878 0.0274,-7.25582 -0.44538,-2.495506 -1.66726,-4.662223 -3.09955,-6.710787 -0.930318,-1.392002 -2.059187,-2.633865 -3.247803,-3.80727 -0.203934,-0.178712 -0.385022,-0.391338 -0.610625,-0.544523 0.307668,-0.204929 0.854892,-0.584793 1.003304,-0.04793 0.644783,0.65638 1.158031,1.436822 1.734234,2.156198 2.13479,2.642801 4.15667,5.371444 6.22063,8.069062 2.2802,3.03986 4.64443,6.01838 6.858,9.10766 0.75,0.89553 1.17168,2.07755 2.08807,2.83011 0.2716,0.18988 0.66911,0.0999 -0.28001,0.10255 0,0 0.40537,-0.32493 0.40537,-0.32493 v 0 c -0.18887,0.66777 -0.0628,0.86545 -0.51853,0.56457 -0.91391,-0.76357 -1.3407,-1.94217 -2.088,-2.84761 -2.20789,-3.09286 -4.57096,-6.07186 -6.85175,-9.11069 -2.06505,-2.696155 -4.0887,-5.422849 -6.228793,-8.060756 -0.58258,-0.724391 -1.102611,-1.508489 -1.754462,-2.169215 -0.08672,-0.43035 -0.552097,0.03046 -0.198411,-0.617936 0.22341,0.163278 0.412296,0.36971 0.615439,0.556261 1.186646,1.179578 2.316677,2.424224 3.248597,3.818724 1.43609,2.054839 2.66351,4.226877 3.11173,6.729532 0.42357,2.39661 0.69556,4.90724 -0.001,7.28175 -0.8474,1.46876 -1.79776,2.05485 -3.43334,1.53003 -1.500204,-0.57937 -2.734127,-1.53813 -3.648623,-2.87607 -0.866143,-1.26674 -1.668579,-2.58927 -1.380406,-4.18829 0.327651,-1.29989 1.301671,-2.34897 2.607952,-2.72753 1.819567,-0.23434 3.485347,0.45953 5.134857,1.16855 0,0 -0.38088,0.35028 -0.38088,0.35028 z"
       inkscape:connector-curvature="0" />
    <path
       style="fill:#000000;stroke-width:0.12960109"
       id="path376"
       d="m 209.22846,214.61316 c 0.35369,0.32626 0.70479,0.65821 1.0487,1.00303 0.31807,0.30641 0.62662,0.63 0.94611,0.93375 0.30802,0.29362 0.63238,0.54971 0.95416,0.81384 0.21386,0.16865 0.403,0.38443 0.60569,0.57502 0.20024,0.20536 0.42547,0.36044 0.64379,0.52717 0.24657,0.22066 0.50826,0.4065 0.76729,0.59834 0.23608,0.15803 0.46571,0.33545 0.68514,0.53237 0.21813,0.23003 0.4397,0.4526 0.67043,0.65937 0.18003,0.16584 0.36336,0.32487 0.54279,0.49206 0.13609,0.13811 0.2955,0.2219 0.4326,0.35742 0.14995,0.1493 0.30673,0.2832 0.45849,0.42863 0.0997,0.0896 0.21151,0.1483 0.31533,0.2296 0.0659,0.0516 0.12263,0.12187 0.17827,0.19142 0.0445,0.0586 0.0714,0.0672 -0.0902,0.0841 -0.0232,0.002 -0.0354,-0.0414 -0.0558,-0.0566 -0.12387,-0.0345 -0.18551,-0.13258 -0.25411,-0.27187 -0.15645,-0.36776 -0.31569,-0.73327 -0.4756,-1.09828 -0.12724,-0.35271 -0.25803,-0.70379 -0.37646,-1.06207 -0.0375,-0.14152 -0.0949,-0.27467 -0.18122,-0.37178 -0.0382,-0.0372 -0.069,-0.008 0.0535,-0.0338 -0.003,0.0771 0.0535,0.11594 0.0899,0.17123 0.10573,0.21901 0.18495,0.45708 0.28559,0.6805 0.15036,0.35006 0.30919,0.69355 0.45727,1.04544 0.0814,0.18163 0.17368,0.35197 0.23238,0.54975 0.0262,0.0564 0.0646,0.0906 0.10993,0.11178 0.0187,0.0379 0.0201,0.0838 0.0223,0.12774 0.002,0.1121 -0.13342,0.12082 -0.19741,0.12435 -0.0929,-0.003 -0.18441,-0.01 -0.27583,0.0145 -0.20746,0.0469 -0.41106,0.10805 -0.61493,0.17809 -0.1334,0.0293 -0.25916,0.10122 -0.37174,0.20089 -0.0451,0.0479 -0.0752,0.0975 -0.11952,0.0218 -0.017,-0.0371 -0.0257,-0.0787 -0.0314,-0.1211 0.0448,-0.19261 0.0655,-0.39979 0.0916,-0.60032 0.0524,-0.55415 0.11913,-1.10545 0.17931,-1.65817 0.024,-0.14541 0.0205,-0.29979 0.052,-0.44329 0,0 0.0899,-0.0821 0.0899,-0.0821 v 0 c -0.0406,0.13854 -0.0243,0.30056 -0.0543,0.44223 -0.0607,0.55267 -0.12784,1.10393 -0.17901,1.65836 -0.0257,0.19823 -0.0407,0.40785 -0.0924,0.59561 0.004,0.0403 0.0122,0.0797 0.0277,0.11515 0.0378,0.0659 0.0699,-0.004 0.10833,-0.0372 0.1141,-0.0972 0.2402,-0.16713 0.37384,-0.19703 0.20402,-0.0703 0.40822,-0.12957 0.61569,-0.17771 0.0922,-0.0213 0.18411,-0.0159 0.27745,-0.0134 0.0549,-0.004 0.0928,-0.042 0.033,0.0817 6e-5,-0.005 4.1e-4,-0.0105 2.1e-4,-0.0158 -0.001,-0.0385 -0.003,-0.078 -0.0138,-0.11392 -0.0482,-0.0219 -0.0879,-0.0646 -0.11601,-0.12195 -0.0577,-0.19775 -0.1498,-0.36761 -0.23085,-0.54882 -0.14755,-0.35212 -0.30651,-0.69539 -0.45698,-1.04518 -0.10051,-0.22245 -0.17996,-0.45927 -0.28505,-0.67768 -0.0376,-0.0567 -0.0979,-0.0993 -0.0947,-0.17975 0.0701,-0.14933 0.0472,-0.21478 0.11593,-0.14781 0.0867,0.0996 0.14605,0.23351 0.18369,0.37758 0.11773,0.35815 0.24856,0.70869 0.37531,1.06115 0.15977,0.36479 0.31884,0.73008 0.47575,1.09714 0.0685,0.13889 0.12908,0.22916 0.25126,0.26627 0.10545,0.084 0.052,0.27432 -0.0167,0.16565 -0.055,-0.069 -0.11118,-0.13837 -0.1765,-0.18919 -0.104,-0.0815 -0.21642,-0.1397 -0.31578,-0.23086 -0.15162,-0.14577 -0.30858,-0.27945 -0.45847,-0.42891 -0.13726,-0.13479 -0.29683,-0.21833 -0.43246,-0.35705 -0.17946,-0.16692 -0.36224,-0.32679 -0.54233,-0.49229 -0.23056,-0.20711 -0.45218,-0.42955 -0.67046,-0.65933 -0.21936,-0.19636 -0.44873,-0.37342 -0.68446,-0.53154 -0.25911,-0.19179 -0.52051,-0.37841 -0.76741,-0.59845 -0.21869,-0.16681 -0.4441,-0.32238 -0.64471,-0.52789 -0.20246,-0.1904 -0.39111,-0.40644 -0.60475,-0.57493 -0.32197,-0.26428 -0.64622,-0.52118 -0.95451,-0.81472 -0.31953,-0.30385 -0.6281,-0.62758 -0.94615,-0.93419 -0.34383,-0.34496 -0.69475,-0.67734 -1.04927,-1.00199 0,0 0.0807,-0.096 0.0807,-0.096 z"
       inkscape:connector-curvature="0" />
    <g
       transform="matrix(0.07417417,0,0,0.07599952,162.0557,161.21838)"
       inkscape:label="Layer 1"
       id="layer1-6"
       style="opacity:0.306">
      <path
         d="m 362.02,412.58 a 6.9369,6.9369 0 0 0 -6.6875,5.5312 h -3.3438 a 6.9375,6.9375 0 1 0 0,13.875 h 3.1875 v 11 c -18.062,1.8838 -37.426,10.18 -50.938,20.156 l 117.41,1.2188 c -13.949,-10.276 -34.378,-19.572 -52.594,-21.438 v -10.938 h 3.1875 a 6.9375,6.9375 0 0 0 0,-13.875 h -3.3438 a 6.9369,6.9369 0 0 0 -6.875,-5.5312 z m 172.09,53.344 -33.5,0.90625 c -3.4787,12.58 -6.6005,21.529 -13.156,32.875 -6.2662,10.845 -9.8797,20.551 -21.75,20.406 -4.2418,-0.0517 -8.4626,-0.90767 -12.438,-2.5 l -2.2812,-11.937 c -5.668,-14.228 -14.026,-26.486 -24.25,-36.406 h -128.03 c -5.0294,4.8837 -9.616,10.305 -13.625,16.219 -0.0678,-0.0559 -0.11934,-0.10008 -0.1875,-0.15625 -8.6934,-7.1646 -17.254,-11.457 -25.656,-12.812 -2.1006,-0.33882 -4.1676,-0.49496 -6.2188,-0.4375 -6.1534,0.17239 -11.999,2.0996 -16.875,5.4688 -13.002,8.9843 -19.406,26.434 -20.188,47.437 -1.5867,42.619 27.611,69.8 55.156,70.062 1.9445,0.0185 3.8504,-0.0725 5.7188,-0.25 8.3359,17.776 21.188,32.628 36.906,42.75 h 97.812 c 16.771,-10.799 30.292,-26.969 38.531,-46.344 4.1208,-0.30335 8.7317,-2.3122 14.5,-7.1875 13.69,-11.571 27.995,-34.511 32.656,-45.719 4.6616,-11.208 9.5611,-21.371 13.312,-31.875 3.9149,-10.962 7.353,-18.219 11.188,-28.688 1.6085,-4.3914 8.2172,-9.1834 12.375,-11.812 z M 253.36,486.83 c 1.1124,-0.0137 2.2762,0.0788 3.5312,0.28125 5.0204,0.80979 11.348,3.685 18.594,9.6562 0.75522,0.6224 1.3604,1.1615 2.0625,1.75 -7.1279,14.566 -11.188,31.153 -11.188,48.812 0,11.493 1.724,22.559 4.875,32.906 -17.602,-0.18942 -41.828,-19.028 -40.5,-54.688 0.67558,-18.146 6.7481,-30.941 13.844,-35.844 2.6609,-1.8386 5.4439,-2.834 8.7812,-2.875 z m 57.531,153.19 v 12.125 h 103.59 V 640.02 Z"
         inkscape:connector-curvature="0"
         style="color:#000000;fill:#092c70"
         id="path4596" />
    </g>
    <path
       style="fill:#000000;stroke-width:1.1409725"
       id="path84-3"
       d="m 245.58382,222.58092 c -6.25576,1.02412 -12.59548,1.37389 -18.91653,1.70625 -2.39801,0.10581 -4.79618,0.23219 -7.19642,0.27386 -0.97838,0.21959 0.62259,-1.44371 0.79746,0.63268 -0.0429,1.78198 -0.0841,3.56404 -0.10621,5.34661 -0.0343,3.4863 -0.0386,6.97281 -0.0386,10.45929 -4.3e-4,1.62512 1.8e-4,3.25024 0.004,4.87532 0.001,0.34893 7.3e-4,0.69783 0.001,1.04676 9e-5,0.12551 3.5e-4,0.2513 5.9e-4,0.37672 0.48175,-0.0676 1.10665,-0.0959 1.62725,-0.19313 4.61109,-0.82443 9.26393,-1.36979 13.90664,-1.98313 4.14621,-0.52905 8.31015,-0.8989 12.47991,-1.17115 0.61482,-0.0122 1.2314,-0.10033 1.84708,-0.0806 -0.91691,0.76385 -1.22048,0.82691 -2.12701,0.80486 -0.36466,-0.74166 -0.6139,-1.5513 -0.84622,-2.38489 -0.65827,-2.7546 -0.92723,-5.58742 -1.15082,-8.40698 -0.10236,-1.25859 -0.13932,-2.52115 -0.1448,-3.78355 0.002,-0.97207 0.008,-1.9441 0.008,-2.91615 -0.0741,-0.52001 0.15942,-1.15478 -0.1119,-1.62229 -0.53537,-0.6454 -0.70364,-1.48 -0.85926,-2.28497 -0.0599,-0.3316 -0.10886,-0.66538 -0.13708,-1.00126 0.004,-0.056 -0.29695,0.0305 -0.43651,0.0305 -0.55947,0.008 -1.11906,0.004 -1.67857,0.004 -0.58463,-2.3e-4 -1.16928,-1.9e-4 -1.75391,10e-4 0,0 0.7801,-0.79006 0.7801,-0.79006 v 0 c 0.58367,0.002 1.16735,0.002 1.75102,0.001 0.55982,-6e-4 1.11963,10e-4 1.67941,-0.008 0.17648,-0.004 0.4745,-0.0587 0.54757,0.0981 0.0213,0.33289 0.0703,0.66282 0.12591,0.99122 0.14865,0.79348 0.30421,1.61923 0.83604,2.25274 0.30209,0.48634 0.095,1.11608 0.14663,1.6726 -0.002,0.97165 -0.004,1.94333 -0.008,2.91501 0.004,1.2613 0.0343,2.52291 0.13444,3.78069 0.21681,2.81342 0.48129,5.6404 1.13913,8.38845 0.14175,0.50088 0.2348,1.017 0.41049,1.50677 0.0806,0.22523 0.43837,0.47718 0.45902,0.71249 0.004,0.039 -0.0686,0.039 -0.10276,0.0591 0.63894,-0.0122 1.01665,-0.28948 0.55476,0.76458 -0.61115,0.004 -1.22123,0.053 -1.83135,0.0829 -4.16408,0.26431 -8.32203,0.63287 -12.46191,1.16295 -4.64709,0.61499 -9.30432,1.16366 -13.91801,2.00184 -0.54275,0.0912 -1.22787,0.25649 -1.75832,0.0512 2.5e-4,-0.12591 4.7e-4,-0.25172 5.1e-4,-0.37759 1.8e-4,-0.34936 -5.9e-4,-0.69831 0,-1.04745 0.002,-1.62756 0.004,-3.25511 0.004,-4.88267 0.004,-3.48646 0.008,-6.97299 0.0343,-10.45934 0.0213,-1.77806 0.0514,-3.55565 0.10418,-5.33288 -0.0463,-0.7027 -0.17952,-2.20556 0.86495,-2.08434 2.39354,-0.0347 4.78521,-0.15536 7.17647,-0.25909 6.32162,-0.32725 12.66347,-0.67722 18.91572,-1.72825 0,0 -0.75631,0.79691 -0.75631,0.79691 z"
       inkscape:connector-curvature="0" />
    <g
       transform="matrix(0.07417417,0,0,0.07599952,205.52119,193.55578)"
       inkscape:label="Layer 1"
       id="layer1-6-6">
      <path
         d="m 362.02,412.58 a 6.9369,6.9369 0 0 0 -6.6875,5.5312 h -3.3438 a 6.9375,6.9375 0 1 0 0,13.875 h 3.1875 v 11 c -18.062,1.8838 -37.426,10.18 -50.938,20.156 l 117.41,1.2188 c -13.949,-10.276 -34.378,-19.572 -52.594,-21.438 v -10.938 h 3.1875 a 6.9375,6.9375 0 0 0 0,-13.875 h -3.3438 a 6.9369,6.9369 0 0 0 -6.875,-5.5312 z m 172.09,53.344 -33.5,0.90625 c -3.4787,12.58 -6.6005,21.529 -13.156,32.875 -6.2662,10.845 -9.8797,20.551 -21.75,20.406 -4.2418,-0.0517 -8.4626,-0.90767 -12.438,-2.5 l -2.2812,-11.937 c -5.668,-14.228 -14.026,-26.486 -24.25,-36.406 h -128.03 c -5.0294,4.8837 -9.616,10.305 -13.625,16.219 -0.0678,-0.0559 -0.11934,-0.10008 -0.1875,-0.15625 -8.6934,-7.1646 -17.254,-11.457 -25.656,-12.812 -2.1006,-0.33882 -4.1676,-0.49496 -6.2188,-0.4375 -6.1534,0.17239 -11.999,2.0996 -16.875,5.4688 -13.002,8.9843 -19.406,26.434 -20.188,47.437 -1.5867,42.619 27.611,69.8 55.156,70.062 1.9445,0.0185 3.8504,-0.0725 5.7188,-0.25 8.3359,17.776 21.188,32.628 36.906,42.75 h 97.812 c 16.771,-10.799 30.292,-26.969 38.531,-46.344 4.1208,-0.30335 8.7317,-2.3122 14.5,-7.1875 13.69,-11.571 27.995,-34.511 32.656,-45.719 4.6616,-11.208 9.5611,-21.371 13.312,-31.875 3.9149,-10.962 7.353,-18.219 11.188,-28.688 1.6085,-4.3914 8.2172,-9.1834 12.375,-11.812 z M 253.36,486.83 c 1.1124,-0.0137 2.2762,0.0788 3.5312,0.28125 5.0204,0.80979 11.348,3.685 18.594,9.6562 0.75522,0.6224 1.3604,1.1615 2.0625,1.75 -7.1279,14.566 -11.188,31.153 -11.188,48.812 0,11.493 1.724,22.559 4.875,32.906 -17.602,-0.18942 -41.828,-19.028 -40.5,-54.688 0.67558,-18.146 6.7481,-30.941 13.844,-35.844 2.6609,-1.8386 5.4439,-2.834 8.7812,-2.875 z m 57.531,153.19 v 12.125 h 103.59 V 640.02 Z"
         inkscape:connector-curvature="0"
         style="color:#000000;fill:#092c70"
         id="path4596-7" />
    </g>
    <path
       style="fill:#000000;stroke-width:0.26458332"
       id="path74"
       d="m 194.76077,166.86838 c -0.27865,0.93678 -0.43829,1.9003 -0.59434,2.86308 -0.0999,0.82472 -0.25569,1.64034 -0.38315,2.46071 -0.10948,0.76572 -0.12352,1.54024 -0.13581,2.3123 -0.008,0.73053 -0.006,1.46112 -0.004,2.19167 -0.0306,0.49639 0.064,0.96199 0.28014,1.40634 0.15689,0.31882 0.41205,0.51393 0.73246,0.64656 0.53352,0.17518 1.0936,0.26087 1.64581,0.35709 0.57337,0.0854 1.1535,0.16184 1.73417,0.14157 0.19673,-0.042 0.12279,0.002 0.23807,-0.0994 0,0 -0.34334,0.3879 -0.34334,0.3879 v 0 c -0.13799,0.0754 -0.0548,0.0424 -0.2573,0.076 -0.58283,0.0119 -1.16429,-0.0619 -1.73939,-0.15087 -0.55618,-0.0975 -1.1212,-0.18147 -1.6575,-0.36215 -0.32863,-0.14239 -0.59241,-0.34691 -0.75531,-0.67555 -0.22102,-0.45012 -0.32494,-0.92202 -0.29208,-1.42649 -5.3e-4,-0.73126 -0.002,-1.46255 0.005,-2.19378 0.0117,-0.77364 0.0239,-1.5498 0.13089,-2.31742 0.12602,-0.8218 0.28765,-1.63771 0.38686,-2.4638 0.15642,-0.96241 0.31476,-1.92499 0.58195,-2.8645 0,0 0.42644,-0.28934 0.42644,-0.28934 z"
       inkscape:connector-curvature="0" />
    <path
       style="fill:#000000;stroke-width:0.26458332"
       id="path76"
       d="m 194.82987,172.73554 c -1.01779,-0.006 -2.03518,0.021 -3.05073,-0.0563 -0.39015,-0.0305 -0.7693,-0.12462 -1.14778,-0.21761 0,0 0.37047,-0.35301 0.37047,-0.35301 v 0 c 0.37536,0.0926 0.75156,0.1853 1.13869,0.21464 1.01618,0.0759 2.0344,0.0504 3.05274,0.0489 0,0 -0.36339,0.36339 -0.36339,0.36339 z"
       inkscape:connector-curvature="0" />
    <path
       style="fill:#000000;stroke-width:0.26458332"
       id="path78"
       d="m 198.69293,176.63004 c -0.14919,0.10544 -0.33992,0.23342 -0.47426,0.35697 -0.0533,0.049 0.17652,-0.20303 0.17378,-0.13062 -0.003,0.0857 -0.12027,0.1225 -0.17594,0.18775 -0.1272,0.1491 -0.139,0.18302 -0.23543,0.34408 -0.14262,0.30639 -0.0681,0.49753 0.0598,0.78138 0.10114,0.22136 0.30188,0.36836 0.47312,0.53408 0.22447,0.19497 0.38704,0.44604 0.61609,0.63503 0.20668,0.13622 0.4543,0.19578 0.69984,0.17288 0.2444,0.009 0.90535,-0.58189 0.27677,-0.0618 0.27182,-0.26222 0.33872,-0.61588 0.38604,-0.97471 0.0104,-0.31171 0.0641,-0.61797 0.10717,-0.9261 0.0469,-0.27213 0.0522,-0.52235 -0.057,-0.77793 -0.0943,-0.26374 -0.29896,-0.41315 -0.52449,-0.55781 -0.22024,-0.10851 -0.43845,-0.22481 -0.67555,-0.29237 -0.0916,-0.007 -0.22805,-0.0882 -0.31926,-0.0362 -0.0239,0.0137 -0.0829,0.0724 -0.0602,0.0568 0.11164,-0.0765 0.21833,-0.15996 0.3275,-0.23994 -0.15355,0.24901 -0.20848,0.53695 -0.37906,0.77604 -0.23868,0.22582 -0.0574,0.0589 -0.57044,0.4702 0,0 0.34398,-0.38707 0.34398,-0.38707 v 0 c -0.3364,0.29542 -0.41213,0.3532 -0.2108,0.19293 0.18755,-0.22983 0.23616,-0.51782 0.38045,-0.77289 0.43362,-0.41007 0.39292,-0.54544 0.86411,-0.41519 0.23953,0.0733 0.4628,0.1899 0.68509,0.30356 0.23299,0.15013 0.44433,0.31033 0.54388,0.58116 0.11747,0.26313 0.12419,0.51762 0.0741,0.80062 -0.0419,0.30847 -0.10194,0.6141 -0.10852,0.92636 -0.0443,0.36444 -0.10309,0.72785 -0.36468,1.00612 -0.31661,0.26645 -0.64405,0.64219 -1.08289,0.69639 -0.25801,0.008 -0.51229,-0.0521 -0.72602,-0.20182 -0.22825,-0.19185 -0.39367,-0.44159 -0.61876,-0.63774 -0.17636,-0.16982 -0.38095,-0.32204 -0.48578,-0.54909 -0.13248,-0.29415 -0.2216,-0.49915 -0.0868,-0.82238 0.34414,-0.60912 0.92404,-1.02576 1.48721,-1.42305 0,0 -0.34306,0.38432 -0.34306,0.38432 z"
       inkscape:connector-curvature="0" />
    <path
       style="fill:#000000;stroke-width:0.26458332"
       id="path80"
       d="m 248.64214,203.63792 c -0.97646,0.18667 -1.97173,0.25791 -2.96432,0.27736 -0.82395,0.007 -1.63081,-0.15157 -2.40916,-0.41117 -0.35229,-0.11901 -0.70237,-0.24754 -1.05972,-0.35078 0,0 0.37572,-0.35483 0.37572,-0.35483 v 0 c 0.35632,0.10646 0.70659,0.23345 1.05797,0.35494 0.7731,0.25696 1.57393,0.41326 2.39217,0.40338 0.99255,-0.0217 1.9887,-0.0927 2.96317,-0.29125 0,0 -0.35583,0.37235 -0.35583,0.37235 z"
       inkscape:connector-curvature="0" />
    <path
       style="fill:#000000;stroke-width:0.26458332"
       id="path82"
       d="m 245.8034,201.10243 c -0.20832,0.70113 -0.40934,1.4037 -0.56224,2.1193 -0.0999,0.50065 -0.15221,1.00866 -0.17355,1.51823 0.0102,0.31061 -0.042,0.61621 -0.0809,0.92305 -0.0342,0.27239 -0.0437,0.54683 -0.049,0.82103 -0.004,0.29607 -0.003,0.59218 -0.003,0.88827 -0.0323,0.3823 0.0592,0.73775 0.18433,1.09493 0.18384,0.44097 0.45906,0.82838 0.79245,1.16713 0.2521,0.26033 0.57173,0.30483 0.90973,0.36515 0.43316,0.0736 0.87254,0.0972 1.31094,0.11373 0,0 -0.36584,0.36294 -0.36584,0.36294 v 0 c -0.44011,-0.0185 -0.88109,-0.0441 -1.31588,-0.11865 -0.3485,-0.0611 -0.67349,-0.12156 -0.93105,-0.38894 -0.33741,-0.34506 -0.61582,-0.73904 -0.8059,-1.18509 -0.12897,-0.36053 -0.22939,-0.72002 -0.19687,-1.10738 -2.2e-4,-0.29631 -7.9e-4,-0.59262 0.002,-0.88892 0.005,-0.27572 0.013,-0.55175 0.0462,-0.82579 0.0381,-0.30601 0.0951,-0.61022 0.084,-0.91998 0.021,-0.51291 0.0738,-1.02412 0.17283,-1.5283 0.15112,-0.71512 0.35038,-1.41736 0.55724,-2.11805 0,0 0.4243,-0.29266 0.4243,-0.29266 z"
       inkscape:connector-curvature="0" />
    <path
       style="fill:#000000;stroke-width:0.26458332"
       id="path85"
       d="m 249.04502,207.92919 c 0.29201,-0.48478 0.56086,-0.98383 0.81687,-1.48851 0.12603,-0.2367 0.49831,-1.11993 0.8647,-0.89511 0.0935,0.23491 -0.0754,0.47789 -0.17514,0.6852 -0.21845,0.40897 -0.39012,0.8375 -0.5141,1.2838 -0.11615,0.4102 -0.2088,0.82621 -0.31576,1.23891 -0.0712,0.21847 -0.0659,0.45066 -0.10961,0.67348 -0.0486,0.20035 -0.10816,0.39737 -0.16173,0.59638 -0.068,0.24237 -0.06,0.49576 -0.0979,0.74233 -0.0643,0.30964 -0.31788,0.39021 -0.58188,0.59282 0,0 0.34976,-0.38267 0.34976,-0.38267 v 0 c -0.62024,0.55867 -0.23785,0.29349 -0.19175,0.0868 0.048,-0.24593 0.0281,-0.50211 0.0955,-0.74595 0.0509,-0.19936 0.11323,-0.39485 0.16179,-0.59471 0.0598,-0.21928 0.033,-0.45814 0.11048,-0.67575 0.10877,-0.41311 0.20225,-0.82958 0.31761,-1.24082 0.11969,-0.44862 0.28745,-0.88025 0.5067,-1.2902 0.0941,-0.1948 0.2296,-0.39691 0.22202,-0.62025 -0.17416,-0.0573 -0.0698,-0.011 0.28223,-0.31568 0.029,-0.0251 -0.0506,0.0581 -0.0721,0.0899 -0.10414,0.15393 -0.16522,0.33024 -0.26094,0.48897 -0.25469,0.50602 -0.52724,1.0036 -0.81349,1.49238 0,0 -0.43326,0.27871 -0.43326,0.27871 z"
       inkscape:connector-curvature="0" />
    <path
       style="fill:#000000;stroke-width:0.26458332"
       id="path87"
       d="m 248.21853,210.88592 c 0.49417,-0.0423 0.98891,-0.0771 1.4844,-0.0991 0.26954,-0.013 0.5394,-0.0149 0.80919,-0.0155 0,0 -0.36575,0.36595 -0.36575,0.36595 v 0 c -0.26877,7.9e-4 -0.53757,0.003 -0.80612,0.0155 -0.49515,0.0219 -0.98966,0.0556 -1.48325,0.1008 0,0 0.36153,-0.3676 0.36153,-0.3676 z"
       inkscape:connector-curvature="0" />
  </g>
</svg>
