<?xml version="1.0" encoding="UTF-8" standalone="no"?>
<!-- Created with Inkscape (http://www.inkscape.org/) -->

<svg
   xmlns:dc="http://purl.org/dc/elements/1.1/"
   xmlns:cc="http://creativecommons.org/ns#"
   xmlns:rdf="http://www.w3.org/1999/02/22-rdf-syntax-ns#"
   xmlns:svg="http://www.w3.org/2000/svg"
   xmlns="http://www.w3.org/2000/svg"
   xmlns:sodipodi="http://sodipodi.sourceforge.net/DTD/sodipodi-0.dtd"
   xmlns:inkscape="http://www.inkscape.org/namespaces/inkscape"
   width="297mm"
   height="210mm"
   viewBox="0 0 297 210"
   version="1.1"
   id="svg8"
   inkscape:version="0.92.4 (unknown)"
   sodipodi:docname="objet2d.svg">
  <defs
     id="defs2" />
  <sodipodi:namedview
     id="base"
     pagecolor="#ffffff"
     bordercolor="#666666"
     borderopacity="1.0"
     inkscape:pageopacity="0.0"
     inkscape:pageshadow="2"
     inkscape:zoom="4.725188"
     inkscape:cx="770.66949"
     inkscape:cy="344.92826"
     inkscape:document-units="mm"
     inkscape:current-layer="layer1"
     showgrid="false"
     showguides="true"
     inkscape:window-width="2554"
     inkscape:window-height="1434"
     inkscape:window-x="0"
     inkscape:window-y="0"
     inkscape:window-maximized="0"
     inkscape:snap-global="false" />
  <metadata
     id="metadata5">
    <rdf:RDF>
      <cc:Work
         rdf:about="">
        <dc:format>image/svg+xml</dc:format>
        <dc:type
           rdf:resource="http://purl.org/dc/dcmitype/StillImage" />
        <dc:title />
      </cc:Work>
    </rdf:RDF>
  </metadata>
  <g
     inkscape:label="Calque 1"
     inkscape:groupmode="layer"
     id="layer1"
     transform="translate(0,-87)">
    <path
       style="fill:#000000;stroke-width:0.53731978"
       id="path30"
       d="m 288.67226,138.78679 c -2.64333,-0.0372 -5.28077,-0.002 -7.91992,0.14704 -3.77201,0.26873 -7.54683,0.29635 -11.32451,0.18785 -4.60652,-0.14602 -9.21267,-0.23588 -13.81651,-0.45283 -4.58708,-0.2383 -9.17935,-0.32896 -13.77171,-0.38007 -5.10973,-0.0122 -10.2164,-0.0221 -15.32374,-0.18602 -5.47672,-0.20368 -10.95647,-0.28759 -16.4364,-0.33643 -5.42262,-0.0122 -10.8465,-0.0991 -16.26813,0.0264 -5.62476,0.20436 -11.2513,0.33238 -16.8792,0.40407 -5.45393,-0.0761 -10.90523,-0.26707 -16.35888,-0.3652 -5.24633,-0.0827 -10.49342,-0.0918 -15.74028,-0.0989 -4.95854,-0.004 -9.9171,-0.001 -14.87564,1.8e-4 -4.47679,0.0885 -8.94754,-0.15068 -13.41946,-0.31349 -3.90623,-0.14074 -7.81496,-0.17811 -11.72333,-0.19963 -3.64904,-0.0981 -7.291494,0.1257 -10.933862,0.30734 -2.699197,0.0599 -5.387874,0.22577 -8.078176,0.44233 -2.164382,0.17892 -4.336927,0.1578 -6.492597,0.43019 -0.878266,0.12571 -1.755457,0.25763 -2.63681,0.36041 -0.117787,0.0122 -0.236103,0.029 -0.354276,0.0327 0.687716,-0.26975 0.885476,-0.10011 0.947315,0.54426 0.02437,1.45758 0.0061,2.91581 0.0016,4.37357 0.09748,2.70801 0.408905,5.39926 0.653658,8.09594 0.292113,2.99269 0.274242,6.00159 0.428299,9.00137 0.156982,3.33021 0.416175,6.65242 0.658208,9.97704 0.34995,3.43895 0.598075,6.88619 0.903915,10.32903 0.421537,3.54024 0.963947,7.06492 1.410828,10.60265 0.353382,3.5075 0.698499,7.01689 0.930012,10.53499 0.303546,3.37266 0.514141,6.75148 0.813524,10.12434 0.23265,3.06993 0.376716,6.14249 0.739359,9.20108 0.373487,3.04817 0.689482,6.10367 1.081815,9.14943 0.358804,2.63303 0.542715,5.28341 0.831476,7.92404 0.298672,2.34703 0.29459,4.71545 0.469748,7.07085 0.189475,2.09462 0.323671,4.19091 0.581768,6.27832 0.24847,1.92229 0.342679,3.85883 0.400212,5.79471 0.03879,1.8203 0.284944,3.62858 0.412906,5.44445 0.102962,1.64878 0.127535,3.30079 0.140735,4.95225 0.0061,1.19623 0.0041,2.3925 0.0041,3.58875 0.02031,1.05911 0.02356,2.10394 -0.148453,3.15026 -0.165105,0.86092 -0.281755,1.72784 -0.341441,2.60217 0.0266,0.13078 -0.165917,1.02383 0.08001,0.89703 0.261711,-0.16003 0.573563,-0.21911 0.87319,-0.26312 0.798516,-0.0625 1.599713,-0.0638 2.395834,0.0183 1.803485,0.30643 3.632071,0.15617 5.44829,0.0867 2.553445,0.0404 5.100713,0.20452 7.642463,0.44271 3.1513,0.30995 6.31844,0.37473 9.48226,0.42532 3.75244,0.0439 7.5052,0.039 11.25783,0.0386 4.23047,-0.0784 8.45511,0.16328 12.68116,0.31251 4.5289,0.12733 9.05729,0.15698 13.58414,0.34958 4.33451,0.21007 8.67306,0.29922 13.01194,0.3491 4.06603,0.0363 8.13227,0.0343 12.19843,0.0345 3.93229,0.12875 7.86157,0.32225 11.79481,0.42505 3.7719,0.006 7.53534,0.25627 11.3025,0.41205 3.88467,0.13526 7.7609,0.42698 11.64524,0.57939 3.49648,0.15719 6.99872,0.0648 10.49463,0.2131 2.6824,0.16612 5.36496,0.31991 8.05139,0.4006 2.22735,-0.0226 4.44133,0.22064 6.66022,0.37582 2.28501,0.1519 4.55794,0.43019 6.84419,0.57773 2.10211,0.27158 4.21924,0.40236 6.32394,0.6433 2.36522,0.29893 4.74558,0.42423 7.11825,0.64892 2.46697,0.17079 4.91942,0.48634 7.38117,0.71432 1.5156,0.12916 3.03567,0.19557 4.55608,0.23103 0.33591,0.0102 0.67189,0.006 1.00785,0.004 0.3254,0.002 0.59911,0.24715 0.89141,0.38421 0.63479,0.0896 -0.38025,0.3153 0.0203,0.004 0.19557,-0.15231 0.41153,-0.27621 0.61729,-0.41431 0.5165,-0.043 1.02077,0.25983 1.53345,0.3704 1.06157,0.14907 2.1366,0.15922 3.20666,0.17405 1.19779,-0.0617 2.37229,0.0749 3.55443,0.24507 1.10826,0.16145 2.2273,0.22504 3.34554,0.26409 0.67391,0.0221 1.3483,0.0203 2.02249,0.0203 0.3771,-5.5e-4 0.75421,-0.002 1.13131,-0.004 0.18541,0.004 0.33778,-0.0532 -0.30852,0.0881 -0.3321,-0.71975 -0.37725,-1.49552 -0.43283,-2.27842 -0.1249,-1.95689 -0.0894,-3.91011 0.0559,-5.86363 0.12428,-2.38875 0.35346,-4.76616 0.57831,-7.14676 0.23456,-2.51807 0.27831,-5.0478 0.30992,-7.57482 0.24305,-2.93309 0.28869,-5.86124 0.21021,-8.80129 -0.067,-2.9339 -0.38183,-5.8561 -0.70247,-8.77115 -0.32124,-2.85069 -0.44002,-5.71697 -0.50714,-8.58306 -0.0459,-2.64172 -0.0408,-5.28395 -0.0398,-7.92596 0.002,-2.3632 0.004,-4.72642 0.004,-7.08964 0.001,-2.23739 5.5e-4,-4.4748 0.001,-6.71219 4.3e-4,-2.36766 2.5e-4,-4.73533 2e-5,-7.10297 -0.0721,-2.11934 0.0435,-4.22469 0.23489,-6.33357 0.21001,-1.97379 0.18033,-3.96145 0.332,-5.93812 0.24428,-1.87985 0.28297,-3.77817 0.48416,-5.66096 0.23609,-1.62124 0.37979,-3.25164 0.46142,-4.88724 0.11779,-1.50042 0.44449,-2.96539 0.72283,-4.44003 0.26892,-1.47242 0.32514,-2.97043 0.36486,-4.46306 -0.0546,-1.43891 0.1712,-2.85851 0.33269,-4.28311 0.1255,-1.44566 0.15637,-2.88938 0.34554,-4.3288 0.19963,-1.32572 0.30038,-2.6611 0.35068,-3.99978 0.0313,-1.02651 0.0347,-2.0536 0.0345,-3.0805 -0.0122,-0.8122 0.24502,-1.59762 0.37363,-2.3949 0.10987,-0.69025 0.13038,-1.39001 0.14399,-2.08751 0.006,-0.46652 0.004,-0.93314 0.004,-1.3997 -0.002,-0.25477 -0.002,-0.50953 -0.002,-0.76432 -4.3e-4,-0.1976 -2.4e-4,-0.3953 0,-0.59294 2.6e-4,-0.4285 2.4e-4,-0.857 4.3e-4,-1.2855 5.4e-4,-0.66337 1.8e-4,-1.32675 2.4e-4,-1.99012 4e-5,-0.62813 10e-5,-1.25624 -1.8e-4,-1.88435 -4.7e-4,-0.34337 -2.5e-4,-0.68676 -5.3e-4,-1.03015 3.8e-4,-0.34788 1e-4,-0.69574 3e-4,-1.04362 4e-5,-0.40963 1.1e-4,-0.81927 0,-1.22891 3.9e-4,-0.45254 -8e-5,-0.90507 1.1e-4,-1.35762 -5e-5,-0.42066 2e-5,-0.84134 -1.1e-4,-1.26201 1.7e-4,-0.37529 -4e-5,-0.75058 -1.2e-4,-1.12588 -0.0102,-0.32302 0.19293,-0.60691 0.36996,-0.86299 0.11941,-0.1515 0.13342,-0.35542 0.15068,-0.5413 0.0122,-0.20084 0.006,-0.40232 0.004,-0.60333 -0.001,-0.30694 -0.002,-0.61388 -0.002,-0.92081 0.0307,-0.12957 -0.0219,-0.14216 -0.038,-0.15861 -0.0321,-0.0252 -0.0642,-0.0504 -0.0961,-0.0753 0,0 0.39221,-0.34478 0.39221,-0.34478 v 0 c 0.0256,0.0183 0.0512,0.036 0.0768,0.0538 0.1249,0.0498 0.0869,0.0871 0.0877,0.21787 4e-5,0.30702 4.6e-4,0.61405 0.002,0.92109 5.5e-4,0.20207 0.006,0.40462 -0.002,0.60661 -0.0142,0.18846 -0.0223,0.40878 -0.13566,0.56434 -0.17587,0.24581 -0.39055,0.52529 -0.3884,0.83682 -6e-5,0.37535 -2.6e-4,0.75071 -1.2e-4,1.12607 -1e-4,0.4207 -4e-5,0.84142 -8e-5,1.26213 1.6e-4,0.4525 -3e-4,0.90499 8e-5,1.35749 -1e-4,0.40964 -2e-5,0.81928 0,1.22891 2.1e-4,0.34772 -6e-5,0.69543 3.3e-4,1.04315 -3.7e-4,0.34367 -1.7e-4,0.68737 -5.5e-4,1.03104 -2.9e-4,0.6282 -2.2e-4,1.25641 -1.8e-4,1.8846 6e-5,0.66327 -3.9e-4,1.32653 2.4e-4,1.98979 1.8e-4,0.4283 1.2e-4,0.8566 3.9e-4,1.2849 2.4e-4,0.1976 2.8e-4,0.39505 3.6e-4,0.59259 10e-5,0.25493 5.3e-4,0.50984 0.002,0.76477 10e-4,0.46708 0.004,0.93421 -0.004,1.40128 -0.0142,0.69947 -0.0319,1.40144 -0.14073,2.09391 -0.1253,0.79604 -0.38466,1.57864 -0.37822,2.3881 -2.8e-4,1.02794 -0.006,2.05599 -0.0355,3.08357 -0.0494,1.34011 -0.14784,2.67708 -0.34847,4.00415 -0.19028,1.43916 -0.22485,2.88181 -0.34572,4.32777 -0.16105,1.42354 -0.39132,2.84178 -0.33555,4.27966 -0.0394,1.49472 -0.0934,2.99503 -0.36027,4.46991 -0.27589,1.47341 -0.60711,2.93556 -0.72687,4.43428 -0.0814,1.63667 -0.22246,3.26856 -0.461,4.89061 -0.20501,1.8822 -0.23823,3.78091 -0.48589,5.66029 -0.15495,1.97651 -0.12103,3.96447 -0.33118,5.93836 -0.19212,2.10801 -0.31281,4.21208 -0.23895,6.33074 -2.2e-4,2.36765 -3.4e-4,4.7353 4e-5,7.10294 3.5e-4,2.23741 -2.2e-4,4.4748 -10e-4,6.71221 -0.001,2.3635 -0.004,4.72703 -0.006,7.09053 -0.002,2.64179 -0.006,5.28377 0.0388,7.92528 0.0656,2.86511 0.18277,5.73055 0.50338,8.58033 0.32117,2.91615 0.63772,5.83933 0.7052,8.77438 0.0794,2.94036 0.0374,5.86902 -0.20832,8.80239 -0.0303,2.52781 -0.0725,5.05837 -0.30619,7.57729 -0.22434,2.38024 -0.45616,4.75698 -0.57825,7.14548 -0.14622,1.95077 -0.18298,3.9009 -0.0569,5.85513 0.0554,0.78296 0.095,1.56017 0.43666,2.27687 -0.38754,0.5985 -0.15718,0.59023 -0.48067,0.58981 -0.37654,5.5e-4 -0.75307,0.002 -1.12962,0.002 -0.6744,5.5e-4 -1.34901,0.002 -2.0231,-0.0215 -1.11922,-0.0412 -2.2392,-0.10662 -3.34837,-0.26906 -1.18063,-0.16978 -2.3542,-0.29867 -3.55011,-0.24 -1.07302,-0.0163 -2.1514,-0.026 -3.21534,-0.18014 -0.50072,-0.11108 -1.00562,-0.41814 -1.51268,-0.34836 0.1911,-0.26334 0.25465,-0.33917 0.0705,-0.11677 -0.38955,0.47013 -0.32755,0.69543 -0.73775,0.49793 -0.2859,-0.13586 -0.55232,-0.37405 -0.87516,-0.3675 -0.33584,0.002 -0.67167,0.004 -1.00741,-0.006 -1.51964,-0.04 -3.03895,-0.10783 -4.55378,-0.23823 -2.4611,-0.2303 -4.91343,-0.54357 -7.37988,-0.71572 -2.37349,-0.22431 -4.75488,-0.3476 -7.12082,-0.64773 -2.10427,-0.23755 -4.21977,-0.37499 -6.32151,-0.64223 -2.28614,-0.14885 -4.55926,-0.42697 -6.84443,-0.57786 -2.21826,-0.15577 -4.43187,-0.39536 -6.65862,-0.37455 -2.68559,-0.0823 -5.36718,-0.23866 -8.04881,-0.40399 -3.49535,-0.14703 -6.99695,-0.0569 -10.49279,-0.21474 -3.88408,-0.15373 -7.76015,-0.44576 -11.64467,-0.58008 -3.76719,-0.15576 -7.53079,-0.40448 -11.30269,-0.41077 -3.93253,-0.10398 -7.86106,-0.29951 -11.79278,-0.42525 -4.06609,2e-5 -8.13227,0.002 -12.19825,-0.0355 -4.33888,-0.0506 -8.67745,-0.14074 -13.01198,-0.35125 -4.52689,-0.19252 -9.05542,-0.22029 -13.58434,-0.34888 -4.22621,-0.14926 -8.45112,-0.38892 -12.68175,-0.30939 -3.75315,4.5e-4 -7.50646,0.006 -11.25943,-0.0382 -3.16565,-0.0504 -6.33464,-0.11494 -9.48776,-0.4254 -2.54064,-0.23717 -5.087135,-0.40067 -7.639484,-0.43617 -1.819163,0.0701 -3.649841,0.21628 -5.456515,-0.0885 -0.794029,-0.077 -1.594048,-0.0778 -2.389437,-0.006 -0.302327,0.0479 -0.596755,0.12449 -0.869818,0.26752 -0.369568,0.0298 -0.102962,-0.75591 -0.142766,-0.97311 0.05788,-0.87607 0.173228,-1.74479 0.339694,-2.60714 0.175056,-1.04414 0.175462,-2.08572 0.15353,-3.14343 0.0016,-1.19648 0.0041,-2.39295 -0.0016,-3.58943 -0.01219,-1.65089 -0.03554,-3.30237 -0.137486,-4.95064 -0.127129,-1.81654 -0.373833,-3.62529 -0.414347,-5.44601 -0.05585,-1.93476 -0.148453,-3.87023 -0.396517,-5.79142 -0.258807,-2.08843 -0.392983,-4.18553 -0.58191,-6.28133 -0.17729,-2.35483 -0.170385,-4.72301 -0.468306,-7.06972 -0.289046,-2.64083 -0.470925,-5.29147 -0.828775,-7.92484 -0.392679,-3.04584 -0.708064,-6.10157 -1.08214,-9.1498 -0.364633,-3.05912 -0.507927,-6.13231 -0.739278,-9.20305 -0.299159,-3.37332 -0.509064,-6.75264 -0.813666,-10.12566 -0.23001,-3.51753 -0.575635,-7.02613 -0.927412,-10.53313 -0.4468,-3.53816 -0.98854,-7.06333 -1.412554,-10.60369 -0.305821,-3.44303 -0.553519,-6.8905 -0.904667,-10.3295 -0.241525,-3.32479 -0.502586,-6.64696 -0.659629,-9.97731 -0.156779,-2.99897 -0.136674,-6.00723 -0.42771,-8.99934 -0.244835,-2.69726 -0.557479,-5.38878 -0.660137,-8.09712 0.0041,-1.45508 0.01828,-2.91056 -0.0041,-4.36548 -0.05463,-0.72945 -0.52657,-0.40614 -0.1582,-1.22373 0.115959,-0.0122 0.232447,-0.0223 0.348305,-0.0359 0.879871,-0.10154 1.755436,-0.23365 2.632485,-0.35663 2.15573,-0.2661 4.32791,-0.24516 6.49156,-0.42589 2.689856,-0.21597 5.378289,-0.37807 8.076917,-0.43884 3.642429,-0.17952 7.284963,-0.40039 10.933953,-0.30346 3.90816,0.0217 7.81667,0.0605 11.72265,0.20247 4.47092,0.16328 8.94071,0.40156 13.41654,0.31382 4.95805,-0.001 9.91613,-0.002 14.8742,0.001 5.24698,0.008 10.49417,0.0163 15.7406,0.0997 5.45286,0.0987 10.90335,0.29094 16.35653,0.36541 5.62808,-0.0719 11.25478,-0.20126 16.87975,-0.40535 5.42193,-0.12388 10.84607,-0.0374 16.269,-0.0252 5.48032,0.0493 10.96041,0.13342 16.43752,0.33693 5.10799,0.16246 10.2153,0.17059 15.32564,0.18277 4.59267,0.051 9.1852,0.14277 13.77255,0.38173 4.6041,0.2162 9.21049,0.30544 13.81723,0.45082 3.77813,0.10622 7.55334,0.0747 11.32562,-0.19495 2.64182,-0.14886 5.282,-0.18095 7.92795,-0.15089 0,0 -0.36583,0.36583 -0.36583,0.36583 z"
       inkscape:connector-curvature="0" />
    <path
       style="fill:#000000;stroke-width:1.1409725"
       id="path84"
       d="m 202.11833,190.24352 c -6.25576,1.02412 -12.59548,1.37389 -18.91653,1.70625 -2.39801,0.10581 -4.79618,0.23219 -7.19642,0.27386 -0.97838,0.21959 0.62259,-1.44371 0.79746,0.63268 -0.0429,1.78198 -0.0841,3.56404 -0.10621,5.34661 -0.0343,3.4863 -0.0386,6.9728 -0.0386,10.45928 -4.3e-4,1.62512 1.8e-4,3.25024 0.004,4.87532 0.001,0.34893 7.3e-4,0.69783 0.001,1.04676 9e-5,0.12551 3.5e-4,0.2513 5.9e-4,0.37672 0.48175,-0.0676 1.10665,-0.0959 1.62725,-0.19313 4.61109,-0.82443 9.26393,-1.36979 13.90664,-1.98313 4.14621,-0.52905 8.31015,-0.8989 12.47991,-1.17115 0.61482,-0.0122 1.2314,-0.10033 1.84708,-0.0806 -0.91691,0.76385 -1.22048,0.82691 -2.12701,0.80486 -0.36466,-0.74166 -0.6139,-1.5513 -0.84622,-2.38489 -0.65827,-2.7546 -0.92723,-5.58742 -1.15082,-8.40697 -0.10236,-1.25859 -0.13932,-2.52115 -0.1448,-3.78355 0.002,-0.97207 0.008,-1.9441 0.008,-2.91615 -0.0741,-0.52001 0.15942,-1.15478 -0.1119,-1.62229 -0.53538,-0.6454 -0.70365,-1.48 -0.85927,-2.28497 -0.0599,-0.3316 -0.10886,-0.66538 -0.13708,-1.00126 0.004,-0.056 -0.29695,0.0305 -0.43651,0.0305 -0.55947,0.008 -1.11906,0.004 -1.67857,0.004 -0.58463,-2.3e-4 -1.16928,-1.9e-4 -1.75391,0.001 0,0 0.7801,-0.79006 0.7801,-0.79006 v 0 c 0.58367,0.002 1.16735,0.002 1.75102,0.001 0.55982,-6e-4 1.11963,0.001 1.67941,-0.008 0.17648,-0.004 0.4745,-0.0587 0.54757,0.0981 0.0213,0.33289 0.0703,0.66282 0.12591,0.99122 0.14865,0.79348 0.30421,1.61923 0.83604,2.25274 0.30209,0.48634 0.095,1.11608 0.14663,1.6726 -0.002,0.97165 -0.004,1.94333 -0.008,2.91501 0.004,1.2613 0.0343,2.52291 0.13444,3.78069 0.21681,2.81341 0.48129,5.64039 1.13913,8.38844 0.14175,0.50088 0.2348,1.017 0.41049,1.50677 0.0806,0.22523 0.43837,0.47718 0.45902,0.71249 0.004,0.039 -0.0686,0.039 -0.10276,0.0591 0.63894,-0.0122 1.01665,-0.28948 0.55476,0.76458 -0.61115,0.004 -1.22123,0.053 -1.83135,0.0829 -4.16408,0.26431 -8.32203,0.63287 -12.46191,1.16295 -4.64709,0.61499 -9.30432,1.16366 -13.91801,2.00184 -0.54275,0.0912 -1.22787,0.25649 -1.75832,0.0512 2.5e-4,-0.12591 4.7e-4,-0.25172 5.1e-4,-0.37759 1.8e-4,-0.34936 -5.9e-4,-0.69831 0,-1.04745 0.002,-1.62756 0.004,-3.25511 0.004,-4.88267 0.004,-3.48646 0.008,-6.97299 0.0343,-10.45933 0.0213,-1.77806 0.0514,-3.55565 0.10418,-5.33288 -0.0463,-0.7027 -0.17952,-2.20556 0.86495,-2.08434 2.39354,-0.0347 4.78521,-0.15536 7.17647,-0.25909 6.32162,-0.32725 12.66347,-0.67722 18.91572,-1.72825 0,0 -0.75631,0.79691 -0.75631,0.79691 z"
       inkscape:connector-curvature="0" />
    <path
       style="fill:#000000;stroke-width:0.53731978"
       id="path112"
       d="m 2.8038758,119.57998 c 1.9403807,2.35974 3.5683044,4.95001 5.2347363,7.50439 1.8753317,2.6248 3.4656979,5.43037 5.0800269,8.21769 0.753822,1.40481 1.51616,2.81755 2.112058,4.29879 0.115045,0.30894 0.234884,0.61844 0.305718,0.94114 0.0011,0.006 0.0016,0.0142 0.0026,0.0203 -0.221564,0.0252 -0.446932,0.12327 -0.664686,0.0753 -0.25478,-0.056 -1.685766,-1.73602 -1.858273,-1.92605 -2.025915,-2.39975 -3.453342,-5.20319 -4.7142507,-8.0589 -0.6748459,-1.79341 -1.4463139,-3.55326 -1.9200462,-5.41381 -0.093966,-0.61475 -0.3366949,-1.29746 -0.05735,-1.89079 0.7201859,-0.67671 1.4836545,-0.74407 2.4198156,-0.60041 1.5338273,0.36973 2.7757723,1.30988 3.9489763,2.31887 1.294226,1.3103 2.476991,2.72533 3.582855,4.19639 0.515923,0.65626 0.950657,1.37669 1.276973,2.14525 -0.07845,0.006 0.152554,0.20467 0.07615,0.22331 -0.877131,0.21407 -0.710249,-0.043 -1.042673,-0.77772 -0.928606,-1.99787 -1.11957,-4.21857 -1.30975,-6.38454 0.01198,-1.39642 -0.347145,-2.84645 -0.129342,-4.23812 0.382782,-0.81773 1.209496,-1.27515 2.056866,-1.47793 1.675625,-0.10966 3.175468,0.71992 4.552458,1.57449 1.895713,1.4324 3.590387,3.12181 5.081836,4.96764 1.142906,1.52561 2.120463,3.16043 2.985956,4.85631 0.128469,0.76681 0.892348,1.25399 1.166327,1.92511 0,0 -0.411114,0.32194 -0.411114,0.32194 v 0 c -0.196542,-0.57717 -1.099312,-1.24178 -1.15778,-1.92454 -0.861494,-1.69417 -1.836939,-3.32631 -2.97676,-4.85001 -1.48625,-1.84264 -3.17798,-3.52767 -5.070811,-4.95432 -1.368532,-0.84508 -2.863737,-1.67306 -4.527913,-1.54102 -0.816946,0.20901 -0.822653,0.053 -1.273508,0.80376 -0.245093,1.38373 0.140573,2.84161 0.114842,4.23254 0.188054,2.15977 0.375634,4.3757 1.304214,6.36687 0.330312,0.72876 0.56085,0.65031 0.221639,1.41688 -0.03085,0.0697 -0.03836,-0.28681 -0.07006,-0.21754 -0.319528,-0.76733 -0.75235,-1.48477 -1.264511,-2.1389 -1.102619,-1.46885 -2.281408,-2.88252 -3.574462,-4.18886 -1.167656,-1.0017 -2.4041719,-1.93774 -3.9328374,-2.29415 -0.4845444,-0.068 -0.9917526,-0.0958 -1.4718372,0.0339 -0.092077,0.0248 -0.1862258,0.14662 -0.2686261,0.0987 -0.063768,-0.0372 0.085843,-0.12022 0.128774,-0.18033 -0.3085661,0.57236 -0.053187,1.2575 0.033102,1.86246 0.4664903,1.86081 1.2355092,3.62015 1.9069535,5.41307 1.255927,2.85192 2.6807812,5.65085 4.7084002,8.04236 0.109867,0.12042 1.844822,1.82068 1.860539,1.91987 0.0301,0.18988 -0.168009,0.77991 -0.150788,0.55689 -0.06115,-0.32156 -0.185698,-0.62752 -0.295591,-0.93464 -0.590117,-1.48163 -1.351101,-2.89335 -2.101114,-4.29806 -1.611352,-2.78825 -3.1994007,-5.59441 -5.0747913,-8.21843 -1.6664178,-2.55263 -3.2929381,-5.14299 -5.2412329,-7.4947 0,0 0.3981372,-0.33039 0.3981372,-0.33039 z"
       inkscape:connector-curvature="0" />
    <path
       style="fill:#000000;stroke-width:0.53731978"
       id="path114"
       d="m 37.583554,114.65391 c -1.644111,-0.13485 -3.207788,-0.002 -4.662075,0.80085 -0.899023,0.49684 -1.228878,1.43853 -1.571704,2.35455 -0.522135,1.48247 -0.422773,3.06044 -0.243631,4.59486 0.282872,1.72136 1.253707,3.1077 2.643242,4.11506 1.358306,0.71521 2.189799,1.14625 3.564638,0.25513 1.160252,-1.77227 1.102447,-3.82776 0.845689,-5.84308 -0.35677,-1.83565 -0.99883,-3.17272 -2.652125,-4.09335 -0.788996,-0.35401 -1.644221,-0.49138 -2.498597,-0.56774 0,0 0.371176,-0.36438 0.371176,-0.36438 v 0 c 0.859271,0.0824 1.719122,0.22469 2.511034,0.5858 1.662689,0.93635 2.31694,2.28081 2.678643,4.13361 0.216302,1.67117 0.440902,4.15435 -0.662403,5.60691 -0.26599,0.3502 -0.625235,0.61857 -0.937855,0.92784 -1.413752,0.87084 -2.229538,0.42595 -3.607257,-0.29954 -1.39701,-1.0189 -2.37936,-2.41488 -2.669222,-4.14867 -0.183972,-1.53881 -0.28665,-3.12352 0.22714,-4.61326 0.50781,-1.36083 0.994456,-2.2644 2.34797,-3.02695 1.465141,-0.78899 3.038828,-0.91493 4.685595,-0.77978 0,0 -0.370258,0.36214 -0.370258,0.36214 z"
       inkscape:connector-curvature="0" />
    <path
       style="fill:#000000;stroke-width:0.53731978"
       id="path116"
       d="m 37.799042,115.91899 c 1.142244,1.96184 2.354685,3.88168 3.516161,5.83181 0.586156,0.96894 1.18032,1.93321 1.793295,2.88548 0.0065,0.0414 0.06121,0.11819 0.0197,0.12429 -0.222015,0.0323 -0.482406,0.0902 -0.672435,-0.0293 -0.363646,-0.22822 -1.015922,-2.79221 -1.118984,-3.21959 -0.390223,-2.01487 -0.609488,-4.06504 -0.288997,-6.10163 0.231816,-1.2023 0.634396,-1.54736 1.649769,-2.10193 1.364712,0.0298 2.463296,0.86846 3.533056,1.61933 1.892967,1.27787 3.381579,2.94657 4.643605,4.82993 0.581196,1.01269 1.157621,2.0258 1.636922,3.09143 0.08284,0.12103 0.0752,0.33985 0.216744,0.40218 0,0 -0.387698,0.35013 -0.387698,0.35013 v 0 c -0.149164,-0.0958 -0.158505,-0.27231 -0.236952,-0.42891 -0.473669,-1.06562 -1.048333,-2.07699 -1.626161,-3.08886 -1.25626,-1.8804 -2.741287,-3.54347 -4.631819,-4.81499 -1.057302,-0.73978 -2.15408,-1.5822 -3.506137,-1.58369 0.01828,-0.0784 0.109724,-0.17647 0.05471,-0.2351 -0.174143,-0.18582 -1.094709,1.5819 -0.923853,1.66392 -0.33325,2.03005 -0.111776,4.07652 0.274959,6.08666 0.193353,0.80422 0.251766,1.15415 0.531651,1.91918 0.09003,0.24612 0.199994,0.48458 0.307932,0.72338 0.08503,0.18805 0.249935,0.35163 0.270734,0.55705 0.0197,0.19435 -0.164272,0.97969 -0.15028,0.56633 -0.609176,-0.95576 -1.20206,-1.92182 -1.7882,-2.89184 -1.158945,-1.95092 -2.370192,-3.87087 -3.518907,-5.82811 0,0 0.401184,-0.3272 0.401186,-0.3272 z"
       inkscape:connector-curvature="0" />
    <path
       style="fill:#000000;stroke-width:0.53731978"
       id="path118"
       d="m 61.654014,111.5792 c -1.674884,0.12327 -3.402791,0.32261 -4.789137,1.32914 -0.731372,1.10562 -0.87677,2.1968 -0.726422,3.49256 0.170162,1.37261 0.841399,2.53344 1.750328,3.54611 0.819274,0.66864 1.616468,1.29161 2.692768,0.89648 0.151823,-0.11962 0.344261,-0.20065 0.455449,-0.35864 0.06294,-0.0894 0.0016,-0.22059 0.02693,-0.32698 0.07861,-0.33119 0.223954,-0.64589 0.283597,-0.98103 0.27019,-1.51824 0.04835,-3.01111 -0.162526,-4.51672 -0.782042,-3.54194 -2.650286,-6.62814 -4.761002,-9.52156 -1.011262,-1.17032 -1.918687,-2.44726 -2.960794,-3.58939 -0.19311,-0.18074 -0.391399,-0.37931 -0.646723,-0.46534 -0.221231,0.0898 0.421851,-0.25031 0.658528,-0.28153 0.302803,-0.04 0.993897,0.80372 1.135916,0.93913 2.185452,2.32368 4.256787,4.75219 6.300912,7.20011 2.594911,3.1088 5.17092,6.23185 7.853854,9.26561 0.694572,0.74254 1.353067,1.51831 1.97311,2.32402 0.235899,0.30657 0.414976,0.65605 0.732494,0.87912 0.03209,0.0122 0.06417,0.024 0.09626,0.0359 0,0 -0.383357,0.35463 -0.383357,0.35463 v 0 c -0.03452,-0.0162 -0.06905,-0.0307 -0.103572,-0.0459 -0.319325,-0.23519 -0.497549,-0.5783 -0.738282,-0.89336 -0.616675,-0.80706 -1.273199,-1.58322 -1.965321,-2.3267 -2.67885,-3.03786 -5.25331,-6.16277 -7.850564,-9.27015 -2.044885,-2.44484 -4.116854,-4.87059 -6.307742,-7.18665 -0.270815,-0.25653 -0.514625,-0.54651 -0.817657,-0.76403 -0.09183,-0.066 -0.259879,-0.0483 -0.302699,-0.15292 -0.05672,-0.1385 0.03852,-0.29699 0.0578,-0.44546 0.0134,0.002 0.02687,0.004 0.04009,0.008 0.25792,0.1056 0.466749,0.29536 0.663736,0.4891 1.039929,1.1467 1.944732,2.42764 2.956344,3.60037 2.112005,2.902 3.983507,5.99524 4.774609,9.54251 0.204852,1.43584 0.645982,4.15598 -0.09332,5.52205 -0.416685,0.76994 -0.691724,0.9136 -1.270541,1.34387 -1.092946,0.35301 -1.910434,-0.25649 -2.733325,-0.94163 -0.914506,-1.02057 -1.595038,-2.18904 -1.769619,-3.57123 -0.204481,-1.68446 0.08168,-3.09208 1.482675,-4.18833 1.403409,-0.98684 3.133838,-1.1877 4.813456,-1.30819 0,0 -0.366247,0.36626 -0.366247,0.36626 z"
       inkscape:connector-curvature="0" />
    <path
       style="fill:#000000;stroke-width:0.53731978"
       id="path120"
       d="m 70.335196,114.55152 c 1.206263,-0.87937 2.315921,-1.90306 3.313965,-3.01278 0.491924,-0.67295 1.051413,-1.40914 0.936997,-2.28157 -0.09321,-0.74561 -0.533535,-1.25604 -1.063598,-1.74329 -0.663468,-0.50575 -1.49994,-0.56063 -2.301726,-0.6225 -0.516355,-0.0353 -1.034117,-0.0337 -1.551346,-0.0286 -0.05487,0.0236 -0.188378,0.0162 -0.164597,0.0709 0.02589,0.0597 0.184987,-0.0644 0.195324,-1.1e-4 0.0011,0.006 -0.50178,1.583 -0.536052,1.73903 -0.316917,1.46382 -0.10936,2.92544 0.250661,4.35696 0.682986,2.02881 1.656095,3.24547 3.371281,4.47362 1.643884,1.00375 3.480959,1.53934 5.360702,1.87863 1.532128,0.16632 3.000488,-0.21844 4.445372,-0.67511 0.79216,-0.30088 1.564154,-0.65881 2.295329,-1.08776 0.0331,-0.0207 0.0662,-0.0414 0.09931,-0.0621 0,0 -0.348244,0.38904 -0.348244,0.38904 v 0 c -0.03331,0.0203 -0.06661,0.0404 -0.09992,0.0607 -0.734403,0.42312 -1.506133,0.78091 -2.300446,1.07639 -1.45053,0.45558 -2.926526,0.83195 -4.462492,0.65677 -1.884861,-0.34552 -3.727541,-0.88676 -5.37506,-1.89633 -1.723532,-1.23649 -2.702935,-2.46371 -3.394842,-4.50094 -0.3652,-1.43603 -0.578661,-2.90366 -0.267219,-4.37432 0.177372,-0.83542 0.397096,-2.12933 1.299303,-2.47451 0.517844,-0.004 1.03625,-0.004 1.553072,0.0335 0.812793,0.0658 1.656617,0.12956 2.325507,0.6476 0.537008,0.49518 0.986671,1.01561 1.086587,1.77069 0.132206,0.88681 -0.414164,1.63185 -0.914841,2.32101 -1.219951,1.36997 -2.632931,2.57209 -4.095991,3.67358 0,0 0.342984,-0.38841 0.342984,-0.38841 z"
       inkscape:connector-curvature="0" />
    <path
       style="fill:#000000;stroke-width:0.53731978"
       id="path122"
       d="m 81.55031,99.997226 c 0.06763,-1.592728 0.479009,-3.166163 1.326346,-4.520777 0.638793,-0.865615 1.439523,-1.61726 2.471339,-1.957807 0.595191,-0.168761 1.058623,-0.06783 1.438325,0.427466 0.666026,1.091624 0.853409,2.443172 1.072169,3.686559 0.319203,2.279122 0.344934,4.584703 0.37763,6.881683 0.02214,2.31399 0.01828,4.62812 0.01625,6.94218 -0.0011,1.01907 -0.0016,2.03813 -0.002,3.05717 -1.62e-4,0.29118 -4e-5,0.58234 4.67e-4,0.8735 0.01015,-0.0142 -0.01218,0.0654 1.63e-4,0.0526 0.310836,-0.32838 0.61223,-0.49655 1.010554,-0.72973 1.933579,-1.09111 3.911167,-2.12084 5.923014,-3.0623 0.909236,-0.37686 1.834699,-0.73272 2.795335,-0.95625 0.207732,-0.0599 0.220994,0.0122 0.246216,0.21518 0,0 -0.419363,0.31051 -0.419363,0.31051 v 0 c -0.01015,-0.20125 -2.44e-4,-0.18968 -0.187038,-0.14845 -0.955661,0.22727 -1.878016,0.57854 -2.782217,0.95794 -2.011339,0.94404 -3.991018,1.97098 -5.921917,3.06839 -0.07717,0.0459 -1.024505,0.71059 -1.087684,0.59934 5.28e-4,-0.29167 0.0011,-0.58333 0.0016,-0.875 0.0016,-1.02016 0.0061,-2.04034 0.0081,-3.0605 0.0041,-2.31451 0.01015,-4.62907 -0.01219,-6.94348 -0.03249,-2.29401 -0.05849,-4.59665 -0.3756,-6.872993 -0.216566,-1.234816 -0.402852,-2.578383 -1.061222,-3.66359 -0.367964,-0.482034 -0.823719,-0.550046 -1.39383,-0.380554 -0.795328,0.274749 -1.187763,0.601872 -1.680601,1.298178 -0.859359,1.339891 -1.272041,2.910706 -1.342287,4.496265 0,0 -0.419039,0.304439 -0.419039,0.304439 z"
       inkscape:connector-curvature="0" />
    <path
       style="fill:#000000;stroke-width:0.53731978"
       id="path124"
       d="m 102.98166,102.42598 c -1.64173,-0.70888 -3.302772,-1.40472 -5.114401,-1.14859 -1.102652,0.33192 -1.521548,0.95938 -1.820992,2.06376 -0.300377,1.58557 0.493021,2.89736 1.351691,4.15462 0.908749,1.33101 2.134955,2.28215 3.629612,2.85123 0.75136,0.2429 1.56133,0.30923 2.24267,-0.17018 0.0333,-0.0234 -0.002,-0.0845 0.0162,-0.12063 0.10865,-0.20871 0.24102,-0.40418 0.36152,-0.60627 0.72202,-2.35869 0.44646,-4.86878 0.0274,-7.25582 -0.44538,-2.495506 -1.66726,-4.662223 -3.09955,-6.710787 -0.930318,-1.392002 -2.059187,-2.633865 -3.247803,-3.80727 -0.203934,-0.178712 -0.385022,-0.391338 -0.610625,-0.544523 0.307668,-0.204929 0.854892,-0.584793 1.003304,-0.04793 0.644783,0.65638 1.158031,1.436822 1.734234,2.156198 2.13479,2.642801 4.15667,5.371444 6.22063,8.069062 2.2802,3.03986 4.64443,6.01838 6.858,9.10766 0.75,0.89553 1.17168,2.07755 2.08807,2.83011 0.2716,0.18988 0.66911,0.0999 -0.28001,0.10255 0,0 0.40537,-0.32493 0.40537,-0.32493 v 0 c -0.18887,0.66777 -0.0628,0.86545 -0.51853,0.56457 -0.91391,-0.76357 -1.3407,-1.94217 -2.088,-2.84761 -2.20789,-3.09286 -4.57096,-6.07186 -6.85175,-9.11069 -2.06505,-2.696155 -4.0887,-5.422849 -6.228793,-8.060756 -0.58258,-0.724391 -1.102611,-1.508489 -1.754462,-2.169215 -0.08672,-0.43035 -0.552097,0.03046 -0.198411,-0.617936 0.22341,0.163278 0.412296,0.36971 0.615439,0.556261 1.186646,1.179578 2.316677,2.424224 3.248597,3.818724 1.43609,2.054839 2.66351,4.226877 3.11173,6.729532 0.42357,2.39661 0.69556,4.90724 -0.001,7.28175 -0.8474,1.46876 -1.79776,2.05485 -3.43334,1.53003 -1.500204,-0.57937 -2.734127,-1.53813 -3.648623,-2.87607 -0.866143,-1.26674 -1.668579,-2.58927 -1.380406,-4.18829 0.327651,-1.29989 1.301671,-2.34897 2.607952,-2.72753 1.819567,-0.23434 3.485347,0.45953 5.134857,1.16855 0,0 -0.38088,0.35028 -0.38088,0.35028 z"
       inkscape:connector-curvature="0" />
    <path
       style="fill:#000000;stroke-width:0.53731978"
       id="path354"
       d="m 164.21063,170.83295 c -1.62656,0.26127 -3.20905,0.70591 -4.80056,1.11929 -0.76608,0.1846 -1.48479,0.50904 -2.24834,0.70597 -0.45134,0.0928 -0.8359,0.0735 -1.20459,0.35935 -0.40663,0.22128 -0.8642,0.27177 -1.31788,0.30554 -0.27012,0.0142 -0.5022,0.22664 -0.70417,0.39477 0,0 0.34317,-0.39376 0.34317,-0.39376 v 0 c 0.21125,-0.16937 0.4452,-0.36562 0.72705,-0.37277 0.44855,-0.0359 0.90118,-0.0904 1.29577,-0.32503 0.3722,-0.26911 0.7795,-0.24218 1.21913,-0.3453 0.76136,-0.19984 1.47978,-0.52503 2.24647,-0.70399 1.59175,-0.41398 3.17685,-0.84896 4.80203,-1.11814 0,0 -0.35808,0.37407 -0.35808,0.37407 z"
       inkscape:connector-curvature="0" />
    <path
       style="fill:#000000;stroke-width:0.53731978"
       id="path356"
       d="m 154.69793,165.69952 c 0.0183,2.12681 -0.0581,4.25545 0.0597,6.37968 0.20698,2.16038 0.51286,4.31705 0.84224,6.46315 0.26934,1.41568 0.35967,2.86162 0.75645,4.24926 0.14297,0.53423 0.47694,0.9914 0.77892,1.44809 0.17161,0.2676 0.55669,0.22591 0.83698,0.23371 0.3204,0.006 0.64081,-0.002 0.96119,-0.006 0.22538,-0.0885 0.45525,-0.16511 0.68355,-0.24563 0,0 -0.35553,0.38049 -0.35553,0.38049 v 0 c -0.23103,0.0814 -0.46055,0.16856 -0.69664,0.2346 -0.32072,0.004 -0.64149,0.0102 -0.96224,0.004 -0.29972,-0.0101 -0.69047,0.0163 -0.87079,-0.27034 -0.30363,-0.46187 -0.64157,-0.92345 -0.78649,-1.46229 -0.39839,-1.39043 -0.48728,-2.83881 -0.75595,-4.25782 -0.33121,-2.14733 -0.63419,-4.30598 -0.84484,-6.46742 -0.12043,-2.12395 -0.0412,-4.2523 -0.0656,-6.37893 0,0 0.41904,-0.30444 0.41904,-0.30444 z"
       inkscape:connector-curvature="0" />
    <path
       style="fill:#000000;stroke-width:0.53731978"
       id="path358"
       d="m 163.6894,177.17604 c -1.23053,0.49822 -2.48202,1.0663 -3.30641,2.13431 -0.59553,0.84538 -0.3625,1.66145 -0.0499,2.5601 0.24,0.76852 0.61895,1.48684 0.96567,2.21215 0.32198,0.20064 0.7778,0.0101 1.13417,-0.0362 0.65723,-0.04 1.20167,-0.39981 1.70639,-0.79098 -0.0437,0.0183 -0.15272,0.0934 -0.13078,0.052 0.0682,-0.12957 0.19374,-0.22002 0.28102,-0.33763 0.37481,-0.50522 0.7025,-1.06465 0.99709,-1.61929 0.37219,-0.79882 0.44054,-1.68039 0.49454,-2.54729 0.0662,-0.52208 -0.0122,-0.95574 -0.35184,-1.35951 -0.6143,-0.37257 -1.24212,-0.72291 -1.87444,-1.06648 -0.28198,-0.15089 -0.56601,-0.2979 -0.85452,-0.43583 -0.008,-0.004 -0.0183,-0.008 -0.0264,-0.0122 0,0 0.38532,-0.35356 0.38532,-0.35356 v 0 c 0.008,0.004 0.0183,0.008 0.0268,0.0122 0.28795,0.14033 0.57218,0.28813 0.85424,0.43996 0.63697,0.34763 1.27395,0.69626 1.88825,1.08025 0.34648,0.4126 0.44465,0.85542 0.37516,1.39149 -0.0538,0.87179 -0.118,1.75891 -0.48291,2.56596 -0.50021,0.95905 -1.07654,1.88908 -1.92428,2.58009 -0.51396,0.38888 -1.06439,0.73459 -1.72684,0.77307 -0.38163,0.0518 -0.84572,0.24654 -1.17836,-0.0122 -0.34557,-0.7281 -0.7258,-1.44805 -0.96732,-2.21807 -0.31732,-0.90668 -0.56883,-1.74009 0.0211,-2.60223 1.00734,-1.35144 2.56671,-2.16641 4.09829,-2.78851 0,0 -0.35408,0.37763 -0.35408,0.37763 z"
       inkscape:connector-curvature="0" />
    <path
       style="fill:#000000;stroke-width:0.53731978"
       id="path360"
       d="m 170.33382,175.64318 c -0.24154,2.30199 -0.10316,4.62476 0.12084,6.92201 0.13972,1.72075 0.49338,3.41478 0.80152,5.1112 0.13992,0.98923 0.53544,0.95526 -0.59897,1.10466 -0.80404,-0.91019 -1.26434,-2.09913 -1.65942,-3.2347 -0.52797,-1.21713 -0.74714,-2.52422 -1.06756,-3.80055 -0.31796,-1.03588 -0.47496,-2.06759 -0.37509,-3.14508 0.0262,-0.92792 0.34325,-1.78732 0.59818,-2.6664 0.35115,-0.81391 1.13679,-1.32797 1.88797,-1.74307 0.68712,-0.4007 1.46651,-0.64507 2.26362,-0.59901 0.91271,0.0963 1.68225,0.65504 2.34023,1.26087 0.73392,0.65328 1.15927,1.41233 1.37178,2.35971 0.23513,0.91896 0.0449,1.61102 -0.60372,2.28572 -0.7391,0.80977 -1.75938,1.15797 -2.66364,1.71015 -0.65711,0.3807 -1.42068,0.41689 -2.16004,0.46443 -0.30919,0.0183 -0.61899,0.0225 -0.92865,0.0266 0,0 0.36764,-0.36861 0.36764,-0.36861 v 0 c 0.30879,-0.004 0.61767,-0.008 0.92599,-0.0278 0.73619,-0.0491 1.49275,-0.0934 2.14225,-0.48185 0.63812,-0.38257 1.34943,-0.60106 1.87412,-1.05144 0.66003,-0.65483 0.865,-1.32748 0.63294,-2.24311 -0.20568,-0.93928 -0.62354,-1.68916 -1.35167,-2.33532 -0.65173,-0.59818 -1.41182,-1.14782 -2.31643,-1.2337 -0.79354,-0.0299 -1.56064,0.21713 -2.24261,0.61867 -0.12043,0.067 -0.24075,0.13383 -0.36114,0.20085 0.029,-0.0494 0.13993,-0.16897 0.0869,-0.14785 -0.37227,0.14886 -0.65766,0.69054 -0.83665,1.01112 -0.25113,0.87819 -0.58098,1.73229 -0.60482,2.65932 -0.10499,1.07296 0.0453,2.09894 0.36423,3.13109 0.32251,1.27439 0.53304,2.58268 1.06355,3.79792 0.3897,1.12536 0.8458,2.30476 1.64086,3.20719 -0.0303,0.158 -0.0808,0.63605 -0.0368,0.4813 0.0774,-0.27168 -0.24499,-0.65745 -0.16693,-0.92908 -0.30434,-1.69934 -0.65894,-3.39536 -0.79917,-5.1182 -0.2246,-2.299 -0.36396,-4.62286 -0.1318,-6.92731 0,0 0.42235,-0.29977 0.42235,-0.29977 z"
       inkscape:connector-curvature="0" />
    <path
       style="fill:#000000;stroke-width:0.53731978"
       id="path362"
       d="m 175.2867,163.66343 c 0.7237,2.70933 1.43556,5.42081 2.04645,8.15812 0.48711,2.29822 1.09144,4.56822 1.61801,6.85719 0.17648,0.78199 0.29756,1.57441 0.34634,2.37447 0.0755,0.27676 0.23072,0.52093 0.41662,0.73632 -1.11522,0.29613 0.73824,-0.99982 0.76036,-1.01582 0.98431,-0.57835 2.06434,-0.95564 3.16732,-1.23153 0.71257,-0.16855 1.44086,-0.26542 2.17096,-0.31467 0.11311,-0.0162 0.22629,-5.5e-4 0.33892,-0.001 0.0491,4.7e-4 0.0983,0.001 0.14764,0.002 0,0 -0.36934,0.36865 -0.36934,0.36865 v 0 c -0.0496,-4.9e-4 -0.0991,-0.001 -0.14866,-0.002 -0.1117,-0.006 -0.22319,-0.004 -0.33478,0.004 -0.72711,0.0504 -1.45213,0.14784 -2.16142,0.31817 -1.10025,0.28009 -2.17729,0.66095 -3.15749,1.24338 0.28608,-0.63109 -1.0324,1.45841 -0.81332,0.96547 -0.19232,-0.22467 -0.3517,-0.47846 -0.43681,-0.76375 -0.0437,-0.79878 -0.16287,-1.58992 -0.33677,-2.37081 -0.52139,-2.29123 -1.12564,-4.56245 -1.61244,-6.86178 -0.60937,-2.7354 -1.31993,-5.44494 -2.05082,-8.15011 0,0 0.40931,-0.31601 0.40931,-0.31601 z"
       inkscape:connector-curvature="0" />
    <path
       style="fill:#000000;stroke-width:0.53731978"
       id="path364"
       d="m 185.4531,175.97715 c 0.67007,-0.93677 1.33914,-1.87422 2.00797,-2.81185 0.15678,-0.35472 -0.004,-0.6554 -0.10378,-0.994 -0.0727,-0.29806 -0.0565,-0.33189 -0.31236,-0.14825 -0.27517,0.12774 -0.56077,0.19902 -0.86047,0.23115 -0.48435,0.13363 -0.25416,0.10844 -0.62393,0.67689 -0.51658,0.57637 -0.76905,1.27103 -0.92469,2.01558 -0.13404,0.81117 0.0812,1.62569 0.39938,2.36828 0.15373,0.61909 0.47147,0.97241 0.94666,1.34805 0.62962,0.42733 1.4089,0.46949 2.1446,0.52621 0.98921,0.11941 1.94449,0.004 2.91199,-0.19151 0.36715,-0.0796 0.74929,-0.1454 1.1005,-0.2638 0,0 -0.35058,0.38772 -0.35058,0.38772 v 0 c -0.35052,0.1385 -0.75173,0.13729 -1.10958,0.2503 -0.97044,0.19415 -1.93114,0.29819 -2.9221,0.18115 -0.74565,-0.0595 -1.5319,-0.10885 -2.1669,-0.54728 -0.48288,-0.37924 -0.80582,-0.74444 -0.9623,-1.36871 -0.32278,-0.74976 -0.54513,-1.57307 -0.41826,-2.39358 0.14967,-0.74763 0.38981,-1.45677 0.914,-2.03141 0.3306,-0.52612 0.78067,-1.2179 1.42596,-1.33113 0.29394,-0.0353 0.57801,-0.11109 0.84238,-0.24858 0.27443,-0.17465 0.32372,-0.0593 0.37887,0.22002 0.10236,0.34914 0.27077,0.66323 0.12977,1.03354 -0.67041,0.93733 -1.34058,1.87481 -2.00977,2.81301 0,0 -0.4373,0.27802 -0.4373,0.27802 z"
       inkscape:connector-curvature="0" />
    <path
       style="fill:#000000;stroke-width:0.53731978"
       id="path366"
       d="m 193.29479,165.70419 c -0.44061,2.56715 -0.14947,5.12011 0.37891,7.6445 0.40419,1.87279 1.01445,3.69127 1.5658,5.52385 0.10763,0.21499 0.0556,0.69992 0.38536,0.69156 0,0 -0.37235,0.36605 -0.37235,0.36605 v 0 c -0.35332,-0.0621 -0.3162,-0.45929 -0.42326,-0.74092 -0.54653,-1.83653 -1.15681,-3.6574 -1.56178,-5.53237 -0.53169,-2.52859 -0.82516,-5.08398 -0.39816,-7.65753 0,0 0.42548,-0.29514 0.42548,-0.29514 z"
       inkscape:connector-curvature="0" />
    <path
       style="fill:#000000;stroke-width:0.53731978"
       id="path368"
       d="m 196.06472,171.35558 c -1.7491,0.39327 -3.4544,0.93863 -5.13784,1.54998 -0.28783,0.105 -0.57304,0.21695 -0.85674,0.33257 0,0 0.35423,-0.38259 0.35423,-0.38259 v 0 c 0.28356,-0.11372 0.56841,-0.2244 0.85569,-0.32856 1.68584,-0.60772 3.3932,-1.15026 5.14312,-1.54429 0,0 -0.35846,0.37289 -0.35846,0.37289 z"
       inkscape:connector-curvature="0" />
    <path
       style="fill:#000000;stroke-width:0.53731978"
       id="path370"
       d="m 205.54355,165.53618 c -1.80554,0.33728 -3.62641,0.55819 -5.41458,0.9807 -0.57933,0.14419 -1.15737,0.29508 -1.72717,0.47359 0,0 0.35773,-0.37989 0.35773,-0.37989 v 0 c 0.57001,-0.17444 1.1471,-0.32486 1.72593,-0.46704 1.79034,-0.41902 3.61359,-0.63888 5.42024,-0.97762 0,0 -0.36215,0.37026 -0.36215,0.37026 z"
       inkscape:connector-curvature="0" />
    <path
       style="fill:#000000;stroke-width:0.53731978"
       id="path372"
       d="m 198.24764,162.09564 c 0.59759,2.47448 0.97453,4.9942 1.52886,7.47809 0.4839,1.89207 1.05578,3.76635 1.93352,5.51543 0.55559,1.02503 1.1749,1.76429 2.37136,1.87765 0.69604,0.006 1.38701,-0.0825 2.07431,-0.18156 0,0 -0.36209,0.37247 -0.36209,0.37247 v 0 c -0.69013,0.0967 -1.38396,0.18318 -2.08252,0.17181 -1.20823,-0.13485 -1.84183,-0.87699 -2.40412,-1.9179 -0.8792,-1.75339 -1.4526,-3.63177 -1.93762,-5.52822 -0.5539,-2.48349 -0.92747,-5.00365 -1.53408,-7.47556 0,0 0.41238,-0.31223 0.41238,-0.31223 z"
       inkscape:connector-curvature="0" />
    <path
       style="fill:#000000;stroke-width:0.53731978"
       id="path374"
       d="m 176.02711,191.98913 c 0.79953,-0.62372 1.48055,-1.45254 0.57298,-2.34033 -0.70683,-0.45198 -1.53918,-0.7259 -2.34572,-0.42312 -0.39166,0.10723 -0.5407,0.74064 -0.6567,1.54431 0.028,1.01695 0.42805,1.65971 1.31079,2.13542 1.21,0.54733 2.33483,0.24921 3.47182,-0.30738 0.91927,-0.50098 1.61555,-1.19828 1.64835,-2.29348 -0.56386,-1.08649 -2.00318,-1.28636 -3.10719,-1.38725 -0.66783,0.041 -1.47855,0.1517 -1.98835,0.646 -0.0297,0.0288 0.13099,-0.0613 0.12246,-0.0209 -0.028,0.13384 -0.12936,0.2412 -0.19394,0.36181 -0.30915,0.76964 -0.28424,1.49237 0.21086,2.16238 0.57173,0.71387 1.35916,0.8397 2.21882,0.85917 0.59993,-0.14297 0.67186,-0.2931 0.73175,-1.06924 -0.13383,-0.91694 -0.90432,-1.30159 -1.70414,-1.55646 0.26766,-0.19922 -1.5569,-0.0816 -1.2364,0.16693 0.21386,0.16592 0.40866,-0.56505 0.14277,0.16003 -0.21675,0.71361 0.24964,1.23415 0.8135,1.59624 0.70924,0.39938 1.47199,0.58587 2.24346,0.28375 0.0891,-0.0142 0.49282,-0.18805 0.38953,-0.90914 -0.54367,-0.64023 -1.47778,-0.89875 -2.25743,-1.14688 -0.15292,-0.0418 -1.41398,-0.15921 -1.32639,0.20792 0.0183,0.0798 0.158,-0.0449 0.23708,-0.0672 -0.0349,0.11392 -0.0699,0.22777 -0.10479,0.34168 -0.24427,0.95363 0.26876,1.68255 0.84717,2.38302 0.63006,0.65652 1.32879,0.94979 2.13551,0.42976 -0.006,-0.0272 -0.0311,-0.0567 -0.0183,-0.0818 0.0959,-0.19983 0.2479,-0.37083 0.33415,-0.57507 0.42775,-1.01297 0.26181,-2.0263 -0.0215,-3.04397 -0.44759,-1.1997 -1.27567,-2.10185 -2.54916,-2.35942 -0.34562,0.0516 -0.45376,0.0102 -0.71342,0.30286 -0.0219,0.0246 0.10032,0.006 0.0916,0.0374 -0.05,0.18135 -0.17425,0.33441 -0.24201,0.50997 -0.21712,0.56307 -0.18257,0.6044 -0.24815,1.20024 -0.0662,1.1169 0.23497,2.12693 0.94874,2.97936 0.33124,0.28631 0.74967,0.37085 1.05752,-0.0162 0.0183,-0.0228 -0.0983,0.0162 -0.0865,-0.0122 0.0694,-0.15515 0.18765,-0.2836 0.28159,-0.42539 0.36468,-0.70258 0.79204,-1.58656 0.23913,-2.29249 -0.0904,-0.0552 -0.17648,-0.11799 -0.27101,-0.16571 -0.32215,-0.16287 -0.6271,-0.17262 -0.9607,-0.0183 -0.69622,0.32227 -0.37282,0.22441 -0.2296,0.18602 -0.47865,0.72691 -0.75402,1.61864 -0.48998,2.46633 0.54024,0.83409 1.49943,0.4824 2.19542,0.0579 0.18825,-0.32725 0.67025,-1.02429 0.40589,-1.50281 -0.10194,-0.065 -1.17913,0.50161 -0.41928,0.25907 0,0 -0.4339,0.28773 -0.4339,0.28773 v 0 c 0.1911,-0.22341 0.80873,-1.1068 1.25894,-0.87479 0.47223,0.8177 -0.64291,1.81089 -1.15811,2.21661 -0.73743,0.42803 -1.70603,0.73327 -2.25973,-0.12551 -0.27914,-0.86019 -0.0122,-1.76033 0.45854,-2.51221 0.72134,-0.66656 1.3748,-1.29652 2.30329,-0.60762 0.56889,0.72628 0.17505,1.61165 -0.20268,2.34563 -0.45655,0.71143 -1.22409,1.80184 -2.08678,1.06758 -0.72064,-0.86345 -1.03405,-1.88212 -0.97264,-3.01333 0.11251,-1.13128 0.57177,-2.58823 1.90827,-2.70945 1.28508,0.28186 2.12728,1.18543 2.58363,2.40408 0.47651,1.68787 0.41851,3.23852 -1.04888,4.4022 -0.84019,0.48725 -1.54648,0.18683 -2.18686,-0.48321 -0.58666,-0.70977 -1.11224,-1.45476 -0.87851,-2.42279 0.28638,-1.02791 1.04333,-1.35232 2.00078,-1.13078 0.79941,0.25709 1.74656,0.52261 2.29669,1.1889 0.13099,0.76989 -0.50667,1.28452 -1.16082,1.60266 -0.78881,0.27863 -1.56017,0.09 -2.27672,-0.31886 -0.57426,-0.37492 -1.06502,-0.91569 -0.8568,-1.65001 0.28841,-0.88564 1.06199,-1.24936 1.90273,-0.97386 0.82183,0.26839 1.59638,0.67385 1.74867,1.60885 -0.0481,0.85624 -0.64635,1.57555 -1.52303,1.73873 -0.87327,-0.0266 -1.67047,-0.17201 -2.25034,-0.89421 -0.50643,-0.68305 -0.54977,-1.4168 -0.24502,-2.2092 0.559,-1.11066 1.66482,-1.6103 2.863,-1.63367 1.13665,0.10966 2.57881,0.33092 3.15897,1.4448 -0.0101,1.40981 -1.31838,2.30365 -2.41754,2.97939 -1.15236,0.55104 -2.2919,0.83263 -3.50768,0.27383 -0.89699,-0.49186 -1.30888,-1.14775 -1.35043,-2.1842 0.13626,-0.99869 0.40776,-1.79061 1.43554,-2.22332 0.82753,-0.27797 1.67077,-0.002 2.38529,0.46561 0.1119,0.11068 0.25328,0.198 0.33567,0.33216 0.67947,1.10616 -0.97598,2.18394 -1.64595,2.73392 0,0 0.343,-0.38841 0.343,-0.38841 z"
       inkscape:connector-curvature="0" />
    <path
       style="fill:#000000;stroke-width:0.53731978"
       id="path376"
       d="m 209.53637,214.61326 c 1.70241,1.16514 3.39234,2.35059 5.04765,3.58199 1.53097,1.09425 3.01611,2.24982 4.5539,3.33458 1.48254,1.04855 3.04377,1.96309 4.59259,2.90636 1.02934,0.60228 1.93975,1.37287 2.91532,2.05348 0.96382,0.73337 2.04791,1.28721 3.09871,1.88261 1.18681,0.78801 2.44641,1.45168 3.69318,2.13676 1.13631,0.56438 2.24156,1.19798 3.29774,1.90119 1.04993,0.82148 2.11638,1.6163 3.22695,2.35471 0.86653,0.59226 1.74893,1.16018 2.61258,1.75726 0.65504,0.49319 1.42232,0.79243 2.08221,1.27639 0.72178,0.53317 1.47639,1.01135 2.20685,1.53071 0.48004,0.31995 1.01805,0.52961 1.51777,0.81994 0.31701,0.18419 0.59022,0.4352 0.85802,0.68359 0.21397,0.20938 0.3439,0.24002 -0.43435,0.30038 -0.1117,0.008 -0.17059,-0.14785 -0.26841,-0.20227 -0.59623,-0.12307 -0.89291,-0.47347 -1.2231,-0.97089 -0.75301,-1.31335 -1.51948,-2.61864 -2.2892,-3.92216 -0.61243,-1.25957 -1.24192,-2.51335 -1.81197,-3.79283 -0.18075,-0.50537 -0.45704,-0.98088 -0.87228,-1.32766 -0.18379,-0.13282 -0.33198,-0.028 0.25741,-0.12063 -0.0162,0.27527 0.25767,0.41404 0.43291,0.61151 0.50892,0.78211 0.8902,1.63231 1.37461,2.43018 0.72373,1.25011 1.48821,2.47678 2.20098,3.73343 0.39166,0.64862 0.83595,1.25693 1.11849,1.96325 0.12591,0.20146 0.3108,0.32345 0.52913,0.39918 0.0898,0.13525 0.0967,0.29922 0.10743,0.45618 0.008,0.40033 -0.6422,0.43147 -0.9502,0.44408 -0.4473,-0.0122 -0.88758,-0.0343 -1.32762,0.0516 -0.99855,0.16754 -1.97852,0.38587 -2.95981,0.63601 -0.64211,0.10459 -1.24743,0.36146 -1.78927,0.71739 -0.21691,0.17119 -0.36202,0.348 -0.57527,0.0778 -0.0818,-0.13262 -0.12368,-0.28097 -0.1513,-0.43247 0.21586,-0.68785 0.31527,-1.42774 0.44073,-2.14385 0.25211,-1.97896 0.5734,-3.94776 0.86308,-5.92161 0.11535,-0.51928 0.0985,-1.0706 0.25003,-1.58306 0,0 0.43277,-0.29307 0.43277,-0.29307 v 0 c -0.19537,0.49473 -0.11698,1.07335 -0.26137,1.57927 -0.29197,1.97368 -0.61529,3.94232 -0.86161,5.92228 -0.12368,0.70792 -0.19598,1.45648 -0.44475,2.12701 0.0211,0.14399 0.0589,0.28456 0.13342,0.41124 0.18217,0.23513 0.33631,-0.0142 0.52144,-0.13301 0.54919,-0.34723 1.15614,-0.59684 1.79938,-0.70362 0.982,-0.25087 1.96485,-0.46272 2.96345,-0.63465 0.44365,-0.0762 0.88618,-0.0567 1.33548,-0.0477 0.26441,-0.0142 0.44656,-0.15007 0.15861,0.29177 3e-4,-0.0183 0.002,-0.0376 0.001,-0.0565 -0.006,-0.13729 -0.0122,-0.27851 -0.0664,-0.40684 -0.2322,-0.078 -0.4231,-0.23066 -0.55837,-0.43547 -0.27757,-0.70621 -0.72104,-1.31282 -1.11116,-1.95996 -0.71021,-1.25748 -1.47532,-2.48334 -2.19957,-3.73249 -0.48374,-0.7944 -0.86619,-1.64013 -1.372,-2.4201 -0.18115,-0.20268 -0.47144,-0.35475 -0.45568,-0.64192 0.33728,-0.53328 0.22727,-0.76702 0.55803,-0.52785 0.41739,0.35576 0.70297,0.83389 0.88412,1.34838 0.56665,1.27902 1.19639,2.53086 1.80649,3.78956 0.76901,1.30273 1.53464,2.60722 2.28986,3.91805 0.32981,0.49599 0.62133,0.81838 1.20941,0.95091 0.50753,0.29983 0.25014,0.97962 -0.0806,0.59155 -0.26451,-0.24643 -0.53512,-0.49413 -0.84951,-0.67563 -0.50059,-0.29093 -1.04169,-0.49887 -1.51996,-0.82443 -0.72978,-0.52056 -1.48524,-0.99796 -2.20669,-1.53172 -0.6607,-0.48136 -1.42872,-0.77969 -2.08158,-1.27507 -0.86377,-0.5961 -1.74354,-1.16704 -2.61035,-1.75805 -1.10976,-0.73962 -2.17644,-1.534 -3.22709,-2.35457 -1.05582,-0.70126 -2.15985,-1.33357 -3.29449,-1.89824 -1.24714,-0.68492 -2.50535,-1.35137 -3.69374,-2.13715 -1.0526,-0.59572 -2.13756,-1.15127 -3.10315,-1.88517 -0.97445,-0.67995 -1.8825,-1.45148 -2.91081,-2.05317 -1.54969,-0.9438 -3.11041,-1.86122 -4.59427,-2.90951 -1.53798,-1.08512 -3.02319,-2.24119 -4.55408,-3.33616 -1.65493,-1.23189 -3.34398,-2.4189 -5.05038,-3.57826 0,0 0.38842,-0.34298 0.38842,-0.34298 z"
       inkscape:connector-curvature="0" />
    <path
       style="fill:#000000;stroke-width:0.53731978"
       id="path378"
       d="m 210.54435,234.01555 c -0.67566,-1.35064 -1.72484,-2.36899 -2.95843,-3.20394 -0.27183,-0.17201 -0.53963,-0.36481 -0.87679,-0.34217 -0.0664,0.004 -0.23403,-0.0101 -0.19496,0.0435 0.19821,0.27467 0.44349,-0.67429 0.0751,0.30521 -0.18846,0.90587 -0.13647,1.84217 -0.12489,2.76203 -0.063,1.12505 0.33015,2.12982 0.78795,3.12926 0.39494,1.06835 0.9922,2.03591 1.59763,2.99318 0.38756,0.54089 0.56696,1.18474 0.89636,1.75629 0.21912,0.30223 0.3453,0.47056 0.16226,0.8199 -0.41171,0.57399 -1.27982,0.74728 -1.93226,0.88804 -1.15693,0.1846 -2.33641,0.28472 -3.50531,0.19069 -1.14069,-0.15637 -2.07902,-0.67693 -2.96513,-1.37858 -0.34034,-0.23884 -0.69547,-0.4627 -1.07873,-0.62657 -0.15414,-0.0999 -0.0353,-0.38041 -0.16632,-0.46099 -0.35245,-0.12672 0.0721,0.039 -0.11028,-0.0595 0,0 0.39762,-0.33964 0.39762,-0.33964 v 0 c 0.006,0.006 0.0101,0.0102 0.0162,0.0162 0.0299,0.0122 0.0597,0.026 0.0894,0.039 0.13606,0.11576 0.0538,0.30178 0.158,0.45171 0.38457,0.17059 0.74319,0.39532 1.08549,0.63865 0.87814,0.69659 1.81059,1.20856 2.94269,1.3575 1.16622,0.0865 2.34279,-0.0101 3.4956,-0.20267 0.47954,-0.10885 0.34892,-0.0646 0.76371,-0.20662 0.28439,-0.0973 0.49404,-0.18724 0.4985,-0.16388 0.0183,0.0993 -0.12408,0.15962 -0.1911,0.23531 -0.0252,0.0282 0.0433,-0.0619 0.065,-0.0928 0.19922,-0.33921 0.094,-0.46845 -0.12977,-0.77719 -0.32978,-0.57117 -0.50839,-1.21386 -0.89311,-1.75621 -0.60585,-0.95954 -1.2063,-1.9283 -1.60154,-2.99893 -0.46065,-1.00456 -0.8633,-2.01442 -0.80154,-3.14608 -0.0122,-0.92473 -0.0619,-1.86361 0.11311,-2.77646 0.35085,-1.0187 1.00414,-1.2415 1.81531,-0.6414 1.23684,0.84411 2.29088,1.86988 2.97512,3.22445 0,0 -0.4045,0.32357 -0.4045,0.32357 z"
       inkscape:connector-curvature="0" />
    <path
       style="fill:#000000;stroke-width:0.53731978"
       id="path380"
       d="m 215.14715,240.06876 c -0.81688,2.32585 -1.43888,4.71606 -2.07499,7.09648 -0.42974,1.48714 -0.88352,2.95906 -1.45179,4.39878 -0.12956,0.32235 -0.25966,0.64462 -0.40139,0.96188 -0.14601,0.001 -0.32497,0.095 -0.43817,0.002 -0.094,-0.0766 -0.004,-0.24244 -0.004,-0.36366 -0.006,-0.8947 0.002,-1.78964 0.006,-2.68433 0.0904,-1.99404 0.33668,-3.98164 0.95687,-5.88266 0.36456,-1.0611 0.80331,-2.07487 1.64633,-2.83815 0.63739,-0.64984 1.42274,-1.10078 2.22124,-1.52002 0.66511,-0.31208 1.30527,-0.32668 1.97757,-0.0469 0.90206,0.33346 1.46354,1.0615 2.00591,1.81343 0.55994,0.83507 0.88028,1.71133 0.82441,2.71325 -0.19374,1.0383 -0.86963,1.87424 -1.52812,2.66551 -0.66006,0.63154 -1.29601,1.31284 -2.18246,1.59669 -0.72884,0.22984 -1.42533,0.006 -2.14192,-0.14663 -0.39768,-0.14419 -0.76854,-0.35903 -1.07847,-0.64763 -0.0142,-0.0142 -0.028,-0.0294 -0.042,-0.0443 0,0 0.39834,-0.33839 0.39834,-0.33839 v 0 c 0.0142,0.0142 0.0264,0.028 0.0398,0.042 0.30311,0.28258 0.66675,0.49214 1.05772,0.62853 0.71101,0.15292 1.40137,0.36504 2.12239,0.12713 0.80755,-0.27783 0.80335,-0.42054 1.38678,-0.94238 0.65776,-0.78381 1.33624,-1.61058 1.54631,-2.63793 0.0642,-0.9925 -0.24608,-1.85736 -0.8021,-2.68561 -0.53769,-0.74482 -1.09229,-1.46395 -1.9881,-1.79052 -0.66532,-0.26639 -1.29599,-0.23659 -1.94548,0.079 -0.63262,0.33539 -1.16356,0.60714 -1.42722,0.86611 -0.85893,0.7451 -1.29578,1.76092 -1.66484,2.81759 -0.62801,1.89503 -0.87372,3.87892 -0.96616,5.86932 -4.3e-4,0.2955 0.0837,2.85549 0.002,3.04324 -0.0961,0.22198 -0.27857,0.3955 -0.41786,0.59324 0.14642,-0.31579 0.27497,-0.63945 0.40657,-0.96155 0.57175,-1.4392 1.02978,-2.90984 1.46064,-4.39759 0.63664,-2.3804 1.26061,-4.76955 2.06751,-7.09884 0,0 0.42946,-0.2877 0.42946,-0.2877 z"
       inkscape:connector-curvature="0" />
    <path
       style="fill:#000000;stroke-width:0.53731978"
       id="path382"
       d="m 220.63823,247.77525 c 1.47193,0.0829 2.92553,-0.11413 4.3785,-0.31768 0.3151,-0.10215 0.68582,-0.0429 0.99999,-0.15068 0.0556,-0.0183 0.20694,-0.10479 0.14906,-0.0942 -0.0904,0.0162 -0.16328,0.13911 -0.2515,0.11311 -0.064,-0.0183 0.0902,-0.0983 0.13526,-0.14744 0.23831,-0.34558 0.46857,-0.46972 0.83271,-0.77213 0.0711,-0.0591 -0.1318,0.14926 -0.2229,0.1649 -0.11433,0.0203 0.14866,-0.1781 0.21646,-0.27229 0.21566,-0.44623 0.0871,-0.88087 -0.0877,-1.31304 -0.13728,-0.49361 -0.19069,-0.78394 -0.712,-0.9279 -0.88576,-0.12551 -1.78683,-0.10947 -2.67988,-0.1115 -0.69103,0.10418 -0.69633,0.39518 -0.95962,1.24881 -0.39861,1.01996 -0.57635,2.08715 -0.67744,3.1711 -0.0754,1.0134 -0.0894,2.03004 -0.0934,3.04582 -0.0554,0.56379 0.17627,0.508 0.65827,0.63349 0.59328,0.16226 1.2026,0.24284 1.81189,0.31482 0,0 -0.37095,0.36223 -0.37095,0.36223 v 0 c -0.61129,-0.0735 -1.22237,-0.15637 -1.81784,-0.31853 -0.48918,-0.12205 -0.76402,-0.11291 -0.70244,-0.6864 0.006,-1.0175 0.0203,-2.03587 0.093,-3.05111 0.0985,-1.08602 0.26858,-2.15738 0.67019,-3.17878 0.25641,-0.86837 0.75583,-1.7875 1.7556,-1.90854 0.89673,0.004 1.80281,-0.0142 2.69101,0.12084 0.53114,0.16043 0.60825,0.4539 0.743,0.96329 0.18236,0.44693 0.31384,0.88511 0.11839,1.355 -0.44832,0.65714 -0.67855,0.53255 -0.82234,0.88672 -0.83535,0.82366 -0.72209,0.8095 -1.83799,0.92359 -1.45487,0.20126 -2.9103,0.39154 -4.38363,0.31267 0,0 0.36626,-0.36624 0.36626,-0.36624 z"
       inkscape:connector-curvature="0" />
    <path
       style="fill:#000000;stroke-width:0.53731978"
       id="path384"
       d="m 228.49054,248.95097 c 1.34413,0.20333 2.66887,0.71168 4.04036,0.64913 -0.17708,0.19313 0.57541,-0.1781 0.42599,-0.15536 -0.0959,0.0142 -0.17201,0.16877 -0.26062,0.12957 -0.0684,-0.0303 0.0563,-0.13911 0.0766,-0.21122 0.038,-0.13566 0.0386,-0.21759 0.0494,-0.3532 0.041,-0.43324 -0.27375,-0.66656 -0.55839,-0.94555 -0.42472,-0.46378 -0.97461,-0.71479 -1.56679,-0.88538 -0.43744,-0.11392 -0.89614,-0.092 -1.34428,-0.0928 -0.80504,0.13403 -1.59263,0.28244 -2.34799,0.59204 -0.71052,0.37436 -0.30519,-0.17221 -0.56753,0.63 -0.0282,0.63388 -0.1584,1.23685 -0.30251,1.85377 -0.0183,0.82654 0.0494,1.67211 0.22591,2.48068 0.16145,0.87087 0.77508,1.37811 1.46164,1.861 0.55024,0.34501 1.18016,0.42198 1.80939,0.50402 0,0 -0.37109,0.36147 -0.37109,0.36147 v 0 c -0.63668,-0.0855 -1.27269,-0.16856 -1.82745,-0.52145 -0.69401,-0.4913 -1.31936,-1.0095 -1.48568,-1.89085 -0.18318,-0.81424 -0.24443,-1.66576 -0.24,-2.4991 0.14276,-0.61825 0.28807,-1.21839 0.29887,-1.85589 0.18704,-0.63402 0.75435,-1.06018 1.35155,-1.30516 0.75871,-0.30679 1.55516,-0.45188 2.36279,-0.57831 0.45232,5.4e-4 0.91496,-0.0203 1.35514,0.10275 0.5979,0.17729 1.15304,0.43693 1.58321,0.90494 0.29337,0.28632 0.62112,0.53481 0.58739,0.98007 -0.0366,0.61497 -0.41475,1.2223 -1.08153,1.26298 -1.37452,0.0441 -2.70027,-0.45732 -4.04837,-0.66001 0,0 0.3741,-0.35806 0.3741,-0.35806 z"
       inkscape:connector-curvature="0" />
    <path
       style="fill:#000000;stroke-width:0.53731978"
       id="path386"
       d="m 243.72833,253.05107 c -1.85318,-0.98178 -3.82043,-1.63773 -5.92159,-1.70124 -1.1726,0.0408 -2.55885,0.29378 -3.41618,1.18687 -0.9426,0.94537 -1.37356,2.15183 -1.60938,3.43496 -0.1119,0.79988 -0.18013,1.63666 0.72833,1.90619 1.59976,0.16896 3.01044,-0.73705 4.31758,-1.53802 1.71222,-1.06159 3.15119,-2.4328 4.44939,-3.95771 1.11317,-1.3298 1.71389,-2.92066 2.25471,-4.5394 0.27469,-0.92567 0.5852,-1.8466 0.74356,-2.80129 0.10987,-0.31076 0.34398,-0.53398 0.47601,-0.83491 0.0774,-0.1651 -0.20948,-0.12977 -0.19415,-0.13505 0.30913,-0.10641 0.31254,-0.23856 0.18684,0.0695 -0.28659,0.50508 -0.50789,1.04276 -0.7549,1.56929 -0.64198,1.14668 -1.12344,2.37343 -1.69585,3.5548 -0.66056,1.56283 -1.33366,3.11935 -1.96514,4.69439 -0.45454,1.19188 -0.89697,2.37725 -1.16764,3.62569 -0.14601,0.75346 -0.17505,1.52153 -0.1848,2.28676 0.0353,0.5824 -0.0757,1.18732 0.0654,1.75719 0.19598,0.58024 0.52194,1.09489 0.71871,1.67459 0.21786,0.44454 0.39308,0.95779 0.88889,1.12925 1.05029,0.16612 2.10512,0.0963 3.15115,-0.0522 0,0 -0.36071,0.37089 -0.36071,0.37089 v 0 c -1.0519,0.14621 -2.11757,0.21616 -3.17161,0.0367 -0.50559,-0.19333 -0.69368,-0.70116 -0.91817,-1.16558 -0.19476,-0.58191 -0.52298,-1.09642 -0.72175,-1.67697 -0.15333,-0.57141 -0.0361,-1.18216 -0.0731,-1.76859 0.008,-0.76824 0.0372,-1.5393 0.18013,-2.29621 0.26927,-1.25183 0.70813,-2.44037 1.16518,-3.63459 0.63067,-1.57601 1.30645,-3.13182 1.96262,-4.69715 0.57458,-1.17931 1.05044,-2.40802 1.69382,-3.55267 0.24837,-0.52529 0.45998,-1.06666 0.75506,-1.56496 0.13728,-0.37528 0.65407,-1.11986 0.87447,-0.51467 -0.12713,0.30633 -0.34146,0.52943 -0.48425,0.82532 -0.15536,0.95853 -0.46845,1.88184 -0.74297,2.81095 -0.54205,1.62189 -1.13283,3.22053 -2.24519,4.55662 -1.50786,1.78259 -3.27432,3.33162 -5.22813,4.61223 -1.31905,0.80233 -2.74264,1.70763 -4.35364,1.51182 -0.92439,-0.30938 -0.89378,-1.11977 -0.77407,-1.96546 0.23077,-1.28967 0.65474,-2.5053 1.59084,-3.46453 1.25379,-1.06966 2.50444,-1.8808 4.22434,-1.817 2.10691,0.0764 4.07922,0.7363 5.93999,1.71747 0,0 -0.38376,0.3467 -0.38376,0.3467 z"
       inkscape:connector-curvature="0" />
    <g
       transform="matrix(0.07417417,0,0,0.07599952,162.0557,161.21838)"
       inkscape:label="Layer 1"
       id="layer1-6">
      <path
         d="m 362.02,412.58 a 6.9369,6.9369 0 0 0 -6.6875,5.5312 h -3.3438 a 6.9375,6.9375 0 1 0 0,13.875 h 3.1875 v 11 c -18.062,1.8838 -37.426,10.18 -50.938,20.156 l 117.41,1.2188 c -13.949,-10.276 -34.378,-19.572 -52.594,-21.438 v -10.938 h 3.1875 a 6.9375,6.9375 0 0 0 0,-13.875 h -3.3438 a 6.9369,6.9369 0 0 0 -6.875,-5.5312 z m 172.09,53.344 -33.5,0.90625 c -3.4787,12.58 -6.6005,21.529 -13.156,32.875 -6.2662,10.845 -9.8797,20.551 -21.75,20.406 -4.2418,-0.0517 -8.4626,-0.90767 -12.438,-2.5 l -2.2812,-11.937 c -5.668,-14.228 -14.026,-26.486 -24.25,-36.406 h -128.03 c -5.0294,4.8837 -9.616,10.305 -13.625,16.219 -0.0678,-0.0559 -0.11934,-0.10008 -0.1875,-0.15625 -8.6934,-7.1646 -17.254,-11.457 -25.656,-12.812 -2.1006,-0.33882 -4.1676,-0.49496 -6.2188,-0.4375 -6.1534,0.17239 -11.999,2.0996 -16.875,5.4688 -13.002,8.9843 -19.406,26.434 -20.188,47.437 -1.5867,42.619 27.611,69.8 55.156,70.062 1.9445,0.0185 3.8504,-0.0725 5.7188,-0.25 8.3359,17.776 21.188,32.628 36.906,42.75 h 97.812 c 16.771,-10.799 30.292,-26.969 38.531,-46.344 4.1208,-0.30335 8.7317,-2.3122 14.5,-7.1875 13.69,-11.571 27.995,-34.511 32.656,-45.719 4.6616,-11.208 9.5611,-21.371 13.312,-31.875 3.9149,-10.962 7.353,-18.219 11.188,-28.688 1.6085,-4.3914 8.2172,-9.1834 12.375,-11.812 z M 253.36,486.83 c 1.1124,-0.0137 2.2762,0.0788 3.5312,0.28125 5.0204,0.80979 11.348,3.685 18.594,9.6562 0.75522,0.6224 1.3604,1.1615 2.0625,1.75 -7.1279,14.566 -11.188,31.153 -11.188,48.812 0,11.493 1.724,22.559 4.875,32.906 -17.602,-0.18942 -41.828,-19.028 -40.5,-54.688 0.67558,-18.146 6.7481,-30.941 13.844,-35.844 2.6609,-1.8386 5.4439,-2.834 8.7812,-2.875 z m 57.531,153.19 v 12.125 h 103.59 V 640.02 Z"
         inkscape:connector-curvature="0"
         style="color:#000000;fill:#092c70"
         id="path4596" />
    </g>
  </g>
</svg>
