<?xml version="1.0" encoding="UTF-8" standalone="no"?>
<!DOCTYPE svg PUBLIC "-//W3C//DTD SVG 1.0//EN" "http://www.w3.org/TR/2001/PR-SVG-20010719/DTD/svg10.dtd">
<svg width="35cm" height="16cm" viewBox="258 96 687 303" xmlns="http://www.w3.org/2000/svg" xmlns:xlink="http://www.w3.org/1999/xlink">
  <g>
    <rect style="fill: #ffffff" x="483" y="98" width="86.55" height="28"/>
    <rect style="fill: none; fill-opacity:0; stroke-width: 2; stroke: #000000" x="483" y="98" width="86.55" height="28"/>
    <text font-size="16" style="fill: #000000;text-anchor:middle;font-family:sans-serif;font-style:normal;font-weight:700" x="526.275" y="117">Vehicule</text>
    <rect style="fill: #ffffff" x="483" y="126" width="86.55" height="8"/>
    <rect style="fill: none; fill-opacity:0; stroke-width: 2; stroke: #000000" x="483" y="126" width="86.55" height="8"/>
    <rect style="fill: #ffffff" x="483" y="134" width="86.55" height="8"/>
    <rect style="fill: none; fill-opacity:0; stroke-width: 2; stroke: #000000" x="483" y="134" width="86.55" height="8"/>
  </g>
  <g>
    <rect style="fill: #ffffff" x="666" y="219.3" width="127.25" height="28"/>
    <rect style="fill: none; fill-opacity:0; stroke-width: 2; stroke: #000000" x="666" y="219.3" width="127.25" height="28"/>
    <text font-size="16" style="fill: #000000;text-anchor:middle;font-family:sans-serif;font-style:normal;font-weight:700" x="729.625" y="238.3">QuatreRoues</text>
    <rect style="fill: #ffffff" x="666" y="247.3" width="127.25" height="8"/>
    <rect style="fill: none; fill-opacity:0; stroke-width: 2; stroke: #000000" x="666" y="247.3" width="127.25" height="8"/>
    <rect style="fill: #ffffff" x="666" y="255.3" width="127.25" height="8"/>
    <rect style="fill: none; fill-opacity:0; stroke-width: 2; stroke: #000000" x="666" y="255.3" width="127.25" height="8"/>
  </g>
  <g>
    <rect style="fill: #ffffff" x="334" y="220.3" width="110.9" height="28"/>
    <rect style="fill: none; fill-opacity:0; stroke-width: 2; stroke: #000000" x="334" y="220.3" width="110.9" height="28"/>
    <text font-size="16" style="fill: #000000;text-anchor:middle;font-family:sans-serif;font-style:normal;font-weight:700" x="389.45" y="239.3">DeuxRoues</text>
    <rect style="fill: #ffffff" x="334" y="248.3" width="110.9" height="8"/>
    <rect style="fill: none; fill-opacity:0; stroke-width: 2; stroke: #000000" x="334" y="248.3" width="110.9" height="8"/>
    <rect style="fill: #ffffff" x="334" y="256.3" width="110.9" height="8"/>
    <rect style="fill: none; fill-opacity:0; stroke-width: 2; stroke: #000000" x="334" y="256.3" width="110.9" height="8"/>
  </g>
  <g>
    <rect style="fill: #ffffff" x="259" y="334.3" width="96.35" height="28"/>
    <rect style="fill: none; fill-opacity:0; stroke-width: 2; stroke: #000000" x="259" y="334.3" width="96.35" height="28"/>
    <text font-size="16" style="fill: #000000;text-anchor:middle;font-family:sans-serif;font-style:normal;font-weight:700" x="307.175" y="353.3">Mobilette</text>
    <rect style="fill: #ffffff" x="259" y="362.3" width="96.35" height="8"/>
    <rect style="fill: none; fill-opacity:0; stroke-width: 2; stroke: #000000" x="259" y="362.3" width="96.35" height="8"/>
    <rect style="fill: #ffffff" x="259" y="370.3" width="96.35" height="8"/>
    <rect style="fill: none; fill-opacity:0; stroke-width: 2; stroke: #000000" x="259" y="370.3" width="96.35" height="8"/>
  </g>
  <g>
    <rect style="fill: #ffffff" x="415" y="334.3" width="55.55" height="28"/>
    <rect style="fill: none; fill-opacity:0; stroke-width: 2; stroke: #000000" x="415" y="334.3" width="55.55" height="28"/>
    <text font-size="16" style="fill: #000000;text-anchor:middle;font-family:sans-serif;font-style:normal;font-weight:700" x="442.775" y="353.3">Moto</text>
    <rect style="fill: #ffffff" x="415" y="362.3" width="55.55" height="8"/>
    <rect style="fill: none; fill-opacity:0; stroke-width: 2; stroke: #000000" x="415" y="362.3" width="55.55" height="8"/>
    <rect style="fill: #ffffff" x="415" y="370.3" width="55.55" height="8"/>
    <rect style="fill: none; fill-opacity:0; stroke-width: 2; stroke: #000000" x="415" y="370.3" width="55.55" height="8"/>
  </g>
  <g>
    <rect style="fill: #ffffff" x="570" y="328.3" width="52.45" height="28"/>
    <rect style="fill: none; fill-opacity:0; stroke-width: 2; stroke: #000000" x="570" y="328.3" width="52.45" height="28"/>
    <text font-size="16" style="fill: #000000;text-anchor:middle;font-family:sans-serif;font-style:normal;font-weight:700" x="596.225" y="347.3">Auto</text>
    <rect style="fill: #ffffff" x="570" y="356.3" width="52.45" height="8"/>
    <rect style="fill: none; fill-opacity:0; stroke-width: 2; stroke: #000000" x="570" y="356.3" width="52.45" height="8"/>
    <rect style="fill: #ffffff" x="570" y="364.3" width="52.45" height="8"/>
    <rect style="fill: none; fill-opacity:0; stroke-width: 2; stroke: #000000" x="570" y="364.3" width="52.45" height="8"/>
  </g>
  <g>
    <rect style="fill: #ffffff" x="866" y="329.3" width="77.1" height="28"/>
    <rect style="fill: none; fill-opacity:0; stroke-width: 2; stroke: #000000" x="866" y="329.3" width="77.1" height="28"/>
    <text font-size="16" style="fill: #000000;text-anchor:middle;font-family:sans-serif;font-style:normal;font-weight:700" x="904.55" y="348.3">Camion</text>
    <rect style="fill: #ffffff" x="866" y="357.3" width="77.1" height="8"/>
    <rect style="fill: none; fill-opacity:0; stroke-width: 2; stroke: #000000" x="866" y="357.3" width="77.1" height="8"/>
    <rect style="fill: #ffffff" x="866" y="365.3" width="77.1" height="8"/>
    <rect style="fill: none; fill-opacity:0; stroke-width: 2; stroke: #000000" x="866" y="365.3" width="77.1" height="8"/>
  </g>
  <g>
    <rect style="fill: #ffffff" x="664" y="354.3" width="132.85" height="28"/>
    <rect style="fill: none; fill-opacity:0; stroke-width: 2; stroke: #000000" x="664" y="354.3" width="132.85" height="28"/>
    <text font-size="16" style="fill: #000000;text-anchor:middle;font-family:sans-serif;font-style:normal;font-weight:700" x="730.425" y="373.3">Fourgonnette</text>
    <rect style="fill: #ffffff" x="664" y="382.3" width="132.85" height="8"/>
    <rect style="fill: none; fill-opacity:0; stroke-width: 2; stroke: #000000" x="664" y="382.3" width="132.85" height="8"/>
    <rect style="fill: #ffffff" x="664" y="390.3" width="132.85" height="8"/>
    <rect style="fill: none; fill-opacity:0; stroke-width: 2; stroke: #000000" x="664" y="390.3" width="132.85" height="8"/>
  </g>
  <g>
    <polyline style="fill: none; fill-opacity:0; stroke-width: 2; stroke: #000000" points="526.275,161.242 526.275,188.65 729.625,188.65 729.625,218.294 "/>
    <polygon style="fill: #ffffff" points="534.275,161.242 526.275,145.242 518.275,161.242 "/>
    <polygon style="fill: none; fill-opacity:0; stroke-width: 2; stroke: #000000" points="534.275,161.242 526.275,145.242 518.275,161.242 "/>
  </g>
  <g>
    <polyline style="fill: none; fill-opacity:0; stroke-width: 2; stroke: #000000" points="526.275,161.242 526.275,189.15 389.45,189.15 389.45,219.294 "/>
    <polygon style="fill: #ffffff" points="534.275,161.242 526.275,145.242 518.275,161.242 "/>
    <polygon style="fill: none; fill-opacity:0; stroke-width: 2; stroke: #000000" points="534.275,161.242 526.275,145.242 518.275,161.242 "/>
  </g>
  <g>
    <polyline style="fill: none; fill-opacity:0; stroke-width: 2; stroke: #000000" points="729.625,282.542 729.625,303.8 596.225,303.8 596.225,327.294 "/>
    <polygon style="fill: #ffffff" points="737.625,282.542 729.625,266.542 721.625,282.542 "/>
    <polygon style="fill: none; fill-opacity:0; stroke-width: 2; stroke: #000000" points="737.625,282.542 729.625,266.542 721.625,282.542 "/>
  </g>
  <g>
    <polyline style="fill: none; fill-opacity:0; stroke-width: 2; stroke: #000000" points="729.625,282.542 729.625,304.3 904.55,304.3 904.55,328.294 "/>
    <polygon style="fill: #ffffff" points="737.625,282.542 729.625,266.542 721.625,282.542 "/>
    <polygon style="fill: none; fill-opacity:0; stroke-width: 2; stroke: #000000" points="737.625,282.542 729.625,266.542 721.625,282.542 "/>
  </g>
  <g>
    <polyline style="fill: none; fill-opacity:0; stroke-width: 2; stroke: #000000" points="729.625,282.542 729.625,316.8 730.425,316.8 730.425,353.294 "/>
    <polygon style="fill: #ffffff" points="737.625,282.542 729.625,266.542 721.625,282.542 "/>
    <polygon style="fill: none; fill-opacity:0; stroke-width: 2; stroke: #000000" points="737.625,282.542 729.625,266.542 721.625,282.542 "/>
  </g>
  <g>
    <polyline style="fill: none; fill-opacity:0; stroke-width: 2; stroke: #000000" points="389.45,283.542 389.45,307.3 442.775,307.3 442.775,333.294 "/>
    <polygon style="fill: #ffffff" points="397.45,283.542 389.45,267.542 381.45,283.542 "/>
    <polygon style="fill: none; fill-opacity:0; stroke-width: 2; stroke: #000000" points="397.45,283.542 389.45,267.542 381.45,283.542 "/>
  </g>
  <g>
    <polyline style="fill: none; fill-opacity:0; stroke-width: 2; stroke: #000000" points="389.45,283.542 389.45,307.3 307.175,307.3 307.175,333.294 "/>
    <polygon style="fill: #ffffff" points="397.45,283.542 389.45,267.542 381.45,283.542 "/>
    <polygon style="fill: none; fill-opacity:0; stroke-width: 2; stroke: #000000" points="397.45,283.542 389.45,267.542 381.45,283.542 "/>
  </g>
</svg>
