<?xml version="1.0" encoding="UTF-8" standalone="no"?>
<!-- Created with Inkscape (http://www.inkscape.org/) -->

<svg
   xmlns:dc="http://purl.org/dc/elements/1.1/"
   xmlns:cc="http://creativecommons.org/ns#"
   xmlns:rdf="http://www.w3.org/1999/02/22-rdf-syntax-ns#"
   xmlns:svg="http://www.w3.org/2000/svg"
   xmlns="http://www.w3.org/2000/svg"
   xmlns:sodipodi="http://sodipodi.sourceforge.net/DTD/sodipodi-0.dtd"
   xmlns:inkscape="http://www.inkscape.org/namespaces/inkscape"
   width="297mm"
   height="210mm"
   viewBox="0 0 297 210"
   version="1.1"
   id="svg8"
   inkscape:version="0.92.4 (unknown)"
   sodipodi:docname="collides.svg">
  <defs
     id="defs2" />
  <sodipodi:namedview
     id="base"
     pagecolor="#ffffff"
     bordercolor="#666666"
     borderopacity="1.0"
     inkscape:pageopacity="0.0"
     inkscape:pageshadow="2"
     inkscape:zoom="4.7961538"
     inkscape:cx="639.73192"
     inkscape:cy="373.65463"
     inkscape:document-units="mm"
     inkscape:current-layer="layer1"
     showgrid="false"
     showguides="true"
     inkscape:window-width="2554"
     inkscape:window-height="1434"
     inkscape:window-x="0"
     inkscape:window-y="0"
     inkscape:window-maximized="0"
     inkscape:snap-global="false" />
  <metadata
     id="metadata5">
    <rdf:RDF>
      <cc:Work
         rdf:about="">
        <dc:format>image/svg+xml</dc:format>
        <dc:type
           rdf:resource="http://purl.org/dc/dcmitype/StillImage" />
        <dc:title />
      </cc:Work>
    </rdf:RDF>
  </metadata>
  <g
     inkscape:label="Calque 1"
     inkscape:groupmode="layer"
     id="layer1"
     transform="translate(0,-87)">
    <path
       style="fill:#000000;stroke-width:0.53117466"
       id="path30"
       d="m 286.31572,141.04813 c -2.6131,-0.0367 -5.22037,-0.002 -7.82934,0.14535 -3.72887,0.26566 -7.46052,0.29297 -11.195,0.1857 -4.55383,-0.14434 -9.10731,-0.23318 -13.65849,-0.44765 -4.53462,-0.23557 -9.07437,-0.32519 -13.61421,-0.37572 -5.05129,-0.0121 -10.09956,-0.0219 -15.14848,-0.1839 -5.41409,-0.20134 -10.83117,-0.28429 -16.24843,-0.33257 -5.3606,-0.0121 -10.72245,-0.098 -16.08207,0.0261 -5.56044,0.20203 -11.12263,0.32859 -16.68616,0.39945 -5.39157,-0.0753 -10.78052,-0.26401 -16.1718,-0.36102 -5.18632,-0.0817 -10.37341,-0.0907 -15.56026,-0.0978 -4.90183,-0.004 -9.80368,-0.001 -14.70551,1.8e-4 -4.42559,0.0875 -8.84522,-0.14896 -13.26599,-0.30991 -3.86156,-0.13913 -7.72559,-0.17607 -11.58925,-0.19735 -3.60732,-0.097 -7.208113,0.12427 -10.808825,0.30383 -2.668328,0.0592 -5.326255,0.22319 -7.985789,0.43728 -2.139629,0.17686 -4.287328,0.15598 -6.418344,0.42526 -0.868222,0.12427 -1.73538,0.25469 -2.606654,0.35629 -0.11644,0.012 -0.233402,0.0287 -0.350224,0.0323 0.67985,-0.26667 0.875349,-0.099 0.93648,0.53804 0.02409,1.4409 0.006,2.88245 0.0016,4.32354 0.09637,2.67704 0.404228,5.33752 0.646183,8.00336 0.288772,2.95846 0.271105,5.93294 0.423401,8.89841 0.155186,3.29213 0.411415,6.57635 0.65068,9.86295 0.345947,3.39961 0.591235,6.80743 0.893578,10.2109 0.416715,3.49975 0.952922,6.98412 1.394692,10.48138 0.349341,3.46739 0.69051,6.93665 0.919376,10.41451 0.300074,3.33409 0.508261,6.67427 0.80422,10.00856 0.229989,3.03481 0.372408,6.07223 0.730903,9.09585 0.369216,3.01331 0.681596,6.03387 1.069443,9.04479 0.354701,2.60292 0.536508,5.22298 0.821967,7.83341 0.295256,2.32019 0.291221,4.66152 0.464375,6.98998 0.187309,2.07067 0.31997,4.14299 0.575115,6.20653 0.245628,1.9003 0.33876,3.8147 0.395635,5.72843 0.03835,1.79949 0.281685,3.58708 0.408183,5.38219 0.101785,1.62992 0.126077,3.26303 0.139126,4.89561 0.006,1.18255 0.004,2.36514 0.004,3.54771 0.02008,1.047 0.02329,2.07988 -0.146754,3.11423 -0.163217,0.85108 -0.278533,1.70808 -0.337536,2.57241 0.0263,0.12928 -0.16402,1.01212 0.0791,0.88677 0.258718,-0.1582 0.567003,-0.2166 0.863203,-0.26011 0.789384,-0.0618 1.581418,-0.063 2.368433,0.0181 1.78286,0.30293 3.590534,0.15439 5.385981,0.0857 2.524243,0.04 5.042382,0.20218 7.555062,0.43765 3.11526,0.3064 6.24617,0.37044 9.37382,0.42045 3.70952,0.0434 7.41936,0.0385 11.12907,0.0381 4.18209,-0.0775 8.35841,0.16141 12.53613,0.30892 4.4771,0.12588 8.95371,0.15519 13.42878,0.34559 4.28494,0.20766 8.57387,0.2958 12.86313,0.3451 4.01953,0.0359 8.03927,0.0339 12.05893,0.0341 3.88731,0.12728 7.77166,0.31857 11.65991,0.42019 3.72876,0.006 7.44917,0.25334 11.17324,0.40734 3.84024,0.13371 7.67215,0.4221 11.51206,0.57277 3.45649,0.15538 6.91868,0.064 10.3746,0.21065 2.65173,0.16422 5.30361,0.31626 7.95931,0.39602 2.20189,-0.0223 4.39054,0.21812 6.58405,0.37152 2.25888,0.15017 4.50581,0.42527 6.76592,0.57112 2.07807,0.26848 4.17099,0.39777 6.25161,0.63595 2.33818,0.29551 4.69132,0.41938 7.03684,0.6415 2.43876,0.16884 4.86317,0.48078 7.29677,0.70615 1.49826,0.12768 3.00094,0.19333 4.50396,0.22839 0.33208,0.01 0.66422,0.006 0.99633,0.004 0.32168,0.002 0.59226,0.24432 0.88121,0.37982 0.62753,0.0885 -0.3759,0.31169 0.0201,0.004 0.19333,-0.15057 0.40682,-0.27305 0.61022,-0.40957 0.5106,-0.0426 1.0091,0.25685 1.51592,0.36617 1.04942,0.14735 2.11216,0.15739 3.16998,0.17205 1.1841,-0.061 2.34516,0.0741 3.51378,0.24227 1.09558,0.15961 2.20183,0.22246 3.30729,0.26107 0.66619,0.0219 1.33287,0.0201 1.99935,0.0201 0.37279,-5.5e-4 0.74558,-0.002 1.11837,-0.004 0.18329,0.004 0.33392,-0.0526 -0.30499,0.0871 -0.3283,-0.71151 -0.37293,-1.47841 -0.42788,-2.25235 -0.12347,-1.93452 -0.0883,-3.8654 0.0552,-5.79658 0.12286,-2.36142 0.34942,-4.71165 0.5717,-7.06502 0.23188,-2.48928 0.27512,-4.99007 0.30638,-7.48819 0.24027,-2.89954 0.28538,-5.79421 0.2078,-8.70063 -0.0663,-2.90035 -0.37746,-5.78913 -0.69444,-8.67084 -0.31756,-2.8181 -0.43499,-5.65159 -0.50134,-8.4849 -0.0454,-2.61151 -0.0403,-5.22353 -0.0393,-7.83532 0.002,-2.33617 0.004,-4.67236 0.004,-7.00855 10e-4,-2.2118 5.4e-4,-4.42363 10e-4,-6.63543 4.3e-4,-2.34059 2.5e-4,-4.68117 2e-5,-7.02174 -0.0713,-2.0951 0.043,-4.17637 0.2322,-6.26113 0.20761,-1.95122 0.17828,-3.91615 0.3282,-5.87021 0.2415,-1.85835 0.27974,-3.73496 0.47863,-5.59622 0.23338,-1.6027 0.37544,-3.21445 0.45615,-4.83134 0.11644,-1.48327 0.4394,-2.93148 0.71456,-4.38926 0.26584,-1.45558 0.32141,-2.93646 0.36068,-4.41201 -0.054,-1.42246 0.16924,-2.82583 0.32888,-4.23413 0.12407,-1.42912 0.15459,-2.85634 0.3416,-4.2793 0.19734,-1.31055 0.29694,-2.63066 0.34667,-3.95403 0.0309,-1.01477 0.0343,-2.03011 0.0341,-3.04527 -0.012,-0.80291 0.24221,-1.57935 0.36935,-2.36751 0.10861,-0.68236 0.12889,-1.37411 0.14234,-2.06364 0.006,-0.46118 0.004,-0.92247 0.004,-1.38369 -0.002,-0.25185 -0.002,-0.5037 -0.002,-0.75558 -4.2e-4,-0.19533 -2.4e-4,-0.39077 0,-0.58615 2.6e-4,-0.4236 2.4e-4,-0.8472 4.2e-4,-1.27081 5.4e-4,-0.65577 1.8e-4,-1.31157 2.4e-4,-1.96735 4e-5,-0.62095 10e-5,-1.24188 -1.8e-4,-1.86281 -4.6e-4,-0.33944 -2.4e-4,-0.6789 -5.2e-4,-1.01836 3.8e-4,-0.3439 1e-4,-0.68778 3e-4,-1.03168 4e-5,-0.40496 10e-5,-0.80991 0,-1.21486 3.8e-4,-0.44737 -8e-5,-0.89472 10e-5,-1.34209 -4e-5,-0.41585 2e-5,-0.83173 -10e-5,-1.24758 1.6e-4,-0.371 -4e-5,-0.742 -1.2e-4,-1.113 -0.01,-0.31933 0.19072,-0.59997 0.36572,-0.85313 0.11805,-0.14977 0.1319,-0.35135 0.14896,-0.5351 0.012,-0.19855 0.006,-0.39773 0.004,-0.59644 -10e-4,-0.30342 -0.002,-0.60685 -0.002,-0.91028 0.0303,-0.12808 -0.0217,-0.14053 -0.0375,-0.15679 -0.0317,-0.0249 -0.0634,-0.0498 -0.095,-0.0745 0,0 0.38773,-0.34083 0.38773,-0.34083 v 0 c 0.0253,0.0181 0.0506,0.0355 0.0759,0.0532 0.12347,0.0492 0.0859,0.0861 0.0867,0.21537 4e-5,0.30351 4.6e-4,0.60704 0.002,0.91057 5.4e-4,0.19975 0.006,0.39999 -0.002,0.59966 -0.014,0.18631 -0.0221,0.40411 -0.13411,0.55789 -0.17385,0.243 -0.38608,0.51929 -0.38395,0.82725 -6e-5,0.37106 -2.6e-4,0.74212 -1.2e-4,1.11319 -10e-5,0.41589 -4e-5,0.8318 -8e-5,1.24769 1.6e-4,0.44734 -3e-4,0.89465 8e-5,1.34198 -10e-5,0.40495 -2e-5,0.8099 0,1.21485 2e-4,0.34374 -6e-5,0.68748 3.2e-4,1.03122 -3.6e-4,0.33974 -1.6e-4,0.67951 -5.4e-4,1.01925 -2.8e-4,0.62101 -2.2e-4,1.24204 -1.8e-4,1.86304 6e-5,0.65568 -3.8e-4,1.31136 2.4e-4,1.96704 1.8e-4,0.4234 1.2e-4,0.8468 3.8e-4,1.2702 2.4e-4,0.19534 2.8e-4,0.39054 3.6e-4,0.58582 10e-5,0.25201 5.3e-4,0.504 0.002,0.75601 10e-4,0.46175 0.004,0.92354 -0.004,1.38526 -0.0141,0.69148 -0.0315,1.38542 -0.13913,2.06997 -0.12387,0.78693 -0.38026,1.56058 -0.37389,2.36078 -2.9e-4,1.01618 -0.006,2.03248 -0.0351,3.0483 -0.0488,1.32479 -0.14615,2.64647 -0.34448,3.95837 -0.18811,1.4227 -0.22228,2.84885 -0.34177,4.27827 -0.1592,1.40726 -0.38684,2.80928 -0.33172,4.23072 -0.0389,1.47762 -0.0923,2.96077 -0.35614,4.41878 -0.27273,1.45657 -0.60017,2.90199 -0.71856,4.38357 -0.0805,1.61796 -0.21991,3.23118 -0.45572,4.83468 -0.20267,1.86067 -0.23551,3.73767 -0.48034,5.59555 -0.15318,1.95391 -0.11965,3.91914 -0.32739,5.87045 -0.18992,2.0839 -0.30923,4.1639 -0.23622,6.25834 -2.2e-4,2.34057 -3.4e-4,4.68114 4e-5,7.02171 3.4e-4,2.21182 -2.2e-4,4.42362 -10e-4,6.63544 -0.001,2.33647 -0.004,4.67297 -0.006,7.00944 -0.002,2.61157 -0.006,5.22334 0.0383,7.83464 0.0648,2.83234 0.18068,5.66501 0.49762,8.4822 0.3175,2.8828 0.63043,5.77254 0.69714,8.67403 0.0785,2.90673 0.0369,5.8019 -0.20594,8.70172 -0.0299,2.4989 -0.0717,5.00052 -0.30269,7.49064 -0.22177,2.35301 -0.45094,4.70257 -0.57164,7.06376 -0.14454,1.92845 -0.18088,3.85628 -0.0562,5.78816 0.0548,0.77401 0.094,1.54233 0.43167,2.25083 -0.38311,0.59166 -0.15538,0.58348 -0.47517,0.58306 -0.37223,5.5e-4 -0.74446,0.002 -1.1167,0.002 -0.66668,5.4e-4 -1.33359,0.002 -1.99997,-0.0213 -1.10642,-0.0408 -2.21358,-0.1054 -3.31007,-0.26599 -1.16713,-0.16783 -2.32728,-0.29525 -3.50951,-0.23725 -1.06075,-0.0161 -2.1268,-0.0257 -3.17857,-0.17808 -0.49499,-0.10981 -0.99412,-0.41336 -1.49537,-0.34438 0.18891,-0.26032 0.25173,-0.33528 0.0697,-0.11543 -0.3851,0.46475 -0.32381,0.68748 -0.72932,0.49224 -0.28263,-0.13431 -0.546,-0.36978 -0.86515,-0.3633 -0.33199,0.002 -0.66399,0.004 -0.99588,-0.006 -1.50226,-0.0395 -3.0042,-0.1066 -4.5017,-0.23551 -2.43296,-0.22766 -4.85724,-0.53735 -7.29548,-0.70753 -2.34635,-0.22174 -4.70051,-0.34362 -7.03939,-0.64032 -2.08021,-0.23483 -4.17151,-0.37071 -6.24921,-0.63488 -2.26,-0.14716 -4.50711,-0.4221 -6.76615,-0.57126 -2.19289,-0.15399 -4.38119,-0.39084 -6.58247,-0.37026 -2.65487,-0.0813 -5.3058,-0.23594 -7.95676,-0.39937 -3.45538,-0.14535 -6.91693,-0.0562 -10.37279,-0.21229 -3.83966,-0.15197 -7.6714,-0.44066 -11.5115,-0.57344 -3.7241,-0.15399 -7.44466,-0.39986 -11.17342,-0.40608 -3.88755,-0.10279 -7.77115,-0.29608 -11.65791,-0.42039 -4.01959,2e-5 -8.03927,0.002 -12.05874,-0.0351 -4.28926,-0.05 -8.57821,-0.13913 -12.86317,-0.34723 -4.47512,-0.19032 -8.95186,-0.21777 -13.42899,-0.34489 -4.17787,-0.14756 -8.35446,-0.38447 -12.53671,-0.30585 -3.71023,4.4e-4 -7.42061,0.006 -11.13066,-0.0377 -3.12945,-0.0498 -6.26219,-0.11363 -9.37925,-0.42053 -2.51158,-0.23446 -5.028956,-0.39609 -7.552114,-0.43119 -1.798359,0.0693 -3.6081,0.21381 -5.394112,-0.0875 -0.784947,-0.0761 -1.575817,-0.0769 -2.362109,-0.006 -0.29887,0.0474 -0.58993,0.12307 -0.859871,0.26446 -0.365341,0.0295 -0.101785,-0.74727 -0.141133,-0.96198 0.05722,-0.86605 0.171247,-1.72484 0.335809,-2.57732 0.173054,-1.0322 0.173456,-2.06187 0.151774,-3.10749 0.0016,-1.18279 0.004,-2.36558 -0.0016,-3.54837 -0.01205,-1.63201 -0.03513,-3.2646 -0.135914,-4.89402 -0.125675,-1.79577 -0.369557,-3.58383 -0.409609,-5.38373 -0.05521,-1.91264 -0.146754,-3.82597 -0.391981,-5.72519 -0.255848,-2.06454 -0.388489,-4.13766 -0.575255,-6.20949 -0.175263,-2.3279 -0.168437,-4.66899 -0.46295,-6.98886 -0.28574,-2.61063 -0.46554,-5.23096 -0.819297,-7.83422 -0.388188,-3.011 -0.699966,-6.03178 -1.069764,-9.04515 -0.360463,-3.02413 -0.502119,-6.06218 -0.730823,-9.09779 -0.295738,-3.33475 -0.503243,-6.67542 -0.804361,-10.00987 -0.22738,-3.4773 -0.569051,-6.94577 -0.916806,-10.41266 -0.44169,-3.4977 -0.977234,-6.98256 -1.396399,-10.48243 -0.302323,-3.40364 -0.547188,-6.81169 -0.89432,-10.21136 -0.238763,-3.28676 -0.496839,-6.57094 -0.652086,-9.8632 -0.154985,-2.96467 -0.13511,-5.93853 -0.422818,-8.89642 -0.242035,-2.66642 -0.551103,-5.32715 -0.652587,-8.00452 0.004,-1.43843 0.01807,-2.87727 -0.004,-4.31555 -0.054,-0.72111 -0.520548,-0.4015 -0.156391,-1.20973 0.114633,-0.0121 0.229788,-0.0221 0.344321,-0.0355 0.869808,-0.10038 1.735361,-0.23097 2.602378,-0.35255 2.131076,-0.26305 4.278414,-0.24236 6.41732,-0.42101 2.659092,-0.21351 5.316779,-0.37375 7.984544,-0.43382 3.600772,-0.17747 7.201644,-0.39582 10.808904,-0.3 3.86346,0.0215 7.72727,0.0598 11.58859,0.20016 4.41978,0.16141 8.83845,0.39696 13.26309,0.31023 4.90135,-0.001 9.80272,-0.002 14.70409,0.001 5.18697,0.008 10.37416,0.0161 15.56058,0.0986 5.3905,0.0976 10.77865,0.28761 16.16947,0.36123 5.56371,-0.0711 11.12606,-0.19896 16.6867,-0.40072 5.35992,-0.12246 10.72204,-0.0369 16.08294,-0.0249 5.41764,0.0488 10.83506,0.1319 16.24953,0.33308 5.04957,0.1606 10.09848,0.16863 15.15037,0.18068 4.54015,0.0504 9.08015,0.14113 13.61503,0.37737 4.55145,0.21372 9.10516,0.30194 13.65922,0.44566 3.73492,0.105 7.46695,0.0739 11.19608,-0.19273 2.61162,-0.14715 5.2216,-0.17887 7.83729,-0.14916 0,0 -0.36165,0.36165 -0.36165,0.36165 z"
       inkscape:connector-curvature="0" />
    <path
       style="fill:#000000;stroke-width:0.53117466"
       id="path112"
       d="m 3.7167014,122.06097 c 1.9181894,2.33276 3.5274951,4.8934 5.1748687,7.41857 1.8538839,2.59479 3.4260619,5.36827 5.0219289,8.12371 0.745201,1.38875 1.49882,2.78533 2.087903,4.24962 0.11373,0.30542 0.232197,0.61137 0.302222,0.93038 0.0011,0.006 0.0016,0.014 0.0026,0.0201 -0.21903,0.0249 -0.44182,0.12187 -0.657084,0.0745 -0.251866,-0.0554 -1.666486,-1.71617 -1.83702,-1.90402 -2.002746,-2.37231 -3.413848,-5.14369 -4.6603361,-7.96674 -0.667128,-1.7729 -1.429773,-3.51262 -1.8980874,-5.35189 -0.092891,-0.60772 -0.3328443,-1.28263 -0.056694,-1.86917 0.7119495,-0.66897 1.4666866,-0.73556 2.3921411,-0.59354 1.5162854,0.3655 2.7440274,1.29489 3.9038134,2.29235 1.279425,1.29531 2.448663,2.69416 3.541879,4.1484 0.510022,0.64875 0.939785,1.36094 1.262368,2.12072 -0.07755,0.006 0.150811,0.20232 0.07529,0.22075 -0.8671,0.21162 -0.702126,-0.0426 -1.030749,-0.76883 -0.917986,-1.97502 -1.106765,-4.17032 -1.29477,-6.31152 0.01184,-1.38046 -0.343175,-2.81389 -0.127863,-4.18965 0.378404,-0.80838 1.195663,-1.26057 2.033342,-1.46103 1.656462,-0.10841 3.139151,0.71169 4.500393,1.55649 1.874033,1.41601 3.549326,3.0861 5.023718,4.91082 1.129835,1.50816 2.096212,3.12429 2.951806,4.80077 0.127,0.75804 0.882143,1.23965 1.152989,1.90309 0,0 -0.406412,0.31827 -0.406412,0.31827 v 0 c -0.194295,-0.57058 -1.086741,-1.22758 -1.144539,-1.90254 -0.851642,-1.67479 -1.815931,-3.28827 -2.942717,-4.79454 -1.469252,-1.82157 -3.141634,-3.48732 -5.012818,-4.89766 -1.35288,-0.83541 -2.830986,-1.65393 -4.476129,-1.52339 -0.807603,0.20662 -0.813244,0.0524 -1.258943,0.79456 -0.24229,1.36791 0.138965,2.80912 0.113529,4.18414 0.185903,2.13507 0.371338,4.32565 1.289298,6.29405 0.326534,0.72042 0.554436,0.64287 0.219104,1.40068 -0.0305,0.0689 -0.03792,-0.28354 -0.06926,-0.21506 -0.315874,-0.75855 -0.743745,-1.46779 -1.250049,-2.11443 -1.090009,-1.45205 -2.255316,-2.84955 -3.533582,-4.14096 -1.154302,-0.99024 -2.376677,-1.91558 -3.8878592,-2.26791 -0.4790027,-0.0673 -0.9804102,-0.0948 -1.4550044,0.0335 -0.091024,0.0245 -0.1840959,0.14495 -0.2655538,0.0976 -0.063038,-0.0367 0.084861,-0.11885 0.1273012,-0.17828 -0.3050371,0.56582 -0.052579,1.24312 0.032724,1.84116 0.4611553,1.83954 1.2213792,3.57875 1.8851445,5.35117 1.2415637,2.8193 2.6501227,5.58622 4.6545517,7.95038 0.108611,0.11905 1.823725,1.79986 1.839261,1.89791 0.02975,0.18771 -0.166087,0.771 -0.149063,0.55052 -0.06045,-0.31788 -0.183574,-0.62034 -0.292211,-0.92395 -0.583367,-1.46468 -1.335649,-2.86025 -2.077084,-4.2489 -1.592924,-2.75636 -3.16281,-5.53043 -5.0167532,-8.12443 -1.6473595,-2.52344 -3.255278,-5.08418 -5.181291,-7.40899 0,0 0.3935839,-0.32662 0.3935839,-0.32662 z"
       inkscape:connector-curvature="0" />
    <path
       style="fill:#000000;stroke-width:0.53117466"
       id="path114"
       d="m 38.098618,117.19124 c -1.625308,-0.1333 -3.171101,-0.002 -4.608756,0.7917 -0.888742,0.49115 -1.214825,1.42207 -1.55373,2.32761 -0.516163,1.46552 -0.417938,3.02544 -0.240844,4.54232 0.279637,1.70167 1.239369,3.07215 2.613012,4.06799 1.342772,0.70704 2.164755,1.13315 3.523871,0.25222 1.146982,-1.75201 1.089838,-3.78399 0.836017,-5.77626 -0.35269,-1.81466 -0.987407,-3.13644 -2.621794,-4.04654 -0.779972,-0.34996 -1.625416,-0.48575 -2.470021,-0.56124 0,0 0.366931,-0.36022 0.366931,-0.36022 v 0 c 0.849443,0.0815 1.69946,0.22212 2.482316,0.57911 1.643674,0.92564 2.290443,2.25472 2.648008,4.08633 0.213829,1.65206 0.43586,4.10684 -0.654827,5.54279 -0.262948,0.34619 -0.618085,0.61149 -0.927129,0.91723 -1.397583,0.86087 -2.20404,0.42107 -3.566003,-0.29612 -1.381032,-1.00725 -2.352148,-2.38727 -2.638695,-4.10122 -0.181867,-1.52122 -0.283371,-3.0878 0.224543,-4.5605 0.502002,-1.34527 0.983082,-2.23851 2.321117,-2.99234 1.448385,-0.77997 3.004074,-0.90446 4.632008,-0.77085 0,0 -0.366024,0.35799 -0.366024,0.35799 z"
       inkscape:connector-curvature="0" />
    <path
       style="fill:#000000;stroke-width:0.53117466"
       id="path116"
       d="m 38.311642,118.44185 c 1.12918,1.93941 2.327755,3.83729 3.475948,5.76511 0.579453,0.95787 1.166821,1.91111 1.772786,2.85249 0.0064,0.0409 0.06051,0.11684 0.01947,0.12286 -0.219475,0.0319 -0.476888,0.0891 -0.664745,-0.0289 -0.359487,-0.22561 -1.004302,-2.76027 -1.106185,-3.18277 -0.385761,-1.99183 -0.602518,-4.01855 -0.285692,-6.03184 0.229164,-1.18855 0.62714,-1.52966 1.630901,-2.0779 1.349104,0.0295 2.435124,0.85853 3.492649,1.60081 1.871319,1.26326 3.342906,2.91288 4.590498,4.77469 0.57455,1.00111 1.144382,2.00264 1.618201,3.05608 0.08189,0.11965 0.07434,0.33597 0.214266,0.39758 0,0 -0.383265,0.34613 -0.383265,0.34613 v 0 c -0.147457,-0.0948 -0.156692,-0.2692 -0.234241,-0.424 -0.468252,-1.05345 -1.036344,-2.05325 -1.607563,-3.05355 -1.241893,-1.85888 -2.709937,-3.50294 -4.578848,-4.75991 -1.045209,-0.73133 -2.129444,-1.56411 -3.466039,-1.56558 0.01807,-0.0775 0.10847,-0.17446 0.05409,-0.23242 -0.172151,-0.18369 -1.082189,1.56381 -0.913287,1.6449 -0.329439,2.00683 -0.110497,4.02989 0.271814,6.01705 0.191142,0.79502 0.248887,1.14095 0.525571,1.89723 0.089,0.2433 0.197707,0.47903 0.304411,0.7151 0.08406,0.1859 0.247076,0.34762 0.267637,0.55068 0.01947,0.19213 -0.162394,0.96849 -0.148561,0.55986 -0.602209,-0.94483 -1.188313,-1.89984 -1.767749,-2.85877 -1.145691,-1.92861 -2.343086,-3.8266 -3.478663,-5.76146 0,0 0.396596,-0.32346 0.396598,-0.32346 z"
       inkscape:connector-curvature="0" />
    <path
       style="fill:#000000;stroke-width:0.53117466"
       id="path118"
       d="m 61.893794,114.15169 c -1.655729,0.12186 -3.363874,0.31893 -4.734365,1.31395 -0.723007,1.09297 -0.866743,2.17167 -0.718115,3.45261 0.168216,1.35691 0.831776,2.50447 1.730311,3.50555 0.809904,0.661 1.597981,1.27685 2.661971,0.88623 0.150088,-0.11824 0.340325,-0.19835 0.45024,-0.35454 0.06222,-0.0883 0.0016,-0.21806 0.02662,-0.32324 0.07771,-0.3274 0.221393,-0.63849 0.280354,-0.9698 0.2671,-1.50088 0.0478,-2.97668 -0.160668,-4.46506 -0.773098,-3.50144 -2.619976,-6.55233 -4.706552,-9.41267 -0.999697,-1.15693 -1.896744,-2.41927 -2.926933,-3.54834 -0.190901,-0.17867 -0.386922,-0.37497 -0.639327,-0.46002 -0.2187,0.0887 0.417027,-0.24745 0.650997,-0.27831 0.29934,-0.0396 0.982531,0.79453 1.122925,0.92839 2.160458,2.29711 4.208105,4.69785 6.228852,7.11777 2.565233,3.07324 5.111782,6.16057 7.764032,9.15963 0.686628,0.73406 1.337593,1.50096 1.950544,2.29745 0.233202,0.30306 0.410231,0.64855 0.724117,0.86906 0.03172,0.0121 0.06344,0.0237 0.09516,0.0355 0,0 -0.378972,0.35056 -0.378972,0.35056 v 0 c -0.03413,-0.0161 -0.06826,-0.0303 -0.102388,-0.0454 -0.315673,-0.2325 -0.491859,-0.57168 -0.729839,-0.88314 -0.609622,-0.79783 -1.258638,-1.56512 -1.942844,-2.30009 -2.648213,-3.00312 -5.19323,-6.09229 -7.760781,-9.16413 -2.021498,-2.41687 -4.069771,-4.81488 -6.235602,-7.10446 -0.267718,-0.2536 -0.508739,-0.54026 -0.808306,-0.7553 -0.09078,-0.0652 -0.256907,-0.0478 -0.299237,-0.15117 -0.05607,-0.13691 0.03808,-0.29359 0.05714,-0.44036 0.01325,0.002 0.02656,0.004 0.03963,0.008 0.25497,0.10439 0.46141,0.29198 0.656144,0.48351 1.028036,1.13358 1.922492,2.39987 2.922534,3.5592 2.087851,2.8688 3.937949,5.92666 4.720003,9.43336 0.20251,1.41942 0.638595,4.10845 -0.09225,5.45889 -0.411919,0.76114 -0.683813,0.90316 -1.25601,1.32851 -1.080447,0.34898 -1.888586,-0.25356 -2.702065,-0.93086 -0.904048,-1.0089 -1.576797,-2.164 -1.749381,-3.53039 -0.202143,-1.66519 0.08075,-3.05671 1.465719,-4.14043 1.387358,-0.97555 3.097997,-1.17412 4.758406,-1.29323 0,0 -0.362059,0.36207 -0.362059,0.36207 z"
       inkscape:connector-curvature="0" />
    <path
       style="fill:#000000;stroke-width:0.53117466"
       id="path120"
       d="m 70.475693,117.09002 c 1.192468,-0.86931 2.289435,-1.88129 3.276064,-2.97832 0.486299,-0.66525 1.03939,-1.39303 0.926282,-2.25547 -0.09215,-0.73708 -0.527434,-1.24167 -1.051435,-1.72335 -0.655879,-0.49997 -1.482785,-0.55422 -2.275402,-0.61539 -0.510449,-0.0349 -1.02229,-0.0333 -1.533603,-0.0283 -0.05424,0.0233 -0.186224,0.0161 -0.162715,0.0701 0.0256,0.059 0.182871,-0.0636 0.19309,-1e-4 0.0011,0.006 -0.496041,1.5649 -0.529922,1.71914 -0.313292,1.44707 -0.108108,2.89197 0.247795,4.30712 0.675175,2.0056 1.637155,3.20835 3.332725,4.42246 1.625083,0.99227 3.441149,1.52173 5.299393,1.85714 1.514606,0.16442 2.966174,-0.21594 4.394533,-0.66738 0.783101,-0.29745 1.546266,-0.65128 2.269078,-1.07533 0.03272,-0.0205 0.06545,-0.0409 0.09817,-0.0614 0,0 -0.344261,0.38459 -0.344261,0.38459 v 0 c -0.03293,0.0201 -0.06585,0.04 -0.09877,0.06 -0.726004,0.41828 -1.488908,0.77198 -2.274137,1.06408 -1.43394,0.45037 -2.893056,0.82243 -4.411456,0.64926 -1.863304,-0.34157 -3.684911,-0.87662 -5.313587,-1.87465 -1.703821,-1.22234 -2.672024,-2.43553 -3.356017,-4.44946 -0.361023,-1.41961 -0.572043,-2.87045 -0.264163,-4.32429 0.175343,-0.82586 0.392554,-2.10497 1.284444,-2.4462 0.511921,-0.004 1.024398,-0.004 1.53531,0.0331 0.803497,0.065 1.637671,0.12809 2.29891,0.6402 0.530867,0.48951 0.975388,1.004 1.074161,1.75044 0.130694,0.87665 -0.409428,1.61318 -0.904379,2.29445 -1.205999,1.3543 -2.602819,2.54268 -4.049147,3.63157 0,0 0.339062,-0.38397 0.339062,-0.38397 z"
       inkscape:connector-curvature="0" />
    <path
       style="fill:#000000;stroke-width:0.53117466"
       id="path122"
       d="m 81.562545,102.70218 c 0.06685,-1.57451 0.47353,-3.129949 1.311176,-4.469072 0.631488,-0.855715 1.42306,-1.598763 2.443076,-1.935416 0.588384,-0.166831 1.046516,-0.06705 1.421875,0.422577 0.658409,1.07914 0.84365,2.415231 1.059907,3.644401 0.315553,2.25305 0.340989,4.53227 0.373311,6.80298 0.02188,2.28753 0.01807,4.5752 0.01606,6.86278 -0.0011,1.00741 -0.0016,2.01482 -0.002,3.02221 -1.6e-4,0.28785 -4e-5,0.57567 4.62e-4,0.8635 0.01004,-0.014 -0.01205,0.0647 1.61e-4,0.052 0.307281,-0.32463 0.605228,-0.49088 0.998996,-0.72139 1.911466,-1.07864 3.866437,-2.09658 5.855275,-3.02728 0.898838,-0.37255 1.813717,-0.72434 2.763367,-0.94532 0.205356,-0.0592 0.218466,0.012 0.2434,0.21273 0,0 -0.414567,0.30696 -0.414567,0.30696 v 0 c -0.01004,-0.19895 -2.41e-4,-0.18751 -0.184899,-0.14676 -0.944732,0.22467 -1.856539,0.57193 -2.750398,0.94698 -1.988336,0.93325 -3.945375,1.94845 -5.854191,3.03331 -0.07629,0.0454 -1.012788,0.70246 -1.075244,0.59248 5.22e-4,-0.28833 0.0011,-0.57666 0.0016,-0.86499 0.0016,-1.00849 0.006,-2.017 0.008,-3.0255 0.004,-2.28803 0.01004,-4.57612 -0.01205,-6.86406 -0.03212,-2.26778 -0.05782,-4.54409 -0.371303,-6.7944 -0.21409,-1.220691 -0.398246,-2.548892 -1.049086,-3.621687 -0.363755,-0.476522 -0.814298,-0.543756 -1.377889,-0.376202 -0.786232,0.271606 -1.174179,0.594989 -1.661381,1.283331 -0.849531,1.324567 -1.257493,2.877418 -1.326936,4.444848 0,0 -0.414246,0.30095 -0.414246,0.30095 z"
       inkscape:connector-curvature="0" />
    <path
       style="fill:#000000;stroke-width:0.53117466"
       id="path124"
       d="m 102.7488,105.10316 c -1.62296,-0.70077 -3.265007,-1.38865 -5.055917,-1.13545 -1.090041,0.32812 -1.504146,0.9484 -1.800165,2.04015 -0.296943,1.56745 0.487382,2.86423 1.336231,4.10711 0.898356,1.3158 2.110539,2.25605 3.588101,2.81862 0.74277,0.24012 1.54348,0.30569 2.21702,-0.16824 0.0329,-0.0231 -0.002,-0.0835 0.0161,-0.11925 0.1074,-0.20632 0.23826,-0.39955 0.35739,-0.59933 0.71375,-2.33171 0.44134,-4.81309 0.0271,-7.17284 -0.44029,-2.46696 -1.64819,-4.6089 -3.0641,-6.634036 -0.919681,-1.376082 -2.03564,-2.603743 -3.210662,-3.763728 -0.201602,-0.176668 -0.380619,-0.386863 -0.603642,-0.538295 0.30415,-0.202586 0.845115,-0.578106 0.991829,-0.04738 0.63741,0.648873 1.144788,1.420389 1.714401,2.131538 2.110374,2.612576 4.109134,5.310011 6.149484,7.976771 2.25412,3.00511 4.59132,5.94956 6.77957,9.00351 0.74143,0.88528 1.15828,2.05378 2.06419,2.79773 0.26849,0.18771 0.66146,0.0988 -0.27681,0.10139 0,0 0.40073,-0.32122 0.40073,-0.32122 v 0 c -0.1867,0.66014 -0.062,0.85556 -0.51259,0.55811 -0.90346,-0.75483 -1.32537,-1.91996 -2.06413,-2.81504 -2.18263,-3.05748 -4.51868,-6.00241 -6.77338,-9.00649 -2.04144,-2.66532 -4.04194,-5.36083 -6.15756,-7.968568 -0.575917,-0.716107 -1.09,-1.491238 -1.734396,-2.144407 -0.08572,-0.425428 -0.545784,0.03011 -0.196142,-0.610869 0.220855,0.16141 0.407581,0.365482 0.6084,0.549899 1.173075,1.166088 2.290178,2.396499 3.211438,3.775051 1.41967,2.031339 2.63306,4.178534 3.07615,6.652574 0.41872,2.3692 0.6876,4.85112 -0.001,7.19847 -0.83771,1.45195 -1.7772,2.03134 -3.39407,1.51252 -1.48305,-0.57274 -2.702861,-1.52053 -3.606899,-2.84317 -0.856237,-1.25225 -1.649495,-2.55965 -1.364619,-4.14039 0.323905,-1.28502 1.286785,-2.3221 2.578127,-2.69634 1.79876,-0.23165 3.445481,0.45428 5.076131,1.15519 0,0 -0.37653,0.34627 -0.37653,0.34627 z"
       inkscape:connector-curvature="0" />
    <path
       style="fill:#000000;stroke-width:0.53117466"
       id="path433"
       d="m 165.1981,169.79219 c -1.12307,0.50186 -2.23246,1.03343 -3.33921,1.5701 -1.048,0.4976 -2.07444,1.03941 -3.0794,1.61882 -0.77352,0.49298 -1.58917,0.90755 -2.40385,1.32625 -0.6521,0.34589 -1.21318,0.83064 -1.7903,1.28492 -0.38396,0.32159 -0.77646,0.63211 -1.17326,0.93764 -0.28819,0.22192 -0.20429,0.12528 -0.32083,0.27253 -0.43318,0.40913 -0.85628,0.82089 -1.25244,1.26645 -0.4018,0.46086 -0.84818,0.87794 -1.26903,1.3213 -0.37307,0.38338 -0.73711,0.77448 -1.07415,1.18989 -0.24576,0.3173 -0.49585,0.63121 -0.76246,0.93128 -0.22932,0.20056 -0.38694,0.45936 -0.58055,0.68867 -0.21682,0.27411 -0.48767,0.50326 -0.75486,0.72715 0.27866,-0.27801 -0.16301,0.40467 -0.19272,0.46196 -0.1829,0.27976 -0.36603,0.55859 -0.54816,0.83924 -0.17084,0.29569 -0.37419,0.56565 -0.58194,0.83573 -0.21336,0.28075 -0.44512,0.54513 -0.63064,0.84552 -0.17426,0.18871 -0.33167,0.36701 -0.41411,0.61332 -0.0211,0.19393 -0.0741,0.34527 -0.17004,0.512 -0.13631,0.1327 -0.2496,0.27704 -0.34169,0.44379 -0.0223,0.0406 -0.0414,0.0827 -0.0586,0.12568 -0.26565,0.15077 -0.01,-0.0608 0.0462,-0.11725 -0.0448,0.0281 -0.12828,0.0161 -0.18971,0.0201 -0.0181,4e-5 -0.0341,0.002 -0.0512,0.004 -0.0181,-0.12949 -0.11724,-0.20476 -0.16683,-0.32911 -0.19373,-0.43049 -0.36889,-0.86868 -0.53906,-1.30921 -0.22302,-0.42169 -0.41505,-0.85517 -0.53355,-1.31764 -0.0319,-0.13591 -0.0594,-0.27331 -0.0719,-0.41254 0.17808,-0.0992 0.21355,-0.064 0.21532,0.11785 0.15157,0.28758 0.3072,0.57479 0.46632,0.85925 0.26474,0.55624 0.59889,1.07231 0.85756,1.63146 0.11504,0.24063 0.18892,0.49893 0.2271,0.76247 0.002,0.0893 0.0934,0.1347 0.15298,0.20561 0.0787,0.0781 0.0889,0.1837 0.10078,0.28879 0.008,0.0986 0.006,0.19755 0.006,0.29636 -0.11543,0.31861 -0.26241,-0.0181 -0.21089,-0.0626 0.10941,-0.0968 0.22718,-0.1841 0.3447,-0.27109 0.0789,-0.0584 0.22164,-0.1333 0.11945,-0.0789 0.47955,-0.42869 0.9891,-0.81938 1.49786,-1.21205 0.33258,-0.30118 0.65147,-0.62556 0.98553,-0.92893 0.20337,-0.17586 0.40483,-0.35524 0.62113,-0.51525 0.0301,-0.014 0.01,0.0392 0.01,0.0464 0,0 -0.22046,0.13511 -0.22046,0.13511 v 0 c 0.004,5.4e-4 0.0612,-0.012 0.0392,0.0121 -0.11443,0.0873 -0.11202,0.16181 -0.002,-0.006 0.0544,-0.0839 -0.3286,0.32636 -0.22808,0.19534 -0.4605,0.41543 -0.88928,0.86403 -1.37353,1.25418 -0.37689,0.29022 -0.75955,0.56269 -1.10974,0.88698 -0.16502,0.14153 -0.68621,0.56437 -0.47487,0.33081 0.0223,-0.0247 0.0181,0.0715 5e-4,0.0998 -0.0596,0.0956 -0.13832,0.17767 -0.20755,0.26661 0.001,-0.098 0.002,-0.19614 -0.004,-0.29403 -0.01,-0.10078 -0.0161,-0.20204 -0.0911,-0.27685 -0.0604,-0.0719 -0.1594,-0.12366 -0.16201,-0.217 -0.0347,-0.26189 -0.10801,-0.51848 -0.22101,-0.75758 -0.2571,-0.55928 -0.59134,-1.07448 -0.85614,-1.63002 -0.16181,-0.28787 -0.31822,-0.57883 -0.47568,-0.86837 -0.001,-0.15197 0.0526,-0.42896 0.2015,-0.42257 0.008,0.13832 0.0373,0.27433 0.0677,0.40932 0.11624,0.46227 0.30732,0.89529 0.53069,1.31596 0.17004,0.44042 0.34544,0.87832 0.54048,1.30796 0.0403,0.1054 0.16322,0.20333 0.14475,0.30295 0.0181,-0.001 0.0351,-0.002 0.0526,-0.002 0.0769,-0.002 0.16302,-0.0181 0.22803,0.0283 -0.14616,0.15057 -0.29301,0.2922 -0.47923,0.39927 0.014,-0.0456 0.0327,-0.0891 0.0556,-0.1311 0.0903,-0.16823 0.19553,-0.31959 0.34171,-0.44416 0.0915,-0.16884 0.16321,-0.30828 0.17305,-0.5079 0.0791,-0.25046 0.22644,-0.43404 0.41118,-0.61866 0.18389,-0.3022 0.41422,-0.56746 0.62931,-0.84776 0.20564,-0.27143 0.41529,-0.53647 0.58305,-0.83419 0.18309,-0.2794 0.36112,-0.56074 0.54918,-0.83671 0.15538,-0.30451 0.29128,-0.58752 0.57686,-0.79743 -0.31038,0.2659 0.35572,-0.33013 0.3673,-0.39694 0.19976,-0.22297 0.34563,-0.49359 0.58068,-0.68911 0.26777,-0.29913 0.51838,-0.61275 0.76363,-0.93052 0.33472,-0.41778 0.70097,-0.80765 1.07361,-1.19198 0.42063,-0.44362 0.86658,-0.86072 1.26944,-1.32057 0.39608,-0.44627 0.81727,-0.85993 1.25131,-1.26878 0.6074,-0.53733 1.26479,-1.00689 1.88043,-1.53472 0.57765,-0.45432 1.13961,-0.93871 1.794,-1.28167 0.81468,-0.41754 1.62808,-0.83509 2.40207,-1.32611 1.00558,-0.57803 2.03184,-1.11967 3.07996,-1.61677 1.10785,-0.53691 2.21849,-1.06836 3.34199,-1.5719 0,0 -0.17305,0.18831 -0.17305,0.18831 z"
       inkscape:connector-curvature="0" />
    <path
       style="fill:#000000;stroke-width:0.53117466"
       id="path435"
       d="m 172.17593,164.97769 c -0.8517,-0.11383 -1.72289,-0.0496 -2.52847,0.25306 -0.57134,0.26737 -0.8346,0.89336 -1.11847,1.42414 -0.31792,0.69846 -0.52432,1.43986 -0.66146,2.19305 -0.0773,0.61029 -0.16944,1.23387 -0.1048,1.84901 0.0578,0.47299 0.25657,0.85764 0.60286,1.17607 0.53856,0.40228 1.22403,0.38748 1.86397,0.35873 0.61099,-0.0209 1.20461,-0.18269 1.79484,-0.32914 0.12126,-0.0508 0.28881,-0.0341 0.38628,-0.12949 0,0 -0.16964,0.19454 -0.16964,0.19454 v 0 c -0.11483,0.0767 -0.26578,0.0751 -0.39377,0.12105 -0.59109,0.14515 -1.18544,0.30506 -1.79713,0.32419 -0.64653,0.0273 -1.3371,0.0365 -1.87884,-0.37237 -0.35025,-0.32268 -0.55394,-0.71197 -0.61425,-1.19058 -0.0685,-0.61699 0.0257,-1.24316 0.10159,-1.85569 0.13591,-0.75522 0.34175,-1.49799 0.65688,-2.19958 0.37158,-0.69615 0.7471,-1.40698 1.50597,-1.75058 0.81089,-0.29588 1.68282,-0.35871 2.53754,-0.2453 0,0 -0.1831,0.17907 -0.1831,0.17907 z"
       inkscape:connector-curvature="0" />
    <path
       style="fill:#000000;stroke-width:0.53117466"
       id="path437"
       d="m 177.37619,166.95057 c -0.74281,-0.3809 -1.5233,-0.6307 -2.35994,-0.52892 -0.67676,0.11182 -1.17372,0.45689 -1.63771,0.92988 -0.45733,0.51155 -0.77354,1.11945 -0.99693,1.76398 -0.1582,0.59138 -0.26888,1.211 -0.21915,1.82432 0.0383,0.44087 0.3072,0.77312 0.63639,1.04541 0.43994,0.2849 0.97517,0.16523 1.45709,0.0705 0.75776,-0.16764 1.41623,-0.57399 2.00106,-1.07238 0.56401,-0.48073 1.07735,-1.03483 1.22477,-1.77886 0.0685,-0.5144 -0.16342,-0.91596 -0.45516,-1.31206 -0.1578,-0.17807 -0.25934,-0.42896 -0.48493,-0.52894 -0.0536,-0.0225 -0.11022,-0.0285 -0.16703,-0.0339 0,0 0.18409,-0.18128 0.18409,-0.18128 v 0 c 0.0594,0.006 0.11745,0.0181 0.17306,0.0408 0.22732,0.10761 0.33344,0.35534 0.4924,0.53968 0.29535,0.40102 0.53205,0.80826 0.46755,1.32915 -0.13813,0.75017 -0.6507,1.31037 -1.21686,1.79446 -0.71942,0.60414 -1.45077,1.1959 -2.39624,1.38765 -0.49008,0.0948 -1.02915,0.20754 -1.47331,-0.0863 -0.333,-0.27699 -0.60776,-0.61473 -0.64886,-1.06153 -0.0538,-0.61587 0.0582,-1.23871 0.21379,-1.83352 0.22003,-0.64754 0.53619,-1.25761 0.99081,-1.77348 0.58497,-0.60125 1.18596,-1.09665 2.03365,-1.24613 0.84079,-0.0935 1.62406,0.158 2.37078,0.53906 0,0 -0.18932,0.17245 -0.18932,0.17245 z"
       inkscape:connector-curvature="0" />
    <path
       style="fill:#000000;stroke-width:0.53117466"
       id="path439"
       d="m 180.08917,158.65906 c -0.28893,1.61407 -0.34314,3.25878 -0.40128,4.89393 -0.0761,1.82186 -0.014,3.64696 -0.0915,5.46829 -0.0544,0.88633 -0.1299,1.77115 -0.19414,2.6568 -0.008,0.0922 -0.01,0.1849 -0.0233,0.27657 0,0 -0.21154,0.14836 -0.21154,0.14836 v 0 c 0.0181,-0.0908 0.0161,-0.1841 0.0263,-0.27568 0.0662,-0.88632 0.14234,-1.7719 0.19835,-2.65896 0.0807,-1.82162 0.0181,-3.64726 0.0936,-5.46955 0.0572,-1.635 0.11162,-3.27882 0.39308,-4.89382 0,0 0.2103,-0.14596 0.2103,-0.14596 z"
       inkscape:connector-curvature="0" />
    <path
       style="fill:#000000;stroke-width:0.53117466"
       id="path441"
       d="m 182.1881,157.91296 c -0.25847,1.57749 -0.34649,3.17342 -0.41342,4.76825 -0.0271,2.00504 -0.13973,4.00667 -0.23394,6.00926 -0.0482,1.05123 -0.0801,2.10313 -0.096,3.15535 0.008,0.16823 -0.064,0.36042 0.0934,0.46672 0,0 -0.19313,0.17064 -0.19313,0.17064 v 0 c -0.16483,-0.12266 -0.10701,-0.29798 -0.10761,-0.48726 0.0181,-1.05346 0.0508,-2.10664 0.1,-3.15916 0.0956,-2.00277 0.20949,-4.00462 0.23515,-6.00996 0.0659,-1.59376 0.15177,-3.18877 0.40726,-4.76562 0,0 0.20834,-0.14816 0.20834,-0.14816 z"
       inkscape:connector-curvature="0" />
    <path
       style="fill:#000000;stroke-width:0.53117466"
       id="path443"
       d="m 186.09774,170.03611 c -0.004,0.91745 0.0321,1.83343 -0.0731,2.74621 -0.0207,0.19132 -0.17105,0.86589 -0.0267,0.64861 0,0 -0.17065,0.19353 -0.17065,0.19353 v 0 c -0.0245,0.008 -0.0508,0.0349 -0.0737,0.0231 -0.0745,-0.0385 0.0564,-0.65 0.0626,-0.71768 0.10821,-0.91162 0.0737,-1.82668 0.0741,-2.74331 0,0 0.20712,-0.15057 0.20712,-0.15057 z"
       inkscape:connector-curvature="0" />
    <path
       style="fill:#000000;stroke-width:0.53117466"
       id="path445"
       d="m 192.83329,168.53472 c -0.86004,-0.23648 -1.8182,-0.43619 -2.67158,-0.0558 -0.14917,0.0664 -0.27964,0.16884 -0.41947,0.2534 -0.65459,0.62843 -1.02008,1.47027 -1.301,2.31659 -0.21057,0.71758 -0.33278,1.44659 -0.0624,2.15892 0.31661,0.61744 0.90817,0.80422 1.55953,0.76706 1.35143,-0.34677 1.72994,-1.53669 2.17105,-2.73622 0.64369,-2.20588 0.68481,-4.51083 0.60641,-6.78876 -0.0994,-1.73866 -0.22081,-3.4758 -0.30943,-5.21508 -0.0181,-0.40906 -0.0414,-0.81801 -0.0534,-1.22736 -0.002,-0.0681 -0.004,-0.31308 0.20887,0.0428 0.0568,0.0946 -0.0241,1.02923 -0.0299,1.12144 -0.15077,2.07601 -0.17486,4.15842 -0.20217,6.23887 -0.0273,2.61898 -0.0293,5.23812 -0.0297,7.85722 0.004,0.98374 -0.002,1.96756 0.004,2.9513 -0.0594,-0.006 -0.11885,-0.01 -0.17848,-0.0161 0,0 0.21074,-0.14716 0.21074,-0.14716 v 0 c -0.0803,0.1048 -0.16041,0.20953 -0.24077,0.31429 0.002,-0.98557 4.6e-4,-1.97117 0.002,-2.95676 0.002,-2.61972 0.006,-5.23951 0.0319,-7.85913 0.0259,-2.07908 0.0482,-4.16007 0.19453,-6.23495 0.006,-0.10319 0.002,-1.03383 0.0291,-1.11861 0.0434,-0.13671 0.13732,-0.25161 0.20744,-0.3766 0.004,-0.008 -0.0181,0.0765 -3.8e-4,0.0307 0.008,0.41018 0.0325,0.8199 0.049,1.22979 0.0851,1.74056 0.20598,3.47885 0.30523,5.21859 0.0795,2.27978 0.0389,4.58626 -0.5991,6.79537 -0.46725,1.28482 -1.08645,2.7138 -2.55785,3.0574 -0.66146,0.0305 -1.2594,-0.16623 -1.58128,-0.79071 -0.27516,-0.71699 -0.1584,-1.44976 0.0532,-2.17386 0.33694,-1.02469 0.79448,-1.98538 1.68118,-2.64847 0.14113,-0.0829 0.27335,-0.1839 0.42366,-0.24904 0.85997,-0.37267 1.81924,-0.17045 2.68358,0.065 0,0 -0.1859,0.17547 -0.1859,0.17547 z"
       inkscape:connector-curvature="0" />
    <path
       style="fill:#000000;stroke-width:0.53117466"
       id="path447"
       d="m 186.65874,165.23631 c -0.66102,-0.0389 -1.32733,-0.0279 -1.93842,0.24749 -0.33118,0.27408 0.002,-0.21563 -0.0383,0.10601 -0.008,0.068 0.012,0.13049 0.0373,0.19192 0.25519,0.16181 0.56709,-0.001 0.80753,-0.11042 0.3755,-0.17988 0.55894,-0.46383 0.73247,-0.84013 0.0908,-0.30809 -0.0835,-0.46618 -0.35078,-0.56315 -0.14977,-0.0877 -0.65839,0.30228 -0.35761,0.13511 -0.13371,0.16261 -0.18912,0.35494 -0.22146,0.55835 0.0339,0.18309 0.14736,0.27293 0.30955,0.34163 0.0434,0.0181 0.0881,0.0293 0.1335,0.04 0,0 -0.1869,0.17828 -0.1869,0.17828 v 0 c -0.0462,-0.0121 -0.0922,-0.0249 -0.13632,-0.0434 -0.17225,-0.0759 -0.28688,-0.17687 -0.33089,-0.36801 0.0307,-0.20622 0.0817,-0.40338 0.21431,-0.57031 0.1849,-0.17768 0.45829,-0.53513 0.76435,-0.4472 0.27606,0.1048 0.46106,0.27695 0.37608,0.59686 -0.22846,0.5135 -0.61836,0.91105 -1.12005,1.17103 -0.25133,0.11122 -0.58198,0.27054 -0.8365,0.0811 -0.12949,-0.30531 0.0943,-0.5142 0.3775,-0.64654 0.61605,-0.26777 1.28502,-0.27715 1.94775,-0.23766 0,0 -0.1831,0.17908 -0.1831,0.17908 z"
       inkscape:connector-curvature="0" />
    <path
       style="fill:#000000;stroke-width:0.53117466"
       id="path449"
       d="m 195.15424,172.26482 c 0.8728,-0.17185 1.73157,-0.41549 2.56223,-0.73353 0.49999,-0.22817 0.93344,-0.56747 1.41135,-0.83343 0.0817,-0.0498 0.14113,-0.0962 0.20225,-0.45946 0.0203,-0.19393 0.0564,-0.37448 -0.0968,-0.51714 -0.19775,-0.0695 -0.41633,-0.0777 -0.62508,-0.13752 -0.27273,-0.10359 -0.55601,-0.14394 -0.84528,-0.16241 -0.45281,-0.13009 -0.91361,-0.10299 -1.37714,-0.0721 -0.39179,0.002 -0.53798,0.20076 -0.65179,0.34105 -0.36614,0.42081 -0.5821,0.9202 -0.78412,1.43334 -0.22544,0.65917 -0.27185,1.35662 -0.30566,2.04693 0.0201,0.3539 -0.1337,0.82153 0.12668,1.11516 0.40676,0.17606 0.89125,0.12246 1.32545,0.12407 0.86692,0.0181 1.7359,-0.0418 2.58901,-0.19755 0.31866,-0.10841 0.7212,-0.10399 0.99797,-0.31334 0,0 -0.17064,0.19293 -0.17064,0.19293 v 0 c -0.29227,0.19132 -0.67809,0.2022 -1.00432,0.3038 -0.85487,0.15218 -1.72448,0.21249 -2.59262,0.19454 -0.4393,-0.002 -0.93546,0.0564 -1.34175,-0.13852 -0.26615,-0.30301 -0.12327,-0.76576 -0.13732,-1.13202 0.0333,-0.69224 0.0787,-1.39152 0.30077,-2.05367 0.20076,-0.51452 0.41341,-1.01662 0.77899,-1.4391 0.26289,-0.33826 0.60456,-0.64979 1.04949,-0.66035 0.46447,-0.0301 0.92556,-0.0512 1.37977,0.0743 0.29072,0.0201 0.57496,0.0628 0.84919,0.16623 0.21114,0.0596 0.4392,0.0576 0.63402,0.14595 0.1594,0.15157 0.13451,0.33067 0.11182,0.53727 -0.0576,0.37407 -0.25034,0.59489 -0.58515,0.79812 -0.4765,0.26765 -0.91072,0.60611 -1.41278,0.82949 -0.83265,0.31555 -1.69212,0.55833 -2.56566,0.73175 0,0 0.17707,-0.1849 0.17707,-0.1849 z"
       inkscape:connector-curvature="0" />
    <path
       style="fill:#000000;stroke-width:0.53117466"
       id="path451"
       d="m 204.50463,168.11308 c -0.81966,-0.0424 -1.6177,0.006 -2.39528,0.27593 -0.0564,0.0345 -0.11704,0.0628 -0.16944,0.10319 -0.0227,0.0181 0.0715,-0.0612 0.0789,-0.0335 0.014,0.052 -0.0436,0.10058 -0.047,0.15418 -0.014,0.21399 0.13732,0.43101 0.22784,0.61164 0.19293,0.40192 0.29815,0.83646 0.55713,1.20403 0.2266,0.31924 0.45685,0.63847 0.70739,0.93915 0.29347,0.30144 0.61123,0.59477 0.98364,0.79609 0.46625,0.24105 0.8734,0.5777 1.23718,0.95264 0.28419,0.33659 0.6243,0.64329 0.31583,1.06719 -0.71536,0.71581 -1.61912,1.17856 -2.53351,1.58437 -1.04841,0.4162 -1.72428,0.48714 -2.70692,-0.0873 -0.35231,-0.26966 -0.65961,-0.59938 -0.87344,-0.9895 3e-4,-0.0203 5.2e-4,-0.0407 10e-4,-0.061 0,0 0.21038,-0.14956 0.21038,-0.14956 v 0 c -0.004,0.0161 -0.008,0.0325 -0.01,0.0488 0.20881,0.38767 0.51352,0.71414 0.8622,0.98071 0.97734,0.56792 1.6505,0.48618 2.68885,0.0715 0.75363,-0.33696 1.5297,-0.70033 2.14484,-1.26101 0.33204,-0.4029 -0.0181,-0.70896 -0.29334,-1.03832 -0.36231,-0.37314 -0.76835,-0.70694 -1.23293,-0.94608 -0.37381,-0.20522 -0.69436,-0.49945 -0.98984,-0.80354 -0.25093,-0.30124 -0.48188,-0.62079 -0.7089,-0.94057 -0.26022,-0.36864 -0.36694,-0.80344 -0.55901,-1.20743 -0.28707,-0.57019 -0.40895,-0.81918 0.28504,-1.18261 0.78029,-0.26358 1.58081,-0.30839 2.40117,-0.26988 0,0 -0.18108,0.18108 -0.18108,0.18108 z"
       inkscape:connector-curvature="0" />
    <path
       style="fill:#000000;stroke-width:0.53117466"
       id="path453"
       d="m 206.87798,161.56095 c 0.48903,1.8921 0.99938,3.77853 1.48634,5.67118 0.49702,2.03227 1.05193,4.05058 1.50047,6.09438 0.11664,0.39608 0.13471,0.81733 0.23672,1.21632 0.0181,0.0689 0.0608,0.24322 0.1608,0.20672 -0.0361,-0.0161 -0.10861,-0.008 -0.10821,-0.048 0.001,-0.10921 0.0773,-0.20453 0.11223,-0.30808 0.0496,-0.14696 0.098,-0.2946 0.14133,-0.44362 0.15559,-0.53561 0.29056,-1.07902 0.43023,-1.61898 0.21146,-0.51073 0.16261,-1.16695 0.37664,-1.6721 0.0851,0.0486 0.20921,0.0592 0.25553,0.14555 0.0673,0.12547 0.0313,0.28303 0.05,0.42414 0.0235,0.17727 0.0524,0.35362 0.0769,0.53069 0.0919,0.66304 0.19233,1.31706 0.32155,1.97412 0.14415,0.61266 0.30913,1.22005 0.46392,1.83008 0.0905,0.35711 0.1582,0.64715 0.35922,0.95388 0.25329,0.14013 0.27849,-0.004 0.36953,-0.1871 0.0919,-0.18591 0.20799,-0.3592 0.29691,-0.54647 0.37943,-0.79928 0.42478,-1.03768 0.72307,-1.93162 0.75905,-2.5965 1.12863,-5.28319 1.67891,-7.92705 0.11182,-0.57654 0.28899,-1.13657 0.38642,-1.71584 0.012,-0.0739 0.0215,-0.14836 0.0303,-0.22273 0.004,-0.0275 -0.0181,-0.0701 0.006,-0.0831 0.057,-0.0305 0.12849,-0.0161 0.19273,-0.0233 -0.0466,0.35609 -0.11604,0.70105 -0.13892,1.06045 0,0 -0.20741,0.14876 -0.20741,0.14876 v 0 c 0.0201,-0.36014 0.0895,-0.70436 0.13592,-1.06081 0.0757,-0.0917 0.13691,-0.19774 0.22722,-0.27534 0.0789,-0.0678 -0.0201,0.20739 -0.0367,0.30997 -0.0982,0.58086 -0.27749,1.14178 -0.391,1.7197 -0.55548,2.64384 -0.92424,5.33134 -1.67837,7.93014 -0.15478,0.46835 -0.90839,2.99362 -1.62928,3.03943 -0.0594,0.004 -0.10901,-0.0484 -0.16341,-0.0727 -0.20285,-0.31027 -0.27111,-0.60123 -0.36211,-0.96234 -0.15398,-0.61085 -0.31871,-1.21889 -0.46373,-1.83196 -0.1299,-0.65711 -0.23058,-1.31116 -0.32353,-1.97421 -0.002,-0.0161 -0.13651,-0.89329 -0.12868,-0.95332 0.0207,-0.15559 0.10981,-0.29403 0.16482,-0.44107 -0.0658,0.11484 -0.0801,0.30375 -0.105,0.42457 -0.0857,0.41685 -0.17767,0.8324 -0.27863,1.24585 -0.13953,0.5401 -0.27464,1.08345 -0.42876,1.6196 -0.002,0.01 -0.20694,0.67756 -0.25029,0.75238 -0.0787,0.13592 -0.19032,0.24997 -0.28544,0.37496 -0.27098,-0.0161 -0.33167,-1.2551 -0.41776,-1.4553 -0.4443,-2.04515 -0.99805,-4.06419 -1.49603,-6.09659 -0.48736,-1.89133 -0.99771,-3.77656 -1.49271,-5.66586 0,0 0.20249,-0.15559 0.20249,-0.15559 z"
       inkscape:connector-curvature="0" />
    <path
       style="fill:#000000;stroke-width:0.53117466"
       id="path455"
       d="m 219.14078,172.91403 c -0.19554,1.04471 -0.31421,2.10195 -0.39855,3.16085 -0.0954,0.45213 0.056,0.97021 -0.1313,1.402 -0.1,0.0303 -0.20015,0.0604 -0.30011,0.0908 0,0 0.19273,-0.17085 0.19273,-0.17085 v 0 c -0.0357,0.0741 -0.0717,0.14816 -0.10741,0.2224 0.20735,-0.42003 0.0375,-0.95077 0.13913,-1.39636 0.0847,-1.05932 0.20427,-2.11674 0.39581,-3.16257 0,0 0.20978,-0.14616 0.20978,-0.14616 z"
       inkscape:connector-curvature="0" />
    <path
       style="fill:#000000;stroke-width:0.53117466"
       id="path457"
       d="m 218.59357,167.71193 c -0.24232,0.64845 -0.40919,1.33077 -0.0677,1.96611 0.15539,0.14575 0.3549,0.20995 0.52894,0.045 0.0213,-0.0203 -0.0769,0.0626 -0.0813,0.0335 -0.008,-0.0588 0.041,-0.11142 0.0616,-0.16724 0.0725,-0.33605 -0.0787,-0.63935 -0.26657,-0.90729 -0.12106,-0.0393 -0.29769,-0.31228 0.0797,-0.13631 0.008,0.004 0.0512,0.2798 0.0532,0.29243 0.0769,0.18188 0.17406,0.35387 0.2521,0.53598 -0.23274,0.106 -0.22803,0.0181 -0.35268,-0.15599 -0.0181,-0.0243 -0.0355,-0.0478 -0.054,-0.0711 0,0 0.19835,-0.16562 0.19835,-0.16562 v 0 c 0.0181,0.0239 0.0371,0.0478 0.0546,0.0723 0.0715,0.1 0.35266,0.54243 -0.0488,0.48044 -0.0781,-0.1845 -0.17566,-0.35842 -0.25539,-0.54141 -0.0353,-0.22284 -0.10459,-0.8416 0.27119,-0.47417 0.19172,0.27337 0.34713,0.5833 0.2808,0.92682 -0.1325,0.41533 -0.56222,0.73747 -0.92182,0.39365 -0.34567,-0.64086 -0.19032,-1.32676 0.0558,-1.98334 0,0 0.21172,-0.14374 0.21172,-0.14374 z"
       inkscape:connector-curvature="0" />
    <path
       style="fill:#000000;stroke-width:0.53117466"
       id="path459"
       d="m 222.6538,161.52968 c 0.45233,1.83744 0.51458,3.74118 0.59416,5.62311 0.0887,2.68885 0.11042,5.3785 0.0201,8.06722 -0.0454,1.20395 -0.0598,2.41583 -0.32248,3.59668 -0.0307,0.20756 0.0922,0.22553 -0.11805,0.24348 0,0 0.21449,-0.14174 0.21449,-0.14174 v 0 c -0.31115,0.34497 -0.31705,0.40186 -0.3073,0.0444 0.27063,-1.18012 0.28552,-2.39337 0.33254,-3.59798 0.0932,-2.6883 0.0727,-5.37757 -0.0181,-8.06603 -0.0801,-1.87853 -0.14214,-3.77949 -0.59738,-5.61286 0,0 0.20231,-0.15619 0.20231,-0.15619 z"
       inkscape:connector-curvature="0" />
    <path
       style="fill:#000000;stroke-width:0.53117466"
       id="path461"
       d="m 227.20167,171.47497 c -1.57166,0.0618 -3.13581,0.23294 -4.70234,0.36695 -0.43661,0.12487 -1.65389,-0.0261 -2.01333,0.22746 -0.11604,-0.004 0.17767,-0.15177 0.27815,-0.20995 0,0 -0.17847,0.1855 -0.17847,0.1855 v 0 c 0.15699,-0.27673 0.0325,-0.0701 0.0719,-0.16804 0.42505,-0.24872 1.53723,-0.0763 2.01821,-0.21453 1.56803,-0.1331 3.13357,-0.30385 4.70651,-0.36811 0,0 -0.18068,0.18068 -0.18068,0.18068 z"
       inkscape:connector-curvature="0" />
    <path
       style="fill:#000000;stroke-width:0.53117466"
       id="path463"
       d="m 227.6447,162.60093 c -0.52799,1.985 -0.77812,4.02768 -0.96803,6.06836 -0.17607,2.2395 -0.21775,4.48646 -0.23887,6.73185 3e-4,0.73536 -0.012,1.47102 0.002,2.20632 -0.0687,-0.0201 -0.16884,0.002 -0.20606,-0.0584 -0.0291,-0.0478 0.0319,-0.60692 0.0327,-0.61609 0.0436,-0.42901 0.0897,-0.85682 0.12588,-1.28661 0.0239,-0.88235 0.18931,-1.74395 0.4018,-2.59697 0.0652,-0.34075 0.17646,-0.65976 0.36098,-0.95327 0.21911,-0.31461 0.56895,-0.47851 0.89362,-0.65712 0.43336,-0.19233 0.82709,-0.45912 1.27982,-0.60332 0.52783,-0.15238 0.80289,0.51645 1.02473,0.88177 0.56534,1.1751 0.65839,2.48999 0.72968,3.77164 0.0309,1.065 -0.10359,2.11995 -0.33727,3.15657 -0.0383,0.12327 -0.0536,0.25563 -0.11725,0.36952 0,0 -0.21712,0.13953 -0.21712,0.13953 v 0 c 0.0767,-0.1046 0.0805,-0.24437 0.12407,-0.36344 0.23848,-1.03475 0.37325,-2.08902 0.34468,-3.15314 -0.0701,-1.27759 -0.16141,-2.58828 -0.72447,-3.75993 -0.21881,-0.35948 -0.48367,-1.01414 -1.00288,-0.8554 -0.44998,0.14796 -0.84457,0.41349 -1.27614,0.60646 -0.51804,0.28337 -0.26372,0.064 -0.50467,0.32737 -0.18831,0.2905 -0.30284,0.6069 -0.36745,0.94757 -0.21338,0.8521 -0.38335,1.71223 -0.40519,2.59432 -0.0448,0.54057 -0.12768,1.08219 -0.15679,1.62358 -0.004,0.0919 0.0279,0.18871 -10e-4,0.27623 -0.0438,0.13209 -0.14013,0.24065 -0.21011,0.36098 -0.01,-0.73699 0.002,-1.47415 0.004,-2.21114 0.0239,-2.24667 0.0658,-4.49483 0.24073,-6.73572 0.18851,-2.03991 0.43779,-4.08125 0.95856,-6.06706 0,0 0.21047,-0.14454 0.21047,-0.14454 z"
       inkscape:connector-curvature="0" />
    <g
       id="g2338"
       transform="matrix(0.06094145,0,0,0.13346586,118.16641,151.55882)">
      <path
         id="path2340"
         style="fill:#0000fe"
         d="m 190.50771,315.14733 c -6.38332,-2.45381 -13.0523,-8.74551 -16.32967,-15.40586 -3.52254,-7.1586 -3.52254,-19.80976 0,-26.96836 5.46119,-11.09837 16.31343,-17.67353 29.10328,-17.6331 12.80242,0.0405 23.55191,6.57845 28.99158,17.6331 3.52254,7.1586 3.52254,19.80976 0,26.96836 -3.36561,6.83968 -9.9443,12.95939 -16.61396,15.45483 -7.28041,2.72395 -17.99202,2.70309 -25.15123,-0.049 z m -161.000002,-1 c -6.383326,-2.45381 -13.052307,-8.74551 -16.329672,-15.40586 -3.522541,-7.1586 -3.522541,-19.80976 0,-26.96836 5.461184,-11.09837 16.313429,-17.67353 29.103277,-17.6331 12.802425,0.0405 23.551911,6.57845 28.991581,17.6331 3.52254,7.1586 3.52254,19.80976 0,26.96836 -3.36561,6.83968 -9.9443,12.95939 -16.613964,15.45483 -7.280407,2.72395 -17.992012,2.70309 -25.151222,-0.049 z m 214.118922,-25.92469 -1.22566,-7.23267 c -3.05055,-18.00139 -15.18214,-30.65743 -32.4341,-33.83623 -21.16933,-3.90061 -41.06251,11.09175 -44.91987,33.85355 l -1.22863,7.25 H 81.632684 l -1.19656,-8.25 c -2.23582,-15.41537 -10.34181,-26.98413 -23.21066,-33.12594 -5.691824,-2.7165 -7.556846,-3.10221 -15,-3.10221 -7.443154,0 -9.308176,0.38571 -15,3.10221 -12.868851,6.14181 -20.974838,17.71057 -23.2106558,33.12594 l -1.196567,8.25 -29.3664552,-1.25 -2.472735,-53.48035 17.455779,-4.70604 c 0.73007,0 1.9941282,-1.61999 2.8090172,-2.91113 3.605543,-5.71274 42.3292918,-53.55564 43.0080608,-53.13613 l 125.714122,-4.10912 20.15272,51.85923 104.78145,7.07494 7.09432,61.42723 z"
         inkscape:connector-curvature="0" />
    </g>
    <g
       transform="matrix(0.08585059,0,0,0.07967414,116.33557,162.00825)"
       inkscape:label="Layer 1"
       id="layer1-6">
      <path
         d="m 362.02,412.58 a 6.9369,6.9369 0 0 0 -6.6875,5.5312 h -3.3438 a 6.9375,6.9375 0 1 0 0,13.875 h 3.1875 v 11 c -18.062,1.8838 -37.426,10.18 -50.938,20.156 l 117.41,1.2188 c -13.949,-10.276 -34.378,-19.572 -52.594,-21.438 v -10.938 h 3.1875 a 6.9375,6.9375 0 0 0 0,-13.875 h -3.3438 a 6.9369,6.9369 0 0 0 -6.875,-5.5312 z m 172.09,53.344 -33.5,0.90625 c -3.4787,12.58 -6.6005,21.529 -13.156,32.875 -6.2662,10.845 -9.8797,20.551 -21.75,20.406 -4.2418,-0.0517 -8.4626,-0.90767 -12.438,-2.5 l -2.2812,-11.937 c -5.668,-14.228 -14.026,-26.486 -24.25,-36.406 h -128.03 c -5.0294,4.8837 -9.616,10.305 -13.625,16.219 -0.0678,-0.0559 -0.11934,-0.10008 -0.1875,-0.15625 -8.6934,-7.1646 -17.254,-11.457 -25.656,-12.812 -2.1006,-0.33882 -4.1676,-0.49496 -6.2188,-0.4375 -6.1534,0.17239 -11.999,2.0996 -16.875,5.4688 -13.002,8.9843 -19.406,26.434 -20.188,47.437 -1.5867,42.619 27.611,69.8 55.156,70.062 1.9445,0.0185 3.8504,-0.0725 5.7188,-0.25 8.3359,17.776 21.188,32.628 36.906,42.75 h 97.812 c 16.771,-10.799 30.292,-26.969 38.531,-46.344 4.1208,-0.30335 8.7317,-2.3122 14.5,-7.1875 13.69,-11.571 27.995,-34.511 32.656,-45.719 4.6616,-11.208 9.5611,-21.371 13.312,-31.875 3.9149,-10.962 7.353,-18.219 11.188,-28.688 1.6085,-4.3914 8.2172,-9.1834 12.375,-11.812 z M 253.36,486.83 c 1.1124,-0.0137 2.2762,0.0788 3.5312,0.28125 5.0204,0.80979 11.348,3.685 18.594,9.6562 0.75522,0.6224 1.3604,1.1615 2.0625,1.75 -7.1279,14.566 -11.188,31.153 -11.188,48.812 0,11.493 1.724,22.559 4.875,32.906 -17.602,-0.18942 -41.828,-19.028 -40.5,-54.688 0.67558,-18.146 6.7481,-30.941 13.844,-35.844 2.6609,-1.8386 5.4439,-2.834 8.7812,-2.875 z m 57.531,153.19 v 12.125 h 103.59 V 640.02 Z"
         inkscape:connector-curvature="0"
         style="color:#000000;fill:#092c70"
         id="path4596" />
    </g>
    <path
       style="fill:#000000;stroke-width:0.53117466"
       id="path431"
       d="m 164.39902,196.25555 c -1.69559,-0.34773 -3.41308,-0.58629 -5.12692,-0.82614 -1.77288,-0.22443 -3.54621,-0.43153 -5.32987,-0.54626 -1.05738,-0.0626 -2.11658,-0.0831 -3.1756,-0.0887 -0.39283,-0.001 -0.78565,0.002 -1.17846,0.004 -0.28251,0.002 -0.56501,0.002 -0.8475,0.001 -0.88286,-0.0478 -1.76379,-0.14174 -2.64817,-0.18911 -1.22038,-0.0821 -2.43065,-0.24919 -3.64348,-0.4002 -0.88749,-0.0685 -1.76272,-0.22904 -2.6453,-0.33765 -0.55911,-0.0325 -1.09763,-0.19374 -1.64554,-0.29568 -0.63034,-0.062 -1.25422,-0.16723 -1.88506,-0.22901 -0.54125,-0.0753 -1.07856,-0.17928 -1.60877,-0.31154 -0.22197,-0.0881 0.20442,-0.23795 0.34107,-0.24285 -0.0568,0.15599 -0.17084,0.2716 -0.22742,0.42737 -0.068,0.69963 -0.1863,1.39261 -0.29935,2.08643 -0.15398,1.20144 -0.39455,2.38883 -0.57407,3.58622 -0.1333,1.04467 -0.31585,2.08076 -0.41334,3.12997 -0.12869,0.81094 -0.23595,1.62332 -0.2914,2.44263 -0.041,0.72402 -0.0446,1.44944 -0.0468,2.1744 -4.8e-4,0.57759 0.001,1.15519 0.002,1.73279 5.2e-4,0.68513 4.6e-4,1.37026 5.4e-4,2.05539 8e-5,0.64326 1e-4,1.28653 1.8e-4,1.92978 -2e-5,0.44113 2.4e-4,0.88225 5.4e-4,1.3234 -10e-5,0.3487 -1.4e-4,0.69742 -1.4e-4,1.04612 0.0141,0.31983 -0.0877,0.62938 -0.1847,0.93035 -0.0586,0.13511 0.0287,0.26137 0.10942,0.36705 0.0444,0.0699 0.10238,0.0584 0.17867,0.0608 0.51501,-0.21403 1.11564,-0.1863 1.66419,-0.24388 1.78832,-0.16663 3.57052,-0.38973 5.35948,-0.55038 1.82,-0.19956 3.64792,-0.14274 5.47291,-0.0783 1.15768,0.0181 2.3118,0.11905 3.4584,0.27655 1.20859,0.14314 2.41077,0.33386 3.62127,0.46144 0.85017,0.0361 1.68794,0.16583 2.5282,0.28938 0.40627,0.0221 0.78201,0.1861 1.17022,0.28961 0.34711,0.0841 0.70892,0.0291 1.05541,0.10419 0.18851,0.0667 0.37731,0.13271 0.5658,0.19956 0.0524,0.0269 0.0962,0.0261 0.15338,0.0267 0.22724,-0.012 0.43707,-0.002 0.65202,0.0757 0.17506,0.10218 0.35547,0.14695 0.5555,0.16542 0.1594,0.012 0.31917,0.0181 0.47897,0.0181 0.12628,-5.4e-4 0.25274,-0.001 0.3791,-0.002 0.13531,-5.2e-4 0.27064,-2.6e-4 0.40597,-2.8e-4 0.23921,8e-5 0.47841,1.6e-4 0.71761,1e-4 0.33625,1.6e-4 0.67251,3.2e-4 1.00874,1.2e-4 0.19453,4e-5 0.38889,-8e-5 0.58332,-3.8e-4 0.01,0 0.0357,-0.004 0.0273,-4e-5 -0.0857,0.0297 -0.16945,0.0859 -0.26015,0.0807 -0.0937,-0.006 -0.13993,-0.40933 -0.14535,-0.45464 -0.0373,-0.71207 -0.0247,-1.42617 -0.0243,-2.13903 0.0181,-0.92851 -0.1056,-1.85184 -0.1841,-2.77541 -0.10058,-0.5828 -0.22055,-1.16035 -0.28218,-1.74905 -0.0488,-0.55301 -0.0478,-1.10869 -0.0502,-1.66335 -0.0466,-0.50093 -0.14856,-0.9938 -0.20998,-1.49296 -0.0781,-0.42963 -0.008,-0.84424 0.0681,-1.26705 0.0847,-0.52684 0.0805,-1.05947 0.20634,-1.57901 0.0683,-0.39052 0.20076,-0.76234 0.29642,-1.14549 0.0773,-0.53948 0.16543,-1.07428 0.26777,-1.60989 0.0873,-0.45731 0.22837,-0.90641 0.40092,-1.33876 0.14615,-0.3167 0.32344,-0.61324 0.43498,-0.94539 0.0695,-0.25489 0.21074,-0.48032 0.34858,-0.70262 0.12186,-0.17406 0.19333,-0.36727 0.23993,-0.57262 0.0275,-0.14455 0.0209,-0.29327 0.0203,-0.43969 0.004,-0.15799 -0.0223,-0.31742 0.0259,-0.46913 0.0705,-0.17727 0.1572,-0.34581 0.19916,-0.53261 0.0271,-0.104 0.014,-0.21321 0.0596,-0.3105 0.0962,-0.0968 0.15358,-0.21029 0.19875,-0.33759 -0.006,-0.14917 0.23959,-0.21066 0.24164,-0.0287 5.4e-4,0.0576 2e-5,0.11503 -3e-4,0.17265 0,0 -0.20869,0.15157 -0.20869,0.15157 v 0 c 1.6e-4,-0.0574 4e-4,-0.11503 5.2e-4,-0.17245 -0.001,-0.1584 0.28488,-0.54313 0.18068,-0.26765 -0.0436,0.12889 -0.0913,0.25019 -0.19614,0.34149 -0.0598,0.0869 -0.0345,0.20253 -0.064,0.30423 -0.0396,0.18871 -0.12267,0.35821 -0.19715,0.53546 -0.0598,0.14556 -0.0241,0.30638 -0.0309,0.46169 5e-4,0.14796 0.008,0.29801 -0.0161,0.44428 -0.0452,0.20758 -0.11223,0.40463 -0.23576,0.58017 -0.13571,0.22222 -0.28297,0.44318 -0.35187,0.69766 -0.10961,0.33374 -0.28355,0.63189 -0.43466,0.94708 -0.17406,0.43079 -0.31535,0.87894 -0.40413,1.33497 -0.10218,0.53596 -0.19373,1.07026 -0.26671,1.61075 -0.0927,0.38391 -0.23002,0.75429 -0.29626,1.14539 -0.12948,0.51874 -0.12567,1.05063 -0.20748,1.5778 -0.0751,0.42085 -0.15037,0.83259 -0.0721,1.26063 0.0604,0.50035 0.16161,0.99426 0.21098,1.49595 0.002,0.5539 0.002,1.10875 0.0488,1.66108 0.0606,0.58915 0.17948,1.16719 0.28166,1.75006 0.0775,0.92447 0.20123,1.84859 0.1845,2.77784 -1.8e-4,0.71145 -0.01,1.42402 0.0249,2.13477 0.0181,0.1602 0.26602,0.66122 -0.01,0.71004 -0.19414,-2.8e-4 -0.38837,-4e-4 -0.58256,-3.8e-4 -0.33632,-2e-4 -0.67265,-4e-5 -1.00898,1e-4 -0.23926,-6e-5 -0.47855,0 -0.71781,1.2e-4 -0.13531,2e-5 -0.27073,2e-4 -0.40608,4.8e-4 -0.12647,3e-4 -0.25295,0.001 -0.37941,0.002 -0.16021,-10e-4 -0.32033,-0.008 -0.48006,-0.0201 -0.20122,-0.0205 -0.38298,-0.0693 -0.55993,-0.17004 -0.21287,-0.0753 -0.4227,-0.0789 -0.64663,-0.0691 -0.0578,-0.001 -0.1066,-0.008 -0.1592,-0.0327 -0.18711,-0.0671 -0.37441,-0.13371 -0.56261,-0.19775 -0.34765,-0.0699 -0.70972,-0.0181 -1.05661,-0.105 -0.38652,-0.1056 -0.76202,-0.26548 -1.16705,-0.28851 -0.83929,-0.12467 -1.67632,-0.25269 -2.52557,-0.29048 -1.2106,-0.12868 -2.4131,-0.3191 -3.62199,-0.46182 -1.14571,-0.15599 -2.29863,-0.25673 -3.45522,-0.27609 -1.82364,-0.0652 -3.65014,-0.12085 -5.46878,0.0787 -1.79006,0.16161 -3.57335,0.38508 -5.36263,0.55412 -0.55642,0.0584 -1.14115,0.0468 -1.67001,0.24452 -0.0809,-0.004 -0.14716,-0.004 -0.19394,-0.0777 -0.0831,-0.10902 -0.18208,-0.24796 -0.12386,-0.38727 0.098,-0.29855 0.20346,-0.60653 0.19011,-0.92417 -2e-5,-0.34864 -4e-5,-0.6973 -1.4e-4,-1.04594 3.2e-4,-0.4414 5.3e-4,-0.88281 5.3e-4,-1.3242 1.2e-4,-0.64335 1.6e-4,-1.28669 1.4e-4,-1.93004 6e-5,-0.68503 -1e-4,-1.37006 -0.001,-2.05509 -0.001,-0.57768 -0.002,-1.15534 -0.002,-1.73303 0.002,-0.72552 0.006,-1.4515 0.0464,-2.17612 0.0544,-0.8197 0.16041,-1.6326 0.29152,-2.44352 0.0968,-1.05005 0.28008,-2.08667 0.41377,-3.13202 0.17887,-1.19739 0.42033,-2.38446 0.57314,-3.58594 0.11223,-0.69404 0.23533,-1.3866 0.29361,-2.08763 0.047,-0.14876 0.13451,-0.29827 0.25756,-0.38959 -0.23654,0.0267 -0.0572,-0.19916 0.0287,-0.11704 0.52843,0.1327 1.06416,0.23727 1.60408,0.31079 0.63173,0.062 1.25701,0.16563 1.88816,0.22913 0.54681,0.10359 1.0848,0.26297 1.64313,0.29581 0.88207,0.10962 1.75712,0.26888 2.64412,0.33885 1.21222,0.15157 2.42211,0.31808 3.64206,0.39904 0.88477,0.0474 1.7662,0.14194 2.6498,0.18571 0.28261,-2.6e-4 0.56524,-5.1e-4 0.84787,-0.002 0.39242,-0.002 0.78484,-0.004 1.17729,-0.002 1.0584,0.008 2.11696,0.0289 3.17365,0.0927 1.78367,0.11604 3.55701,0.32439 5.32997,0.54878 1.71561,0.24053 3.43475,0.47931 5.13275,0.82425 0,0 -0.1847,0.17587 -0.1847,0.17587 z"
       inkscape:connector-curvature="0" />
    <path
       style="fill:#000000;stroke-width:0.53117466"
       id="path429"
       d="m 133.73602,172.18201 c -2.87211,-0.0331 -5.74264,-0.1845 -8.61039,-0.34127 -2.88647,-0.16442 -5.77434,-0.30427 -8.66397,-0.39851 -0.63857,-0.0161 -1.27719,-0.0401 -1.91606,-0.0397 -0.32603,0.0215 0.19032,-0.17807 0.3389,-0.17667 0.0584,0.23397 0.0436,0.5383 0.0414,0.78939 -0.053,1.51771 -0.19173,3.03258 -0.30733,4.54693 -0.21248,2.40007 -0.46,4.79625 -0.61584,7.2009 -0.11484,2.2114 -0.29205,4.41603 -0.28054,6.63145 0.0161,1.10453 0.058,2.20836 0.0978,3.3122 0.0161,0.38513 0.0201,0.77049 0.0201,1.15587 3.4e-4,0.34653 3.2e-4,0.69306 0,1.03959 -1e-4,0.23511 -3e-4,0.47019 -1.8e-4,0.70528 6e-5,0.0775 1.4e-4,0.15479 3.2e-4,0.23226 0.32955,-0.31601 1.1364,-0.25267 1.5771,-0.28897 2.22684,-0.20773 4.4603,-0.30652 6.69278,-0.43009 2.64209,-0.1584 5.28747,-0.24593 7.9336,-0.29612 1.53167,0.002 3.06677,-0.0817 4.59723,-10e-4 0.78656,0.0632 1.57094,0.14836 2.3584,0.20036 0.20479,0.01 0.40957,0.0263 0.61468,0.0303 -0.27989,0.13571 -0.29152,0.20265 -0.40198,-0.12929 -0.10218,-1.45885 -0.0554,-2.92929 -0.0528,-4.3917 0.006,-2.35765 0.008,-4.71532 0.008,-7.07298 -0.0269,-0.84957 0.0661,-1.70538 -0.0731,-2.54719 -0.0915,-0.44217 -0.13652,-0.89105 -0.16944,-1.34077 -0.0181,-0.27267 -0.0201,-0.5459 -0.0201,-0.81901 -0.0271,-0.66096 0.059,-1.316 0.11905,-1.97278 0.0522,-1.08177 0.19153,-2.15561 0.28928,-3.2336 0.0711,-0.84793 0.0968,-1.69854 0.10941,-2.54906 0.0277,-0.30473 -0.0608,-0.63066 0.0729,-0.91496 0.0247,-0.065 0.12306,-0.17024 0.14775,-0.19253 -0.25737,0.0181 0.18551,-0.12668 -0.0391,0.0404 -0.10942,0.0813 -0.22855,0.14876 -0.34282,0.22304 -0.66365,0.0568 -1.33559,0.0526 -2.00365,0.0913 -1.42254,0.11504 -2.84452,0.1034 -4.26798,0.0275 -0.45885,-0.0793 -0.95543,0.002 -1.40947,-0.11604 -0.2656,-0.30907 0.38199,-0.041 0.31186,-0.0161 -0.0943,0.0325 -0.19152,0.0566 -0.28734,0.0849 0,0 0.19493,-0.16803 0.19493,-0.16803 v 0 c -0.20142,0.50512 -0.16221,0.10499 -0.0325,-0.0783 0.45586,0.1052 0.94234,0.0472 1.40228,0.11644 1.42282,0.0767 2.84415,0.0865 4.26597,-0.0295 0.66656,-0.0393 1.3398,-0.0295 2.0004,-0.10018 -0.16402,0.33135 0.1865,-0.35948 0.39881,-0.24806 0.0636,0.0566 -0.0986,0.14776 -0.12387,0.22423 -0.14435,0.27845 -0.0536,0.6034 -0.0811,0.90683 -0.014,0.85138 -0.0392,1.70283 -0.10981,2.55168 -0.0974,1.07796 -0.2385,2.15156 -0.28898,3.23341 -0.0592,0.65562 -0.14615,1.30937 -0.11804,1.96908 3e-4,0.27265 0.001,0.54542 0.0181,0.81765 0.0315,0.44926 0.0757,0.8977 0.16723,1.33934 0.14113,0.84404 0.0466,1.70172 0.0713,2.55382 -0.004,2.35837 -0.008,4.71673 -0.01,7.07511 -10e-4,1.45853 -0.0422,2.92401 0.056,4.37935 0.062,0.20056 0.18651,0.2762 0.0161,0.46905 -0.20481,-0.006 -0.4093,-0.0205 -0.61382,-0.0327 -0.78661,-0.0536 -1.57015,-0.13933 -2.356,-0.20218 -1.52892,-0.0791 -3.06236,0.001 -4.59247,-0.002 -2.64521,0.049 -5.28975,0.13551 -7.9309,0.29469 -2.23426,0.12427 -4.46937,0.2255 -6.69778,0.43613 -0.53303,0.0446 -1.13296,0.0161 -1.60882,0.26055 1.8e-4,-0.0775 2.6e-4,-0.15519 3.6e-4,-0.23276 2e-4,-0.23517 8e-5,-0.47034 4.4e-4,-0.70551 3.5e-4,-0.34661 10e-4,-0.69322 5.3e-4,-1.03983 -0.001,-0.38534 -0.004,-0.77065 -0.0181,-1.15577 -0.0371,-1.10526 -0.0787,-2.21048 -0.0934,-3.31636 -0.01,-2.21642 0.16683,-4.42195 0.28166,-6.63436 0.15559,-2.40439 0.40288,-4.8003 0.61434,-7.20018 0.11423,-1.51259 0.25175,-3.02581 0.30295,-4.54172 0.002,-0.23158 -0.0121,-0.55386 -0.0181,-0.75679 -0.30419,-0.004 -0.1592,-0.22113 0.0261,-0.18791 0.63745,0.002 1.27454,0.0269 1.91164,0.0454 2.88726,0.0998 5.77277,0.24261 8.65709,0.40607 2.87085,0.15579 5.7448,0.3069 8.62013,0.32967 0,0 -0.18068,0.18068 -0.18068,0.18068 z"
       inkscape:connector-curvature="0" />
  </g>
</svg>
