<?xml version="1.0" encoding="UTF-8" standalone="no"?>
<!DOCTYPE svg PUBLIC "-//W3C//DTD SVG 1.1//EN"
 "http://www.w3.org/Graphics/SVG/1.1/DTD/svg11.dtd">
<!-- Generated by graphviz version 2.40.1 (0)
 -->
<!-- Title: arbre Pages: 1 -->
<svg width="208pt" height="206pt"
 viewBox="0.00 0.00 208.49 206.00" xmlns="http://www.w3.org/2000/svg" xmlns:xlink="http://www.w3.org/1999/xlink">
<g id="graph0" class="graph" transform="scale(1 1) rotate(0) translate(4 202)">
<title>arbre</title>
<polygon fill="#ffffff" stroke="transparent" points="-4,4 -4,-202 204.4902,-202 204.4902,4 -4,4"/>
<!-- tab -->
<g id="node1" class="node">
<title>tab</title>
<polygon fill="none" stroke="#000000" points="0,-53 0,-145 54,-145 54,-53 0,-53"/>
<text text-anchor="middle" x="27" y="-129.8" font-family="Courrier" font-size="14.00" fill="#000000">0</text>
<polyline fill="none" stroke="#000000" points="0,-122 54,-122 "/>
<text text-anchor="middle" x="27" y="-106.8" font-family="Courrier" font-size="14.00" fill="#000000">1</text>
<polyline fill="none" stroke="#000000" points="0,-99 54,-99 "/>
<text text-anchor="middle" x="27" y="-83.8" font-family="Courrier" font-size="14.00" fill="#000000">2</text>
<polyline fill="none" stroke="#000000" points="0,-76 54,-76 "/>
<text text-anchor="middle" x="27" y="-60.8" font-family="Courrier" font-size="14.00" fill="#000000">3</text>
</g>
<!-- obj0 -->
<g id="node2" class="node">
<title>obj0</title>
<ellipse fill="none" stroke="#000000" cx="145.2451" cy="-180" rx="55.4913" ry="18"/>
<text text-anchor="middle" x="145.2451" y="-176.3" font-family="Courrier" font-size="14.00" fill="#000000">vehicule1</text>
</g>
<!-- tab&#45;&gt;obj0 -->
<g id="edge1" class="edge">
<title>tab:i0&#45;&gt;obj0</title>
<path fill="none" stroke="#000000" d="M54,-134C72.0917,-134 73.8709,-144.8048 90,-153 94.8776,-155.4783 100.0164,-158.0464 105.1163,-160.5691"/>
<polygon fill="#000000" stroke="#000000" points="103.6712,-163.7587 114.1893,-165.0316 106.7606,-157.4774 103.6712,-163.7587"/>
</g>
<!-- obj1 -->
<g id="node3" class="node">
<title>obj1</title>
<ellipse fill="none" stroke="#000000" cx="145.2451" cy="-126" rx="55.4913" ry="18"/>
<text text-anchor="middle" x="145.2451" y="-122.3" font-family="Courrier" font-size="14.00" fill="#000000">vehicule2</text>
</g>
<!-- tab&#45;&gt;obj1 -->
<g id="edge2" class="edge">
<title>tab:i1&#45;&gt;obj1</title>
<path fill="none" stroke="#000000" d="M54,-111C65.6716,-111 78.0731,-112.2098 89.8486,-113.9423"/>
<polygon fill="#000000" stroke="#000000" points="89.5713,-117.4428 100.0015,-115.582 90.6874,-110.5323 89.5713,-117.4428"/>
</g>
<!-- obj2 -->
<g id="node4" class="node">
<title>obj2</title>
<ellipse fill="none" stroke="#000000" cx="145.2451" cy="-72" rx="55.4913" ry="18"/>
<text text-anchor="middle" x="145.2451" y="-68.3" font-family="Courrier" font-size="14.00" fill="#000000">vehicule3</text>
</g>
<!-- tab&#45;&gt;obj2 -->
<g id="edge3" class="edge">
<title>tab:i2&#45;&gt;obj2</title>
<path fill="none" stroke="#000000" d="M54,-87C65.6716,-87 78.0731,-85.7902 89.8486,-84.0577"/>
<polygon fill="#000000" stroke="#000000" points="90.6874,-87.4677 100.0015,-82.418 89.5713,-80.5572 90.6874,-87.4677"/>
</g>
<!-- obj3 -->
<g id="node5" class="node">
<title>obj3</title>
<ellipse fill="none" stroke="#000000" cx="145.2451" cy="-18" rx="55.4913" ry="18"/>
<text text-anchor="middle" x="145.2451" y="-14.3" font-family="Courrier" font-size="14.00" fill="#000000">vehicule4</text>
</g>
<!-- tab&#45;&gt;obj3 -->
<g id="edge4" class="edge">
<title>tab:i3&#45;&gt;obj3</title>
<path fill="none" stroke="#000000" d="M54,-64C72.0917,-64 73.8709,-53.1952 90,-45 94.8776,-42.5217 100.0164,-39.9536 105.1163,-37.4309"/>
<polygon fill="#000000" stroke="#000000" points="106.7606,-40.5226 114.1893,-32.9684 103.6712,-34.2413 106.7606,-40.5226"/>
</g>
</g>
</svg>
